<?xml version="1.0" encoding="UTF-8"?>
<svg width="561px" height="142px" viewBox="0 0 561 142" version="1.1" xmlns="http://www.w3.org/2000/svg" xmlns:xlink="http://www.w3.org/1999/xlink">
    <title>lockup</title>
    <g id="lockup" stroke="none" stroke-width="1" fill="none" fill-rule="evenodd">
        <g transform="translate(3.000000, 39.000000)" fill-rule="nonzero">
            <path d="M375.313234,63.34 L375.313234,62.2872656 C374.128339,62.1961198 373.508547,62.1459896 373.453859,62.136875 C373.235109,62.1004167 373.077883,62.0411719 372.98218,61.9591406 C372.886477,61.8771094 372.815839,61.7722917 372.770266,61.6446875 C372.715578,61.4623958 372.676841,60.9291927 372.654055,60.0450781 C372.631268,59.1609635 372.619875,58.231276 372.619875,57.2560156 L372.619875,57.2560156 L372.619875,52.8946875 C373.412844,52.8673438 373.891359,52.8536719 374.055422,52.8536719 C374.110109,52.8536719 374.337974,52.8627865 374.739016,52.8810156 L374.739016,52.8810156 L376.119875,52.9083594 L376.338625,51.6915625 C376.365969,51.5275 376.402427,51.3679948 376.448,51.2130469 L376.448,51.2130469 L376.270266,51.0763281 C375.696047,51.121901 375.01701,51.1538021 374.233156,51.1720313 L374.233156,51.1720313 L372.619875,51.1857031 L372.619875,49.2853125 C372.619875,47.8269792 372.674563,46.9155208 372.783938,46.5509375 C372.856854,46.3048438 373.002688,46.1088802 373.221438,45.9630469 C373.531333,45.762526 373.950604,45.6622656 374.47925,45.6622656 C374.843833,45.6622656 375.144615,45.7101172 375.381594,45.8058203 C375.618573,45.9015234 375.873781,46.0769792 376.147219,46.3321875 L376.147219,46.3321875 L376.694094,46.0860938 C376.675865,45.2475521 376.739667,44.3360938 376.8855,43.3517188 C376.375083,43.1876563 375.896568,43.105625 375.449953,43.105625 C375.012453,43.105625 374.620526,43.1717057 374.274172,43.3038672 C373.927818,43.4360286 373.622479,43.6160417 373.358156,43.8439063 L373.358156,43.8439063 L371.703859,45.3204688 C370.673911,46.2136979 370.008547,46.8608333 369.707766,47.261875 C369.525474,47.5079688 369.393313,47.7631771 369.311281,48.0275 C369.22925,48.2918229 369.167727,48.7407161 369.126711,49.3741797 C369.085695,50.0076432 369.065188,50.5385677 369.065188,50.9669531 C369.065188,51.1036719 369.005943,51.2130469 368.887453,51.2950781 C368.84188,51.3315365 368.212974,51.6642188 367.000734,52.293125 L367.000734,52.293125 L367.000734,52.9630469 L368.860109,52.8810156 L369.242922,52.8946875 L369.242922,56.99625 C369.224693,59.4936458 369.183677,60.9793229 369.119875,61.4532813 C369.092531,61.7176042 369.001385,61.8998958 368.846438,62.0001563 C368.645917,62.1277604 368.007896,62.2280208 366.932375,62.3009375 L366.932375,62.3009375 L366.932375,63.34 C368.837323,63.2944271 370.076906,63.2716406 370.651125,63.2716406 L370.651125,63.2716406 L375.313234,63.34 Z M383.489016,63.7091406 C384.127036,63.7091406 384.7605,63.5952083 385.389406,63.3673438 L385.389406,63.3673438 L386.934328,61.9044531 C387.198651,61.667474 387.508547,61.4077083 387.864016,61.1251563 C387.864016,61.6538021 387.859458,62.0047135 387.850344,62.1778906 L387.850344,62.1778906 L387.768313,63.230625 L387.864016,63.34 L390.448,63.2716406 L393.264406,63.34 L393.264406,62.24625 C392.31649,62.2006771 391.755943,62.1323177 391.582766,62.0411719 C391.482505,61.9773698 391.414146,61.8634375 391.377688,61.699375 C391.295656,61.3074479 391.254641,60.2775 391.254641,58.6095313 L391.254641,58.6095313 L391.254944,55.7671447 C391.258579,55.4899199 391.294937,54.5050905 391.364016,52.8126563 L391.364016,52.8126563 L391.514406,50.2970313 L391.254641,50.1466406 C390.033286,50.5385677 389.167401,50.7892188 388.656984,50.8985938 C388.146568,51.0079688 387.184979,51.1538021 385.772219,51.3360938 L385.772219,51.3360938 L385.772219,52.3751563 C386.747479,52.4298438 387.303469,52.479974 387.440188,52.5255469 C387.576906,52.5711198 387.668052,52.6349219 387.713625,52.7169531 C387.795656,52.8445573 387.836672,53.2228125 387.836672,53.8517188 L387.836672,53.8517188 L387.864016,55.793125 L387.864016,58.1310156 C387.864016,58.8784115 387.809328,59.370599 387.699953,59.6075781 C387.526776,59.9721615 387.21688,60.3253516 386.770266,60.6671484 C386.323651,61.0089453 385.772219,61.1798438 385.115969,61.1798438 C384.54175,61.1798438 384.081464,61.0340104 383.735109,60.7423438 C383.388755,60.4506771 383.170005,60.0177344 383.078859,59.4435156 C383.015057,59.0060156 382.983156,58.1355729 382.983156,56.8321875 L382.983156,55.3009375 C382.983156,53.7696875 383.046958,52.1017188 383.174563,50.2970313 L383.174563,50.2970313 L382.983156,50.1466406 C381.743573,50.5659115 380.727297,50.8575781 379.934328,51.0216406 C379.141359,51.1857031 378.352948,51.2905208 377.569094,51.3360938 L377.569094,51.3360938 L377.569094,52.3751563 C378.453208,52.4116146 378.97274,52.4617448 379.127688,52.5255469 C379.282635,52.589349 379.394289,52.6850521 379.462648,52.8126563 C379.531008,52.9402604 379.565188,53.2683854 379.565188,53.7970313 L379.565188,53.7970313 L379.592531,56.6817969 C379.592531,57.4200781 379.587974,58.0216406 379.578859,58.4864844 C379.551516,59.3614844 379.537844,59.8673438 379.537844,60.0040625 C379.537844,61.1251563 379.888755,62.0229427 380.590578,62.6974219 C381.292401,63.371901 382.258547,63.7091406 383.489016,63.7091406 Z M402.451906,63.34 L402.451906,62.24625 C401.60425,62.2006771 401.139406,62.168776 401.057375,62.1505469 C400.856854,62.1140885 400.715578,62.0639583 400.633547,62.0001563 C400.569745,61.9545833 400.524172,61.8998958 400.496828,61.8360938 C400.451255,61.7449479 400.419354,61.5284766 400.401125,61.1866797 C400.382896,60.8448828 400.355552,59.8582292 400.319094,58.2267188 C400.300865,57.5704688 400.29175,56.5815365 400.29175,55.2599219 L400.29175,51.7599219 C400.300865,49.5086198 400.328208,47.6082292 400.373781,46.05875 L400.373781,46.05875 L400.483156,43.2970313 L400.196047,43.1329688 C399.056724,43.4884375 398.149823,43.7368099 397.475344,43.8780859 C396.800865,44.019362 395.898521,44.1492448 394.768313,44.2677344 L394.768313,44.2677344 L394.768313,45.2794531 C395.451906,45.3067969 395.862063,45.3295833 395.998781,45.3478125 C396.23576,45.3842708 396.408938,45.4389583 396.518313,45.511875 C396.582115,45.5483333 396.632245,45.5984635 396.668703,45.6622656 C396.723391,45.7807552 396.768964,46.1590104 396.805422,46.7970313 C396.869224,47.9819271 396.901125,49.2898698 396.901125,50.7208594 L396.901125,50.7208594 L396.901125,55.2325781 C396.901125,56.3536719 396.887453,57.6388281 396.860109,59.0880469 C396.832766,60.5372656 396.787193,61.3985938 396.723391,61.6720313 C396.696047,61.8178646 396.648195,61.9249609 396.579836,61.9933203 C396.511477,62.0616797 396.408938,62.1140885 396.272219,62.1505469 C396.089927,62.1961198 395.565839,62.2325781 394.699953,62.2599219 L394.699953,62.2599219 L394.699953,63.34 C396.249432,63.2670833 397.643964,63.230625 398.883547,63.230625 C400.12313,63.230625 401.312583,63.2670833 402.451906,63.34 L402.451906,63.34 Z M411.776125,63.34 L411.776125,62.24625 C410.928469,62.2006771 410.463625,62.168776 410.381594,62.1505469 C410.181073,62.1140885 410.039797,62.0639583 409.957766,62.0001563 C409.893964,61.9545833 409.848391,61.8998958 409.821047,61.8360938 C409.775474,61.7449479 409.743573,61.5284766 409.725344,61.1866797 C409.707115,60.8448828 409.679771,59.8582292 409.643313,58.2267188 C409.625083,57.5704688 409.615969,56.5815365 409.615969,55.2599219 L409.615969,55.2599219 L409.615969,51.7599219 C409.625083,49.5086198 409.652427,47.6082292 409.698,46.05875 L409.698,46.05875 L409.807375,43.2970313 L409.520266,43.1329688 C408.380943,43.4884375 407.474042,43.7368099 406.799563,43.8780859 C406.125083,44.019362 405.22274,44.1492448 404.092531,44.2677344 L404.092531,44.2677344 L404.092531,45.2794531 C404.776125,45.3067969 405.186281,45.3295833 405.323,45.3478125 C405.559979,45.3842708 405.733156,45.4389583 405.842531,45.511875 C405.906333,45.5483333 405.956464,45.5984635 405.992922,45.6622656 C406.047609,45.7807552 406.093182,46.1590104 406.129641,46.7970313 C406.193443,47.9819271 406.225344,49.2898698 406.225344,50.7208594 L406.225344,50.7208594 L406.225344,55.2325781 C406.225344,56.3536719 406.211672,57.6388281 406.184328,59.0880469 C406.156984,60.5372656 406.111411,61.3985938 406.047609,61.6720313 C406.020266,61.8178646 405.972414,61.9249609 405.904055,61.9933203 C405.835695,62.0616797 405.733156,62.1140885 405.596438,62.1505469 C405.414146,62.1961198 404.890057,62.2325781 404.024172,62.2599219 L404.024172,62.2599219 L404.024172,63.34 C405.573651,63.2670833 406.968182,63.230625 408.207766,63.230625 C409.447349,63.230625 410.636802,63.2670833 411.776125,63.34 L411.776125,63.34 Z M420.539797,57.9396094 C420.694745,57.183099 420.838299,56.6111589 420.970461,56.2237891 C421.102622,55.8364193 421.259849,55.4832292 421.442141,55.1642188 L421.442141,55.1642188 L421.182375,54.8907813 L413.977297,54.8907813 C413.877036,55.3647396 413.717531,55.9571875 413.498781,56.668125 C413.352948,57.1147396 413.207115,57.4702083 413.061281,57.7345313 L413.061281,57.7345313 L413.266359,57.9396094 L420.539797,57.9396094 Z M427.375734,63.8185156 C429.280682,63.8185156 430.759523,63.3536719 431.812258,62.4239844 C432.864992,61.4942969 433.391359,60.3504167 433.391359,58.9923438 C433.391359,58.4728125 433.311607,57.9965755 433.152102,57.5636328 C432.992596,57.1306901 432.762453,56.7683854 432.461672,56.4767188 C432.160891,56.1850521 431.759849,55.9435156 431.258547,55.7521094 C430.912193,55.6245052 430.235435,55.4672786 429.228273,55.2804297 C428.221112,55.0935807 427.530682,54.9409115 427.156984,54.8224219 C426.783286,54.7039323 426.500734,54.5261979 426.309328,54.2892188 C426.117922,54.0522396 426.022219,53.6876563 426.022219,53.1954688 C426.022219,52.7123958 426.234133,52.2976823 426.657961,51.9513281 C427.081789,51.604974 427.681073,51.4317969 428.455813,51.4317969 C429.011802,51.4317969 429.497154,51.5229427 429.911867,51.7052344 C430.326581,51.887526 430.675214,52.1609635 430.957766,52.5255469 C431.039797,52.9083594 431.094484,53.3048438 431.121828,53.715 C431.140057,53.9519792 431.153729,54.120599 431.162844,54.2208594 L431.162844,54.2208594 L432.215578,54.2345313 C432.270266,53.0131771 432.311281,52.2384375 432.338625,51.9103125 C432.365969,51.5821875 432.406984,51.2586198 432.461672,50.9396094 L432.461672,50.9396094 L432.420656,50.8028906 C431.919354,50.5476823 431.358807,50.356276 430.739016,50.2286719 C430.119224,50.1010677 429.440188,50.0372656 428.701906,50.0372656 C426.924563,50.0372656 425.561932,50.4542578 424.614016,51.2882422 C423.666099,52.1222266 423.192141,53.168125 423.192141,54.4259375 C423.192141,55.1277604 423.337974,55.7407161 423.629641,56.2648047 C423.921307,56.7888932 424.326906,57.183099 424.846438,57.4474219 C425.365969,57.7117448 426.129315,57.9532813 427.136477,58.1720313 C428.143638,58.3907813 428.824953,58.5639583 429.180422,58.6915625 C429.636151,58.9011979 429.939211,59.1313411 430.089602,59.3819922 C430.239992,59.6326432 430.315188,59.949375 430.315188,60.3321875 C430.315188,60.9155208 430.087323,61.4122656 429.631594,61.8224219 C429.175865,62.2325781 428.519615,62.4376563 427.662844,62.4376563 C427.024823,62.4376563 426.459719,62.316888 425.967531,62.0753516 C425.475344,61.8338151 425.024172,61.4623958 424.614016,60.9610938 C424.568443,60.6967708 424.52287,60.0541927 424.477297,59.0333594 L424.477297,59.0333594 L423.383547,59.0333594 L423.301516,61.3302344 C423.283286,61.621901 423.237714,62.1186458 423.164797,62.8204688 L423.164797,62.8204688 L423.315188,63.0255469 C424.181073,63.3263281 424.914797,63.5336849 425.516359,63.6476172 C426.117922,63.7615495 426.737714,63.8185156 427.375734,63.8185156 Z M440.131594,63.6271094 C440.42326,63.6271094 440.708091,63.6020443 440.986086,63.5519141 C441.264081,63.5017839 441.580813,63.3992448 441.936281,63.2442969 C442.237063,62.934401 442.587974,62.574375 442.989016,62.1642188 L442.989016,62.1642188 L443.481203,61.6720313 L443.262453,61.1114844 C442.970786,61.1752865 442.731529,61.2185807 442.54468,61.2413672 C442.357831,61.2641536 442.109458,61.2709896 441.799563,61.261875 C441.289146,61.261875 440.899497,61.1411068 440.630617,60.8995703 C440.361737,60.6580339 440.209068,60.3230729 440.172609,59.8946875 C440.145266,59.6394792 440.131594,58.8100521 440.131594,57.4064063 L440.131594,52.84 L441.457766,52.84 L442.797609,52.8673438 C442.888755,52.8673438 442.989016,52.8582292 443.098391,52.84 L443.098391,52.84 L443.330813,50.9942969 C442.711021,51.0854427 441.795005,51.1310156 440.582766,51.1310156 L440.582766,51.1310156 L440.131594,51.1310156 L440.254641,48.7384375 L440.350344,47.1661719 L440.487063,45.7442969 L440.131594,45.4708594 C439.019615,45.9903906 438.440839,46.2592708 438.395266,46.2775 C438.130943,46.3777604 437.556724,46.573724 436.672609,46.8653906 C436.745526,47.8315365 436.781984,48.6427344 436.781984,49.2989844 L436.781984,49.2989844 L436.781984,51.1310156 C436.599693,51.276849 436.408286,51.4135677 436.207766,51.5411719 L436.207766,51.5411719 L434.977297,52.3204688 L434.977297,52.9357031 C435.433026,52.9083594 435.911542,52.8946875 436.412844,52.8946875 L436.412844,52.8946875 L436.781984,52.8946875 L436.781984,56.2716406 L436.727297,60.7833594 C436.727297,61.5945573 437.030357,62.2713151 437.636477,62.8136328 C438.242596,63.3559505 439.074302,63.6271094 440.131594,63.6271094 Z M447.938234,63.6954688 C448.311932,63.6954688 448.703859,63.6498958 449.114016,63.55875 C450.718182,62.3282813 451.684328,61.6082292 452.012453,61.3985938 L452.012453,61.3985938 L451.889406,63.1896094 L452.012453,63.34 C452.732505,63.2944271 453.475344,63.2716406 454.240969,63.2716406 C455.052167,63.2716406 455.981854,63.2944271 457.030031,63.34 L457.030031,63.34 L457.030031,62.3146094 C456.255292,62.2599219 455.795005,62.1961198 455.649172,62.1232031 C455.539797,62.0685156 455.46688,61.9591406 455.430422,61.7950781 C455.339276,61.448724 455.293703,60.464349 455.293703,58.8419531 C455.293703,58.3224219 455.307375,57.6525 455.334719,56.8321875 C455.380292,55.6017188 455.403078,54.840651 455.403078,54.5489844 C455.403078,53.8653906 455.346112,53.3002865 455.23218,52.8536719 C455.118247,52.4070573 454.908612,51.9877865 454.603273,51.5958594 C454.297935,51.2039323 453.823977,50.8644141 453.181398,50.5773047 C452.53882,50.2901953 451.720786,50.1466406 450.727297,50.1466406 C450.11662,50.1466406 449.642661,50.1967708 449.305422,50.2970313 C449.059328,50.3699479 448.630943,50.575026 448.020266,50.9122656 C447.409589,51.2495052 446.76701,51.6459896 446.092531,52.1017188 L446.092531,52.1017188 L446.0105,53.8653906 L446.940188,54.0704688 L447.514406,52.6896094 C447.724042,52.5528906 447.906333,52.4617448 448.061281,52.4161719 C448.41675,52.3159115 448.790448,52.2657813 449.182375,52.2657813 C450.148521,52.2657813 450.868573,52.5483333 451.342531,53.1134375 C451.807375,53.6785417 452.030682,54.5034115 452.012453,55.5880469 C450.298911,55.8797135 448.722089,56.2807552 447.281984,56.7911719 C446.680422,57.0008073 446.236086,57.2172786 445.948977,57.4405859 C445.661867,57.6638932 445.392987,58.012526 445.142336,58.4864844 C444.891685,58.9604427 444.766359,59.5665625 444.766359,60.3048438 C444.766359,61.3985938 445.046633,62.2371354 445.60718,62.8204688 C446.167727,63.4038021 446.944745,63.6954688 447.938234,63.6954688 Z M449.797609,61.3165625 C449.314536,61.3165625 448.924888,61.1570573 448.628664,60.8380469 C448.33244,60.5190365 448.184328,60.0678646 448.184328,59.4845313 C448.184328,58.965 448.307375,58.5343359 448.553469,58.1925391 C448.799563,57.8507422 449.243898,57.5636328 449.886477,57.3312109 C450.529055,57.0987891 451.237714,56.9005469 452.012453,56.7364844 L452.012453,56.7364844 L452.012453,60.05875 C451.775474,60.4233333 451.449628,60.7241146 451.034914,60.9610938 C450.620201,61.1980729 450.207766,61.3165625 449.797609,61.3165625 Z M465.178469,63.8185156 C465.862063,63.8185156 466.447674,63.7569922 466.935305,63.6339453 C467.422935,63.5108984 468.058677,63.2534115 468.842531,62.8614844 L468.842531,62.8614844 L469.444094,61.5353125 L469.184328,61.2208594 C468.837974,61.403151 468.473391,61.5421484 468.090578,61.6378516 C467.707766,61.7335547 467.302167,61.7814063 466.873781,61.7814063 C465.934979,61.7814063 465.144289,61.5694922 464.501711,61.1456641 C463.859133,60.7218359 463.34188,60.0564714 462.949953,59.1495703 C462.558026,58.2426693 462.362063,57.215 462.362063,56.0665625 C462.362063,55.2097917 462.457766,54.480625 462.649172,53.8790625 C462.840578,53.2775 463.141359,52.8491146 463.551516,52.5939063 C463.961672,52.3386979 464.513104,52.2110938 465.205813,52.2110938 C465.789146,52.2110938 466.281333,52.3090755 466.682375,52.5050391 C467.083417,52.7010026 467.379641,52.9539323 467.571047,53.2638281 C467.653078,53.6557552 467.721438,54.2573177 467.776125,55.0685156 L467.776125,55.0685156 L468.842531,55.0685156 C468.906333,54.011224 468.951906,53.3823177 468.97925,53.1817969 L468.97925,53.1817969 L469.321047,50.9532813 L469.184328,50.7208594 C468.755943,50.5294531 468.28882,50.3858984 467.782961,50.2901953 C467.277102,50.1944922 466.732505,50.1466406 466.149172,50.1466406 C465.447349,50.1466406 464.877688,50.2286719 464.440188,50.3927344 C464.175865,50.4838802 463.688234,50.7573177 462.977297,51.2130469 L462.977297,51.2130469 L460.871828,52.5392188 C460.489016,52.8126563 460.183677,53.1043229 459.955813,53.4142188 C459.618573,53.8790625 459.358807,54.4168229 459.176516,55.0275 C458.994224,55.6381771 458.903078,56.4220313 458.903078,57.3790625 C458.903078,58.6551042 459.076255,59.6759375 459.422609,60.4415625 C459.905682,61.5261979 460.612063,62.3601823 461.54175,62.9435156 C462.471438,63.526849 463.683677,63.8185156 465.178469,63.8185156 Z M486.91675,63.34 L486.91675,62.24625 C486.552167,62.2189063 486.274172,62.1505469 486.082766,62.0411719 C485.745526,61.8497656 485.039146,61.1388281 483.963625,59.9083594 C482.049563,57.7390885 480.69149,56.1804948 479.889406,55.2325781 L479.889406,55.2325781 L481.051516,54.2208594 C481.142661,54.1388281 481.270266,54.0203385 481.434328,53.8653906 C481.598391,53.7104427 482.081464,53.3139583 482.883547,52.6759375 C483.457766,52.2202083 483.881594,51.9239844 484.155031,51.7872656 C484.300865,51.714349 484.451255,51.668776 484.606203,51.6505469 L484.606203,51.6505469 L486.04175,51.5548438 L486.04175,50.4884375 C485.184979,50.4975521 484.574302,50.5021094 484.209719,50.5021094 C483.371177,50.511224 482.54175,50.5066667 481.721438,50.4884375 L481.721438,50.4884375 L481.721438,51.2540625 C481.393313,51.636875 480.987714,52.0652604 480.504641,52.5392188 C480.021568,53.0131771 479.684328,53.3504167 479.492922,53.5509375 C478.964276,54.0613542 478.298911,54.6811458 477.496828,55.4103125 C477.114016,55.7566667 476.776776,56.0392188 476.485109,56.2579688 L476.485109,56.2579688 L476.485109,51.2814063 C476.485109,49.6225521 476.503339,47.9728125 476.539797,46.3321875 L476.539797,46.3321875 L476.6355,43.3653906 L476.334719,43.2013281 C475.250083,43.5476823 474.418378,43.7846615 473.839602,43.9122656 C473.260826,44.0398698 472.328859,44.1811458 471.043703,44.3360938 L471.043703,44.3360938 L471.043703,45.3478125 C471.681724,45.3751563 472.078208,45.4025 472.233156,45.4298438 C472.461021,45.4663021 472.629641,45.5164323 472.739016,45.5802344 C472.802818,45.6166927 472.852948,45.6668229 472.889406,45.730625 C472.944094,45.84 472.985109,46.200026 473.012453,46.8107031 C473.08537,48.0047135 473.121828,49.3354427 473.121828,50.8028906 L473.121828,50.8028906 L473.121153,55.639021 C473.117552,56.7453739 473.099548,58.0317679 473.067141,59.4982031 C473.048911,60.7104427 473.003339,61.4532813 472.930422,61.7267188 C472.903078,61.8360938 472.852948,61.9249609 472.780031,61.9933203 C472.707115,62.0616797 472.600018,62.1118099 472.458742,62.1437109 C472.317466,62.175612 471.845786,62.2097917 471.043703,62.24625 L471.043703,62.24625 L471.043703,63.34 C472.255943,63.2761979 473.568443,63.2442969 474.981203,63.2442969 C476.302818,63.2442969 477.519615,63.2761979 478.631594,63.34 L478.631594,63.34 L478.631594,62.24625 C477.884198,62.2097917 477.455813,62.1824479 477.346438,62.1642188 C477.100344,62.1277604 476.927167,62.0730729 476.826906,62.0001563 C476.75399,61.9545833 476.703859,61.8953385 476.676516,61.8224219 C476.630943,61.7130469 476.594484,61.403151 476.567141,60.8927344 C476.512453,59.762526 476.485109,58.8647396 476.485109,58.199375 L476.485109,58.199375 L476.485109,56.8595313 C476.621828,56.8686458 476.722089,56.9005469 476.785891,56.9552344 C476.977297,57.1010677 477.799888,58.0011328 479.253664,59.6554297 C480.70744,61.3097266 481.671307,62.5379167 482.145266,63.34 C482.464276,63.3126563 483.257245,63.2989844 484.524172,63.2989844 C485.736411,63.2989844 486.533938,63.3126563 486.91675,63.34 L486.91675,63.34 Z M374.561281,102.55875 L374.561281,101.478672 C373.421958,101.387526 372.806724,101.332839 372.715578,101.314609 C372.496828,101.269036 372.346438,101.193841 372.264406,101.089023 C372.182375,100.984206 372.141359,100.722161 372.141359,100.302891 L372.141359,100.302891 L372.141359,95.2442969 C372.551516,95.3810156 372.957115,95.4858333 373.358156,95.55875 C373.759198,95.6316667 374.151125,95.668125 374.533938,95.668125 C375.01701,95.668125 375.440839,95.6134375 375.805422,95.5040625 C376.069745,95.4311458 376.34774,95.3035417 376.639406,95.12125 C376.821698,95.0027604 377.122479,94.7703385 377.54175,94.4239844 C377.961021,94.0776302 378.419029,93.7221615 378.915773,93.3575781 C379.412518,92.9929948 379.765708,92.7013281 379.975344,92.4825781 C380.257896,92.1909115 380.524497,91.8263281 380.775148,91.3888281 C381.025799,90.9513281 381.251385,90.3634375 381.451906,89.6251563 C381.652427,88.886875 381.752688,88.1440365 381.752688,87.3966406 C381.752688,86.2117448 381.47925,85.206862 380.932375,84.3819922 C380.3855,83.5571224 379.688234,82.948724 378.840578,82.5567969 C378.24813,82.2833594 377.468833,82.1466406 376.502688,82.1466406 C376.074302,82.1466406 375.739341,82.1717057 375.497805,82.2218359 C375.256268,82.2719661 374.957766,82.3699479 374.602297,82.5157813 C374.420005,82.6889583 374.283286,82.8165625 374.192141,82.8985938 L374.192141,82.8985938 L372.824953,84.0196875 C372.505943,84.2840104 372.278078,84.4708594 372.141359,84.5802344 L372.141359,84.5802344 L372.182375,82.2833594 L371.867922,82.0782813 C371.129641,82.4064063 370.414146,82.6525 369.721438,82.8165625 C369.028729,82.980625 368.003339,83.1355729 366.645266,83.2814063 L366.645266,83.2814063 L366.645266,84.3478125 C367.556724,84.3569271 368.076255,84.3865495 368.203859,84.4366797 C368.331464,84.4868099 368.427167,84.5620052 368.490969,84.6622656 C368.582115,84.8172135 368.645917,85.3253516 368.682375,86.1866797 C368.718833,87.0480078 368.737063,88.0528906 368.737063,89.2013281 L368.737063,89.2013281 L368.737063,95.5314063 L368.696047,98.4708594 C368.659589,99.6739844 368.618573,100.457839 368.573,100.822422 C368.554771,100.959141 368.511477,101.075352 368.443117,101.171055 C368.374758,101.266758 368.285891,101.332839 368.176516,101.369297 C367.985109,101.442214 367.474693,101.478672 366.645266,101.478672 L366.645266,101.478672 L366.645266,102.55875 L370.227297,102.463047 L374.561281,102.55875 Z M374.875734,93.9044531 C374.383547,93.9044531 373.909589,93.7973568 373.453859,93.5831641 C372.99813,93.3689714 372.56063,93.0476823 372.141359,92.6192969 L372.141359,92.6192969 L372.141359,85.9200781 C372.469484,85.528151 372.891034,85.2045833 373.406008,84.949375 C373.920982,84.6941667 374.42912,84.5665625 374.930422,84.5665625 C375.449953,84.5665625 375.930747,84.6873307 376.372805,84.9288672 C376.814862,85.1704036 377.163495,85.4711849 377.418703,85.8312109 C377.673911,86.191237 377.874432,86.660638 378.020266,87.2394141 C378.166099,87.8181901 378.239016,88.4311458 378.239016,89.0782813 C378.239016,90.09 378.095461,90.9832292 377.808352,91.7579688 C377.521242,92.5327083 377.124758,93.0841406 376.618898,93.4122656 C376.113039,93.7403906 375.531984,93.9044531 374.875734,93.9044531 Z M391.746828,95.34 L391.746828,94.2872656 L390.625734,94.1778906 C390.142661,94.1414323 389.828208,94.0776302 389.682375,93.9864844 C389.536542,93.8953385 389.443117,93.770013 389.402102,93.6105078 C389.361086,93.4510026 389.336021,93.0203385 389.326906,92.3185156 L389.326906,92.3185156 L389.299563,90.4591406 L389.299776,88.8474081 C389.301912,87.6580618 389.32007,86.9693945 389.35425,86.7814063 C389.427167,86.4350521 389.65731,86.0955339 390.04468,85.7628516 C390.432049,85.4301693 390.894615,85.2638281 391.432375,85.2638281 C391.833417,85.2638281 392.202557,85.3595313 392.539797,85.5509375 C392.749432,85.6694271 392.968182,85.8790625 393.196047,86.1798438 L393.196047,86.1798438 L393.770266,86.0021094 C393.788495,85.8471615 393.811281,85.2410417 393.838625,84.18375 L393.838625,84.18375 L393.920656,82.2423438 C393.647219,82.1329688 393.34188,82.0782813 393.004641,82.0782813 C392.46688,82.0782813 392.033938,82.1876563 391.705813,82.4064063 C391.468833,82.5613542 391.113365,82.9213802 390.639406,83.4864844 C390.320396,83.887526 389.864667,84.3933854 389.272219,85.0040625 L389.272219,85.0040625 L389.299563,82.2423438 L388.930422,82.0782813 C388.274172,82.3790625 387.686281,82.5978125 387.16675,82.7345313 C386.647219,82.87125 385.558026,83.0808854 383.899172,83.3634375 L383.899172,83.3634375 L383.899172,84.4161719 C384.755943,84.4435156 385.270917,84.4890885 385.444094,84.5528906 C385.553469,84.589349 385.633221,84.6463151 385.683352,84.7237891 C385.733482,84.801263 385.772219,85.1316667 385.799563,85.715 C385.85425,86.8725521 385.881594,87.8569271 385.881594,88.668125 L385.881594,88.668125 L385.88138,90.6669958 C385.880383,91.1345455 385.875897,91.479974 385.867922,91.7032813 L385.867922,91.7032813 L385.813234,92.9200781 C385.80412,93.403151 385.75399,93.731276 385.662844,93.9044531 C385.599042,94.0138281 385.503339,94.0913021 385.375734,94.136875 C385.102297,94.2371354 384.610109,94.2872656 383.899172,94.2872656 L383.899172,94.2872656 L383.899172,95.34 C385.421307,95.2944271 386.888755,95.2716406 388.301516,95.2716406 C389.568443,95.2716406 390.71688,95.2944271 391.746828,95.34 L391.746828,95.34 Z M401.563234,95.8185156 C402.830161,95.8185156 403.969484,95.5815365 404.981203,95.1075781 C405.573651,94.825026 406.138755,94.4080339 406.676516,93.8566016 C407.214276,93.3051693 407.642661,92.5782813 407.961672,91.6759375 C408.280682,90.7735938 408.440188,89.7071875 408.440188,88.4767188 C408.440188,86.3439063 407.891034,84.7260677 406.792727,83.6232031 C405.694419,82.5203385 404.092531,81.9689063 401.987063,81.9689063 C400.583417,81.9689063 399.352948,82.2263932 398.295656,82.7413672 C397.238365,83.2563411 396.445396,84.0219661 395.91675,85.0382422 C395.388104,86.0545182 395.123781,87.3373958 395.123781,88.886875 C395.123781,91.1655208 395.682049,92.8904557 396.798586,94.0616797 C397.915122,95.2329036 399.503339,95.8185156 401.563234,95.8185156 Z M402.000734,94.4376563 C401.125734,94.4376563 400.451255,94.0958594 399.977297,93.4122656 C399.266359,92.3823177 398.910891,90.6551042 398.910891,88.230625 C398.910891,86.9272396 399.024823,85.9360286 399.252688,85.2569922 C399.480552,84.5779557 399.799563,84.0948828 400.209719,83.8077734 C400.619875,83.5206641 401.098391,83.3771094 401.645266,83.3771094 C402.283286,83.3771094 402.827883,83.5730729 403.279055,83.965 C403.730227,84.3569271 404.072023,85.0519141 404.304445,86.0499609 C404.536867,87.0480078 404.653078,88.2442969 404.653078,89.6388281 C404.653078,91.6258073 404.361411,92.965651 403.778078,93.6583594 C403.340578,94.1778906 402.74813,94.4376563 402.000734,94.4376563 Z M416.2605,95.7091406 C416.834719,95.7091406 417.295005,95.6407813 417.641359,95.5040625 C417.923911,95.3126563 418.211021,95.0802344 418.502688,94.8067969 C419.250083,94.1505469 419.938234,93.558099 420.567141,93.0294531 L420.567141,93.0294531 L420.539797,94.1505469 L420.471438,95.230625 L420.594484,95.34 L423.055422,95.2989844 L425.926516,95.34 L425.926516,94.355625 C425.087974,94.2918229 424.595786,94.2325781 424.449953,94.1778906 C424.30412,94.1232031 424.199302,94.0388932 424.1355,93.9249609 C424.071698,93.8110286 424.026125,93.4988542 423.998781,92.9884375 C423.953208,92.2683854 423.930422,91.5984635 423.930422,90.9786719 L423.930422,90.9786719 L423.930761,88.5624787 C423.933021,84.8254995 423.94658,81.8756889 423.971438,79.7130469 C423.980552,79.2846615 424.039797,77.8491146 424.149172,75.4064063 L424.149172,75.4064063 L423.793703,75.2013281 C422.134849,75.8028906 420.334719,76.199375 418.393313,76.3907813 L418.393313,76.3907813 L418.393313,77.4025 C419.395917,77.4298438 419.956464,77.4571875 420.074953,77.4845313 C420.193443,77.511875 420.284589,77.5711198 420.348391,77.6622656 C420.430422,77.7807552 420.480552,78.0769792 420.498781,78.5509375 C420.544354,79.5353125 420.567141,80.3738542 420.567141,81.0665625 C420.567141,81.6590104 420.553469,82.2195573 420.526125,82.7482031 C419.824302,82.4747656 419.329836,82.3061458 419.042727,82.2423438 C418.755617,82.1785417 418.393313,82.1466406 417.955813,82.1466406 C417.25399,82.1466406 416.682049,82.2309505 416.239992,82.3995703 C415.797935,82.5681901 415.068768,83.0079688 414.052492,83.7189063 C413.036216,84.4298438 412.42326,84.9129167 412.213625,85.168125 C411.921958,85.5144792 411.66675,86.0066667 411.448,86.6446875 C411.156333,87.4832292 411.0105,88.4357031 411.0105,89.5021094 C411.0105,91.4252865 411.507245,92.9405859 412.500734,94.0480078 C413.494224,95.1554297 414.747479,95.7091406 416.2605,95.7091406 Z M417.79175,93.0704688 C416.898521,93.0704688 416.187583,92.7377865 415.658938,92.0724219 C414.948,91.1700781 414.592531,89.8894792 414.592531,88.230625 C414.592531,87.3373958 414.690513,86.5489844 414.886477,85.8653906 C415.08244,85.1817969 415.378664,84.6873307 415.775148,84.3819922 C416.171633,84.0766536 416.684328,83.9239844 417.313234,83.9239844 C418.033286,83.9239844 418.694094,84.0971615 419.295656,84.4435156 C419.614667,84.6258073 420.024823,85.0177344 420.526125,85.6192969 L420.526125,85.6192969 L420.608156,88.1349219 C420.608156,89.948724 420.560305,91.0333594 420.464602,91.3888281 C420.368898,91.7442969 420.068117,92.1134375 419.562258,92.49625 C419.056398,92.8790625 418.466229,93.0704688 417.79175,93.0704688 Z M433.268313,95.7091406 C433.906333,95.7091406 434.539797,95.5952083 435.168703,95.3673438 L435.168703,95.3673438 L436.713625,93.9044531 C436.977948,93.667474 437.287844,93.4077083 437.643313,93.1251563 C437.643313,93.6538021 437.638755,94.0047135 437.629641,94.1778906 L437.629641,94.1778906 L437.547609,95.230625 L437.643313,95.34 L440.227297,95.2716406 L443.043703,95.34 L443.043703,94.24625 C442.095786,94.2006771 441.53524,94.1323177 441.362063,94.0411719 C441.261802,93.9773698 441.193443,93.8634375 441.156984,93.699375 C441.074953,93.3074479 441.033938,92.2775 441.033938,90.6095313 L441.033938,90.6095313 L441.033938,87.8067969 C441.033938,87.5971615 441.070396,86.5991146 441.143313,84.8126563 L441.143313,84.8126563 L441.293703,82.2970313 L441.033938,82.1466406 C439.812583,82.5385677 438.946698,82.7892188 438.436281,82.8985938 C437.925865,83.0079688 436.964276,83.1538021 435.551516,83.3360938 L435.551516,83.3360938 L435.551516,84.3751563 C436.526776,84.4298438 437.082766,84.479974 437.219484,84.5255469 C437.356203,84.5711198 437.447349,84.6349219 437.492922,84.7169531 C437.574953,84.8445573 437.615969,85.2228125 437.615969,85.8517188 L437.615969,85.8517188 L437.643313,87.793125 L437.643313,90.1310156 C437.643313,90.8784115 437.588625,91.370599 437.47925,91.6075781 C437.306073,91.9721615 436.996177,92.3253516 436.549563,92.6671484 C436.102948,93.0089453 435.551516,93.1798438 434.895266,93.1798438 C434.321047,93.1798438 433.86076,93.0340104 433.514406,92.7423438 C433.168052,92.4506771 432.949302,92.0177344 432.858156,91.4435156 C432.794354,91.0060156 432.762453,90.1355729 432.762453,88.8321875 L432.762453,87.3009375 C432.762453,85.7696875 432.826255,84.1017188 432.953859,82.2970313 L432.953859,82.2970313 L432.762453,82.1466406 C431.52287,82.5659115 430.506594,82.8575781 429.713625,83.0216406 C428.920656,83.1857031 428.132245,83.2905208 427.348391,83.3360938 L427.348391,83.3360938 L427.348391,84.3751563 C428.232505,84.4116146 428.752036,84.4617448 428.906984,84.5255469 C429.061932,84.589349 429.173586,84.6850521 429.241945,84.8126563 C429.310305,84.9402604 429.344484,85.2683854 429.344484,85.7970313 L429.344484,85.7970313 L429.371828,88.6817969 C429.371828,89.4200781 429.367271,90.0216406 429.358156,90.4864844 C429.330813,91.3614844 429.317141,91.8673438 429.317141,92.0040625 C429.317141,93.1251563 429.668052,94.0229427 430.369875,94.6974219 C431.071698,95.371901 432.037844,95.7091406 433.268313,95.7091406 Z M451.233156,95.8185156 C451.91675,95.8185156 452.502362,95.7569922 452.989992,95.6339453 C453.477622,95.5108984 454.113365,95.2534115 454.897219,94.8614844 L454.897219,94.8614844 L455.498781,93.5353125 L455.239016,93.2208594 C454.892661,93.403151 454.528078,93.5421484 454.145266,93.6378516 C453.762453,93.7335547 453.356854,93.7814063 452.928469,93.7814063 C451.989667,93.7814063 451.198977,93.5694922 450.556398,93.1456641 C449.91382,92.7218359 449.396568,92.0564714 449.004641,91.1495703 C448.612714,90.2426693 448.41675,89.215 448.41675,88.0665625 C448.41675,87.2097917 448.512453,86.480625 448.703859,85.8790625 C448.895266,85.2775 449.196047,84.8491146 449.606203,84.5939063 C450.016359,84.3386979 450.567792,84.2110938 451.2605,84.2110938 C451.843833,84.2110938 452.336021,84.3090755 452.737063,84.5050391 C453.138104,84.7010026 453.434328,84.9539323 453.625734,85.2638281 C453.707766,85.6557552 453.776125,86.2573177 453.830813,87.0685156 L453.830813,87.0685156 L454.897219,87.0685156 C454.961021,86.011224 455.006594,85.3823177 455.033938,85.1817969 L455.033938,85.1817969 L455.375734,82.9532813 L455.239016,82.7208594 C454.81063,82.5294531 454.343508,82.3858984 453.837648,82.2901953 C453.331789,82.1944922 452.787193,82.1466406 452.203859,82.1466406 C451.502036,82.1466406 450.932375,82.2286719 450.494875,82.3927344 C450.230552,82.4838802 449.742922,82.7573177 449.031984,83.2130469 L449.031984,83.2130469 L446.926516,84.5392188 C446.543703,84.8126563 446.238365,85.1043229 446.0105,85.4142188 C445.67326,85.8790625 445.413495,86.4168229 445.231203,87.0275 C445.048911,87.6381771 444.957766,88.4220313 444.957766,89.3790625 C444.957766,90.6551042 445.130943,91.6759375 445.477297,92.4415625 C445.96037,93.5261979 446.66675,94.3601823 447.596438,94.9435156 C448.526125,95.526849 449.738365,95.8185156 451.233156,95.8185156 Z M461.938234,95.6271094 C462.229901,95.6271094 462.514732,95.6020443 462.792727,95.5519141 C463.070721,95.5017839 463.387453,95.3992448 463.742922,95.2442969 C464.043703,94.934401 464.394615,94.574375 464.795656,94.1642188 L464.795656,94.1642188 L465.287844,93.6720313 L465.069094,93.1114844 C464.777427,93.1752865 464.538169,93.2185807 464.35132,93.2413672 C464.164471,93.2641536 463.916099,93.2709896 463.606203,93.261875 C463.095786,93.261875 462.706138,93.1411068 462.437258,92.8995703 C462.168378,92.6580339 462.015708,92.3230729 461.97925,91.8946875 C461.955324,91.6713802 461.941866,91.0084367 461.938875,89.9058569 L461.938234,84.84 L463.264406,84.84 L464.60425,84.8673438 C464.695396,84.8673438 464.795656,84.8582292 464.905031,84.84 L464.905031,84.84 L465.137453,82.9942969 C464.517661,83.0854427 463.601646,83.1310156 462.389406,83.1310156 L462.389406,83.1310156 L461.938234,83.1310156 L462.061281,80.7384375 L462.156984,79.1661719 L462.293703,77.7442969 L461.938234,77.4708594 C460.826255,77.9903906 460.247479,78.2592708 460.201906,78.2775 C459.937583,78.3777604 459.363365,78.573724 458.47925,78.8653906 C458.552167,79.8315365 458.588625,80.6427344 458.588625,81.2989844 L458.588625,81.2989844 L458.588625,83.1310156 C458.406333,83.276849 458.214927,83.4135677 458.014406,83.5411719 L458.014406,83.5411719 L456.783938,84.3204688 L456.783938,84.9357031 C457.239667,84.9083594 457.718182,84.8946875 458.219484,84.8946875 L458.219484,84.8946875 L458.588625,84.8946875 L458.588625,88.2716406 L458.533938,92.7833594 C458.533938,93.5945573 458.836997,94.2713151 459.443117,94.8136328 C460.049237,95.3559505 460.880943,95.6271094 461.938234,95.6271094 Z M479.219484,95.7091406 C479.793703,95.7091406 480.25399,95.6407813 480.600344,95.5040625 C480.882896,95.3126563 481.170005,95.0802344 481.461672,94.8067969 C482.209068,94.1505469 482.897219,93.558099 483.526125,93.0294531 L483.526125,93.0294531 L483.498781,94.1505469 L483.430422,95.230625 L483.553469,95.34 L486.014406,95.2989844 L488.8855,95.34 L488.8855,94.355625 C488.046958,94.2918229 487.554771,94.2325781 487.408938,94.1778906 C487.263104,94.1232031 487.158286,94.0388932 487.094484,93.9249609 C487.030682,93.8110286 486.985109,93.4988542 486.957766,92.9884375 C486.912193,92.2683854 486.889406,91.5984635 486.889406,90.9786719 L486.889406,90.9786719 L486.889745,88.5624787 C486.892005,84.8254995 486.905564,81.8756889 486.930422,79.7130469 C486.939536,79.2846615 486.998781,77.8491146 487.108156,75.4064063 L487.108156,75.4064063 L486.752688,75.2013281 C485.093833,75.8028906 483.293703,76.199375 481.352297,76.3907813 L481.352297,76.3907813 L481.352297,77.4025 C482.354901,77.4298438 482.915448,77.4571875 483.033938,77.4845313 C483.152427,77.511875 483.243573,77.5711198 483.307375,77.6622656 C483.389406,77.7807552 483.439536,78.0769792 483.457766,78.5509375 C483.503339,79.5353125 483.526125,80.3738542 483.526125,81.0665625 C483.526125,81.6590104 483.512453,82.2195573 483.485109,82.7482031 C482.783286,82.4747656 482.28882,82.3061458 482.001711,82.2423438 C481.714602,82.1785417 481.352297,82.1466406 480.914797,82.1466406 C480.212974,82.1466406 479.641034,82.2309505 479.198977,82.3995703 C478.756919,82.5681901 478.027753,83.0079688 477.011477,83.7189063 C475.995201,84.4298438 475.382245,84.9129167 475.172609,85.168125 C474.880943,85.5144792 474.625734,86.0066667 474.406984,86.6446875 C474.115318,87.4832292 473.969484,88.4357031 473.969484,89.5021094 C473.969484,91.4252865 474.466229,92.9405859 475.459719,94.0480078 C476.453208,95.1554297 477.706464,95.7091406 479.219484,95.7091406 Z M480.750734,93.0704688 C479.857505,93.0704688 479.146568,92.7377865 478.617922,92.0724219 C477.906984,91.1700781 477.551516,89.8894792 477.551516,88.230625 C477.551516,87.3373958 477.649497,86.5489844 477.845461,85.8653906 C478.041424,85.1817969 478.337648,84.6873307 478.734133,84.3819922 C479.130617,84.0766536 479.643313,83.9239844 480.272219,83.9239844 C480.992271,83.9239844 481.653078,84.0971615 482.254641,84.4435156 C482.573651,84.6258073 482.983807,85.0177344 483.485109,85.6192969 L483.485109,85.6192969 L483.567141,88.1349219 C483.567141,89.948724 483.519289,91.0333594 483.423586,91.3888281 C483.327883,91.7442969 483.027102,92.1134375 482.521242,92.49625 C482.015383,92.8790625 481.425214,93.0704688 480.750734,93.0704688 Z M497.334719,95.8185156 C498.091229,95.8185156 498.765708,95.7410417 499.358156,95.5860938 C500.151125,95.3673438 500.921307,95.0301042 501.668703,94.574375 L501.668703,94.574375 L502.270266,93.2345313 L501.942141,92.8517188 C501.231203,93.2071875 500.656984,93.441888 500.219484,93.5558203 C499.781984,93.6697526 499.303469,93.7267188 498.783938,93.7267188 C497.580813,93.7267188 496.569094,93.3097266 495.748781,92.4757422 C494.928469,91.6417578 494.481854,90.5047135 494.408938,89.0646094 L494.408938,89.0646094 L495.311281,89.0646094 C495.457115,89.0646094 495.589276,89.0600521 495.707766,89.0509375 C495.826255,89.0418229 496.446047,89.0327083 497.567141,89.0235938 C498.688234,89.0144792 499.590578,88.9825781 500.274172,88.9278906 C500.492922,88.918776 500.912193,88.854974 501.531984,88.7364844 C501.996828,88.6453385 502.343182,88.5633073 502.571047,88.4903906 C502.589276,88.2534115 502.598391,88.0073177 502.598391,87.7521094 C502.598391,86.621901 502.436607,85.6603125 502.113039,84.8673438 C501.789471,84.074375 501.23576,83.4226823 500.451906,82.9122656 C499.668052,82.401849 498.665448,82.1466406 497.444094,82.1466406 C496.578208,82.1466406 495.826255,82.2879167 495.188234,82.5704688 C494.84188,82.7254167 494.285891,83.0535417 493.520266,83.5548438 C492.754641,84.0561458 492.280682,84.3979427 492.098391,84.5802344 C491.806724,84.871901 491.551516,85.3458594 491.332766,86.0021094 C491.013755,86.9409115 490.85425,88.0073177 490.85425,89.2013281 C490.85425,90.0216406 490.936281,90.778151 491.100344,91.4708594 C491.264406,92.1635677 491.531008,92.7742448 491.900148,93.3028906 C492.269289,93.8315365 492.697674,94.278151 493.185305,94.6427344 C493.672935,95.0073177 494.260826,95.2944271 494.948977,95.5040625 C495.637128,95.7136979 496.432375,95.8185156 497.334719,95.8185156 Z M497.006594,87.6974219 C495.748781,87.6974219 494.850995,87.6564063 494.313234,87.574375 C494.276776,86.1798438 494.495526,85.1772396 494.969484,84.5665625 C495.434328,83.965 496.022219,83.6642188 496.733156,83.6642188 C497.425865,83.6642188 497.990969,83.9513281 498.428469,84.5255469 C498.856854,85.1088802 499.052818,86.1251563 499.016359,87.574375 C498.478599,87.6564063 497.808677,87.6974219 497.006594,87.6974219 Z M509.037844,95.8185156 C510.942792,95.8185156 512.421633,95.3536719 513.474367,94.4239844 C514.527102,93.4942969 515.053469,92.3504167 515.053469,90.9923438 C515.053469,90.4728125 514.973716,89.9965755 514.814211,89.5636328 C514.654706,89.1306901 514.424563,88.7683854 514.123781,88.4767188 C513.823,88.1850521 513.421958,87.9435156 512.920656,87.7521094 C512.574302,87.6245052 511.897544,87.4672786 510.890383,87.2804297 C509.883221,87.0935807 509.192792,86.9409115 508.819094,86.8224219 C508.445396,86.7039323 508.162844,86.5261979 507.971438,86.2892188 C507.780031,86.0522396 507.684328,85.6876563 507.684328,85.1954688 C507.684328,84.7123958 507.896242,84.2976823 508.32007,83.9513281 C508.743898,83.604974 509.343182,83.4317969 510.117922,83.4317969 C510.673911,83.4317969 511.159263,83.5229427 511.573977,83.7052344 C511.98869,83.887526 512.337323,84.1609635 512.619875,84.5255469 C512.701906,84.9083594 512.756594,85.3048438 512.783938,85.715 C512.802167,85.9519792 512.815839,86.120599 512.824953,86.2208594 L512.824953,86.2208594 L513.877688,86.2345313 C513.932375,85.0131771 513.973391,84.2384375 514.000734,83.9103125 C514.028078,83.5821875 514.069094,83.2586198 514.123781,82.9396094 L514.123781,82.9396094 L514.082766,82.8028906 C513.581464,82.5476823 513.020917,82.356276 512.401125,82.2286719 C511.781333,82.1010677 511.102297,82.0372656 510.364016,82.0372656 C508.586672,82.0372656 507.224042,82.4542578 506.276125,83.2882422 C505.328208,84.1222266 504.85425,85.168125 504.85425,86.4259375 C504.85425,87.1277604 505.000083,87.7407161 505.29175,88.2648047 C505.583417,88.7888932 505.989016,89.183099 506.508547,89.4474219 C507.028078,89.7117448 507.791424,89.9532813 508.798586,90.1720313 C509.805747,90.3907813 510.487063,90.5639583 510.842531,90.6915625 C511.29826,90.9011979 511.60132,91.1313411 511.751711,91.3819922 C511.902102,91.6326432 511.977297,91.949375 511.977297,92.3321875 C511.977297,92.9155208 511.749432,93.4122656 511.293703,93.8224219 C510.837974,94.2325781 510.181724,94.4376563 509.324953,94.4376563 C508.686932,94.4376563 508.121828,94.316888 507.629641,94.0753516 C507.137453,93.8338151 506.686281,93.4623958 506.276125,92.9610938 C506.230552,92.6967708 506.184979,92.0541927 506.139406,91.0333594 L506.139406,91.0333594 L505.045656,91.0333594 L504.963625,93.3302344 C504.945396,93.621901 504.899823,94.1186458 504.826906,94.8204688 L504.826906,94.8204688 L504.977297,95.0255469 C505.843182,95.3263281 506.576906,95.5336849 507.178469,95.6476172 C507.780031,95.7615495 508.399823,95.8185156 509.037844,95.8185156 Z M520.699953,79.7403906 C521.283286,79.7403906 521.777753,79.5353125 522.183352,79.1251563 C522.588951,78.715 522.79175,78.2182552 522.79175,77.6349219 C522.79175,77.0607031 522.588951,76.5685156 522.183352,76.1583594 C521.777753,75.7482031 521.283286,75.543125 520.699953,75.543125 C520.11662,75.543125 519.622154,75.7482031 519.216555,76.1583594 C518.810956,76.5685156 518.608156,77.0607031 518.608156,77.6349219 C518.608156,78.2182552 518.813234,78.715 519.223391,79.1251563 C519.633547,79.5353125 520.125734,79.7403906 520.699953,79.7403906 Z M524.651125,95.34 L524.651125,94.2735938 C523.703208,94.2371354 523.106203,94.1596615 522.860109,94.0411719 C522.750734,93.9864844 522.677818,93.8771094 522.641359,93.7130469 C522.568443,93.4213802 522.531984,92.4825781 522.531984,90.8966406 L522.531984,90.8966406 L522.531984,86.2482031 C522.531984,84.9995052 522.586672,83.6642188 522.696047,82.2423438 L522.696047,82.2423438 L522.367922,82.0646094 C521.538495,82.401849 520.77287,82.6525 520.071047,82.8165625 C519.369224,82.980625 518.330161,83.1355729 516.953859,83.2814063 L516.953859,83.2814063 L516.953859,84.3204688 C518.011151,84.3295833 518.630943,84.3933854 518.813234,84.511875 C518.895266,84.5665625 518.95451,84.6850521 518.990969,84.8673438 C519.073,85.2592708 519.114016,86.8816667 519.114016,89.7345313 C519.114016,91.8126563 519.068443,93.1023698 518.977297,93.6036719 C518.940839,93.840651 518.849693,94.0024349 518.703859,94.0890234 C518.558026,94.175612 517.974693,94.2553646 516.953859,94.3282813 L516.953859,94.3282813 L516.953859,95.34 C517.956464,95.3035417 519.114016,95.2853125 520.426516,95.2853125 C521.948651,95.2853125 523.356854,95.3035417 524.651125,95.34 L524.651125,95.34 Z M532.539797,102.627109 C534.417401,102.627109 536.03524,102.257969 537.393313,101.519688 C538.468833,100.92724 539.275474,100.170729 539.813234,99.2501563 C540.350995,98.3295833 540.619875,97.2996354 540.619875,96.1603125 C540.619875,95.3946875 540.487714,94.7794531 540.223391,94.3146094 C539.959068,93.8497656 539.558026,93.5034115 539.020266,93.2755469 C538.482505,93.0476823 537.721438,92.93375 536.737063,92.93375 L536.737063,92.93375 L533.373781,93.0157813 C532.170656,93.0157813 531.418703,92.9838802 531.117922,92.9200781 C530.899172,92.8745052 530.728273,92.7788021 530.605227,92.6329688 C530.48218,92.4871354 530.420656,92.3321875 530.420656,92.168125 C530.420656,91.9767188 530.493573,91.769362 530.639406,91.5460547 C530.78524,91.3227474 530.999432,91.1290625 531.281984,90.965 C531.792401,91.0105729 532.188885,91.0333594 532.471438,91.0333594 C533.528729,91.0333594 534.529055,90.8328385 535.472414,90.4317969 C536.415773,90.0307552 537.147219,89.4565365 537.66675,88.7091406 C538.186281,87.9617448 538.446047,87.1004167 538.446047,86.1251563 C538.446047,85.6967708 538.386802,85.2547135 538.268313,84.7989844 L538.268313,84.7989844 L540.428469,84.7989844 L540.619875,83.1173438 C539.407635,83.1720313 538.664797,83.199375 538.391359,83.199375 C538.190839,83.199375 537.826255,83.1857031 537.297609,83.1583594 C536.805422,82.7755469 536.197023,82.4861589 535.472414,82.2901953 C534.747805,82.0942318 533.957115,81.99625 533.100344,81.99625 C531.824302,81.99625 530.710044,82.2195573 529.75757,82.6661719 C528.805096,83.1127865 528.105552,83.7120703 527.658938,84.4640234 C527.212323,85.2159766 526.989016,86.0248958 526.989016,86.8907813 C526.989016,87.5288021 527.109784,88.1121354 527.35132,88.6407813 C527.592857,89.1694271 527.916424,89.5955339 528.322023,89.9191016 C528.727622,90.2426693 529.267661,90.5275 529.942141,90.7735938 L529.942141,90.7735938 L528.04175,92.1544531 C527.914146,92.3914323 527.786542,92.7104427 527.658938,93.1114844 C527.567792,93.3940365 527.522219,93.6492448 527.522219,93.8771094 C527.522219,94.2963802 527.699953,94.6700781 528.055422,94.9982031 C528.447349,95.2989844 528.889406,95.4767188 529.381594,95.5314063 C529.281333,95.5769792 528.793703,95.8458594 527.918703,96.3380469 C527.462974,96.6023698 527.157635,96.8120052 527.002688,96.9669531 C526.84774,97.121901 526.711021,97.3543229 526.592531,97.6642188 C526.474042,97.9741146 526.414797,98.3204688 526.414797,98.7032813 C526.414797,99.3686458 526.601646,99.9838802 526.975344,100.548984 C527.349042,101.114089 528.000734,101.601719 528.930422,102.011875 C529.860109,102.422031 531.063234,102.627109 532.539797,102.627109 Z M532.785891,89.761875 C532.084068,89.761875 531.514406,89.4929948 531.076906,88.9552344 C530.639406,88.417474 530.420656,87.5196875 530.420656,86.261875 C530.420656,85.2319271 530.623456,84.4845313 531.029055,84.0196875 C531.434654,83.5548438 531.983807,83.3224219 532.676516,83.3224219 C533.405682,83.3224219 533.975344,83.5776302 534.3855,84.0880469 C534.795656,84.5984635 535.000734,85.4916927 535.000734,86.7677344 C535.000734,87.6791927 534.854901,88.3627865 534.563234,88.8185156 C534.153078,89.4474219 533.56063,89.761875 532.785891,89.761875 Z M533.100344,101.218906 C531.742271,101.218906 530.723716,100.940911 530.04468,100.384922 C529.365643,99.8289323 529.026125,99.136224 529.026125,98.3067969 C529.026125,97.8146094 529.151451,97.3702734 529.402102,96.9737891 C529.652753,96.5773047 530.151776,96.1420833 530.899172,95.668125 C531.409589,95.6590104 531.824302,95.6544531 532.143313,95.6544531 L532.734657,95.6549262 C534.147259,95.6572916 535.066681,95.6685271 535.492922,95.6886328 C535.975995,95.7114193 536.35425,95.7980078 536.627688,95.9483984 C536.901125,96.0987891 537.113039,96.3038672 537.26343,96.5636328 C537.41382,96.8233984 537.489016,97.199375 537.489016,97.6915625 C537.489016,98.7123958 537.113039,99.5554948 536.361086,100.220859 C535.609133,100.886224 534.522219,101.218906 533.100344,101.218906 Z M557.436281,95.34 L557.436281,94.2872656 C557.080813,94.2508073 556.825604,94.2280208 556.670656,94.2189063 C556.251385,94.1915625 555.980227,94.1254818 555.85718,94.0206641 C555.734133,93.9158464 555.652102,93.6811458 555.611086,93.3165625 C555.57007,92.9519792 555.545005,91.9995052 555.535891,90.4591406 L555.535891,90.4591406 L555.522219,89.0509375 C555.522219,88.8959896 555.526776,88.7638281 555.535891,88.6544531 C555.55412,88.371901 555.563234,87.7110938 555.563234,86.6720313 C555.563234,85.7514583 555.494875,85.0747005 555.358156,84.6417578 C555.221438,84.2088151 554.984458,83.7941016 554.647219,83.3976172 C554.309979,83.0011328 553.897544,82.6935156 553.409914,82.4747656 C552.922284,82.2560156 552.190839,82.1466406 551.215578,82.1466406 C550.850995,82.1466406 550.566164,82.1671484 550.361086,82.2081641 C550.156008,82.2491797 549.903078,82.3289323 549.602297,82.4474219 L549.602297,82.4474219 L547.114016,84.4435156 L547.114016,82.2423438 L546.744875,82.0782813 C546.088625,82.3790625 545.500734,82.5978125 544.981203,82.7345313 C544.461672,82.87125 543.372479,83.0808854 541.713625,83.3634375 L541.713625,83.3634375 L541.713625,84.4161719 C542.570396,84.4435156 543.08537,84.4890885 543.258547,84.5528906 C543.367922,84.589349 543.447674,84.6463151 543.497805,84.7237891 C543.547935,84.801263 543.586672,85.1316667 543.614016,85.715 C543.668703,86.8725521 543.696047,87.8569271 543.696047,88.668125 L543.696047,88.668125 L543.696047,90.4591406 C543.696047,91.0333594 543.69149,91.4480729 543.682375,91.7032813 L543.682375,91.7032813 L543.627688,92.9200781 C543.618573,93.403151 543.568443,93.731276 543.477297,93.9044531 C543.413495,94.0138281 543.317792,94.0913021 543.190188,94.136875 C542.91675,94.2371354 542.424563,94.2872656 541.713625,94.2872656 L541.713625,94.2872656 L541.713625,95.34 C542.634198,95.3035417 543.928469,95.2853125 545.596438,95.2853125 L546.068202,95.2859877 C547.304184,95.2895885 548.363726,95.3075926 549.246828,95.34 L549.246828,95.34 L549.246828,94.2872656 C548.590578,94.2325781 548.207766,94.1961198 548.098391,94.1778906 C547.77938,94.1140885 547.565188,94.0457292 547.455813,93.9728125 C547.382896,93.9272396 547.323651,93.8543229 547.278078,93.7540625 C547.214276,93.6173438 547.177818,93.3347917 547.168703,92.9064063 C547.132245,91.9402604 547.114016,91.1245052 547.114016,90.4591406 L547.114016,88.1622656 C547.104901,86.886224 547.132245,86.1570573 547.196047,85.9747656 C547.305422,85.6648698 547.569745,85.3572526 547.989016,85.0519141 C548.408286,84.7465755 548.936932,84.5939063 549.574953,84.5939063 C550.212974,84.5939063 550.723391,84.7465755 551.106203,85.0519141 C551.489016,85.3572526 551.741945,85.7605729 551.864992,86.261875 C551.988039,86.7631771 552.049563,87.8113542 552.049563,89.4064063 L552.049563,89.4064063 L552.049563,90.4864844 L551.981203,92.7286719 C551.880943,94.1140885 551.821698,94.9025 551.803469,95.0939063 L551.803469,95.0939063 L552.049563,95.34 C552.714927,95.2761979 553.498781,95.2442969 554.401125,95.2442969 C555.184979,95.2442969 556.196698,95.2761979 557.436281,95.34 L557.436281,95.34 Z" id="lockup-subtitle" fill="#E8BE4F"></path>
            <path d="M14.036,42.92 C17.864,42.92 20.8993333,42.0306667 23.142,40.252 C25.3846667,38.4733333 26.506,36.076 26.506,33.06 C26.506,31.784 26.2933333,30.682 25.868,29.754 C25.4426667,28.826 24.766,28.0043333 23.838,27.289 C22.91,26.5736667 21.7016667,25.926 20.213,25.346 C18.7243333,24.766 16.8973333,24.186 14.732,23.606 C12.6826667,23.1033333 11.281,22.6393333 10.527,22.214 C9.773,21.7886667 9.396,21.1506667 9.396,20.3 C9.396,19.4106667 9.744,18.763 10.44,18.357 C11.136,17.951 11.9866667,17.748 12.992,17.748 C14.268,17.748 15.5826667,18.0186667 16.936,18.56 C18.2893333,19.1013333 19.836,19.9713333 21.576,21.17 L21.576,21.17 L25.172,15.602 C23.316,13.978 21.3923333,12.8566667 19.401,12.238 C17.4096667,11.6193333 15.2733333,11.31 12.992,11.31 C11.252,11.31 9.63766667,11.5613333 8.149,12.064 C6.66033333,12.5666667 5.37466667,13.2626667 4.292,14.152 C3.20933333,15.0413333 2.35866667,16.124 1.74,17.4 C1.12133333,18.676 0.812,20.0873333 0.812,21.634 C0.812,22.794 1.00533333,23.7993333 1.392,24.65 C1.77866667,25.5006667 2.41666667,26.2546667 3.306,26.912 C4.19533333,27.5693333 5.34566667,28.1686667 6.757,28.71 C8.16833333,29.2513333 9.89866667,29.812 11.948,30.392 C14.036,30.9333333 15.4956667,31.4456667 16.327,31.929 C17.1583333,32.4123333 17.574,33.06 17.574,33.872 C17.574,34.684 17.2453333,35.3026667 16.588,35.728 C15.9306667,36.1533333 15.0026667,36.366 13.804,36.366 C12.18,36.366 10.4883333,36.018 8.729,35.322 C6.96966667,34.626 5.162,33.64 3.306,32.364 L3.306,32.364 L0,38.048 C1.74,39.6333333 3.86666667,40.8416667 6.38,41.673 C8.89333333,42.5043333 11.4453333,42.92 14.036,42.92 Z M41.354,42.92 C43.0166667,42.92 44.6696667,42.688 46.313,42.224 C47.9563333,41.76 49.416,41.2573333 50.692,40.716 L50.692,40.716 L48.894,33.35 C48.3526667,33.6206667 47.7146667,33.872 46.98,34.104 C46.2453333,34.336 45.53,34.452 44.834,34.452 C44.0606667,34.452 43.4226667,34.2296667 42.92,33.785 C42.4173333,33.3403333 42.166,32.6153333 42.166,31.61 L42.166,31.61 L42.166,18.908 L48.372,18.908 L48.372,11.89 L42.166,11.89 L42.166,2.204 L32.886,2.204 L32.886,11.89 L29,11.89 L29,18.908 L32.886,18.908 L32.886,34.8 C32.886,36.2693333 33.1083333,37.526 33.553,38.57 C33.9976667,39.614 34.6066667,40.455 35.38,41.093 C36.1533333,41.731 37.0523333,42.195 38.077,42.485 C39.1016667,42.775 40.194,42.92 41.354,42.92 Z M68.092,42.92 C71.6106667,42.92 74.6266667,42.166 77.14,40.658 C79.6533333,39.15 81.5093333,37.1973333 82.708,34.8 L82.708,34.8 L74.82,32.596 C74.3946667,33.7173333 73.5536667,34.6066667 72.297,35.264 C71.0403333,35.9213333 69.7353333,36.25 68.382,36.25 C66.6806667,36.25 65.163,35.7183333 63.829,34.655 C62.495,33.5916667 61.7506667,32.0353333 61.596,29.986 L61.596,29.986 L84.1,29.986 C84.1773333,29.5993333 84.2353333,29.145 84.274,28.623 C84.3126667,28.101 84.332,27.5693333 84.332,27.028 C84.332,24.94 83.9743333,22.9486667 83.259,21.054 C82.5436667,19.1593333 81.49,17.487 80.098,16.037 C78.706,14.587 77.0046667,13.4366667 74.994,12.586 C72.9833333,11.7353333 70.6826667,11.31 68.092,11.31 C65.5013333,11.31 63.191,11.7353333 61.161,12.586 C59.131,13.4366667 57.42,14.5966667 56.028,16.066 C54.636,17.5353333 53.5726667,19.2463333 52.838,21.199 C52.1033333,23.1516667 51.736,25.23 51.736,27.434 C51.736,29.4833333 52.1033333,31.4456667 52.838,33.321 C53.5726667,35.1963333 54.6456667,36.8493333 56.057,38.28 C57.4683333,39.7106667 59.189,40.8416667 61.219,41.673 C63.249,42.5043333 65.54,42.92 68.092,42.92 Z M74.53,24.244 L61.422,24.244 C61.6153333,22.3493333 62.3016667,20.8316667 63.481,19.691 C64.6603333,18.5503333 66.1586667,17.98 67.976,17.98 C69.7546667,17.98 71.2433333,18.5406667 72.442,19.662 C73.6406667,20.7833333 74.3366667,22.3106667 74.53,24.244 L74.53,24.244 Z M105.734,42.34 L116.464,11.89 L107.822,11.89 L101.094,34.916 L94.424,11.89 L84.854,11.89 L95.642,42.34 L105.734,42.34 Z M133.516,42.92 C137.034667,42.92 140.050667,42.166 142.564,40.658 C145.077333,39.15 146.933333,37.1973333 148.132,34.8 L148.132,34.8 L140.244,32.596 C139.818667,33.7173333 138.977667,34.6066667 137.721,35.264 C136.464333,35.9213333 135.159333,36.25 133.806,36.25 C132.104667,36.25 130.587,35.7183333 129.253,34.655 C127.919,33.5916667 127.174667,32.0353333 127.02,29.986 L127.02,29.986 L149.524,29.986 C149.601333,29.5993333 149.659333,29.145 149.698,28.623 C149.736667,28.101 149.756,27.5693333 149.756,27.028 C149.756,24.94 149.398333,22.9486667 148.683,21.054 C147.967667,19.1593333 146.914,17.487 145.522,16.037 C144.13,14.587 142.428667,13.4366667 140.418,12.586 C138.407333,11.7353333 136.106667,11.31 133.516,11.31 C130.925333,11.31 128.615,11.7353333 126.585,12.586 C124.555,13.4366667 122.844,14.5966667 121.452,16.066 C120.06,17.5353333 118.996667,19.2463333 118.262,21.199 C117.527333,23.1516667 117.16,25.23 117.16,27.434 C117.16,29.4833333 117.527333,31.4456667 118.262,33.321 C118.996667,35.1963333 120.069667,36.8493333 121.481,38.28 C122.892333,39.7106667 124.613,40.8416667 126.643,41.673 C128.673,42.5043333 130.964,42.92 133.516,42.92 Z M139.954,24.244 L126.846,24.244 C127.039333,22.3493333 127.725667,20.8316667 128.905,19.691 C130.084333,18.5503333 131.582667,17.98 133.4,17.98 C135.178667,17.98 136.667333,18.5406667 137.866,19.662 C139.064667,20.7833333 139.760667,22.3106667 139.954,24.244 L139.954,24.244 Z M176.784,42.34 L176.784,24.07 C177.596,22.678 178.910667,21.634 180.728,20.938 C182.545333,20.242 184.575333,19.8746667 186.818,19.836 L186.818,19.836 L186.818,11.484 C186.624667,11.4453333 186.431333,11.426 186.238,11.426 L186.238,11.426 L185.31,11.426 C183.454,11.4646667 181.704333,12.064 180.061,13.224 C178.417667,14.384 177.074,15.9886667 176.03,18.038 L176.03,18.038 L176.03,11.89 L167.504,11.89 L167.504,42.34 L176.784,42.34 Z M203.696,42.92 C206.286667,42.92 208.597,42.4946667 210.627,41.644 C212.657,40.7933333 214.368,39.643 215.76,38.193 C217.152,36.743 218.205667,35.061 218.921,33.147 C219.636333,31.233 219.994,29.232 219.994,27.144 C219.994,25.056 219.626667,23.055 218.892,21.141 C218.157333,19.227 217.094,17.545 215.702,16.095 C214.31,14.645 212.608667,13.485 210.598,12.615 C208.587333,11.745 206.286667,11.31 203.696,11.31 C201.105333,11.31 198.795,11.745 196.765,12.615 C194.735,13.485 193.024,14.645 191.632,16.095 C190.24,17.545 189.186333,19.227 188.471,21.141 C187.755667,23.055 187.398,25.056 187.398,27.144 C187.398,29.232 187.755667,31.233 188.471,33.147 C189.186333,35.061 190.24,36.743 191.632,38.193 C193.024,39.643 194.735,40.7933333 196.765,41.644 C198.795,42.4946667 201.105333,42.92 203.696,42.92 Z M203.696,35.09 C201.724,35.09 200.1,34.365 198.824,32.915 C197.548,31.465 196.91,29.5413333 196.91,27.144 C196.91,25.984 197.084,24.911 197.432,23.925 C197.78,22.939 198.253667,22.098 198.853,21.402 C199.452333,20.706 200.167667,20.1646667 200.999,19.778 C201.830333,19.3913333 202.729333,19.198 203.696,19.198 C205.629333,19.198 207.234,19.923 208.51,21.373 C209.786,22.823 210.424,24.7466667 210.424,27.144 C210.424,28.304 210.25,29.377 209.902,30.363 C209.554,31.349 209.080333,32.19 208.481,32.886 C207.881667,33.582 207.176,34.1233333 206.364,34.51 C205.552,34.8966667 204.662667,35.09 203.696,35.09 Z M233.856,42.34 L233.856,33.466 L237.104,30.102 L245.05,42.34 L254.91,42.34 L243.02,24.998 L253.982,11.89 L244.122,11.89 L233.856,24.534 L233.856,0 L224.576,0 L224.576,42.34 L233.856,42.34 Z M266.858,8.41 L266.858,0 L257.578,0 L257.578,8.41 L266.858,8.41 Z M266.858,42.34 L266.858,11.89 L257.578,11.89 L257.578,42.34 L266.858,42.34 Z M283.62,42.92 C285.282667,42.92 286.935667,42.688 288.579,42.224 C290.222333,41.76 291.682,41.2573333 292.958,40.716 L292.958,40.716 L291.16,33.35 C290.618667,33.6206667 289.980667,33.872 289.246,34.104 C288.511333,34.336 287.796,34.452 287.1,34.452 C286.326667,34.452 285.688667,34.2296667 285.186,33.785 C284.683333,33.3403333 284.432,32.6153333 284.432,31.61 L284.432,31.61 L284.432,18.908 L290.638,18.908 L290.638,11.89 L284.432,11.89 L284.432,2.204 L275.152,2.204 L275.152,11.89 L271.266,11.89 L271.266,18.908 L275.152,18.908 L275.152,34.8 C275.152,36.2693333 275.374333,37.526 275.819,38.57 C276.263667,39.614 276.872667,40.455 277.646,41.093 C278.419333,41.731 279.318333,42.195 280.343,42.485 C281.367667,42.775 282.46,42.92 283.62,42.92 Z M305.834,42.34 L305.834,33.466 L309.082,30.102 L317.028,42.34 L326.888,42.34 L314.998,24.998 L325.96,11.89 L316.1,11.89 L305.834,24.534 L305.834,0 L296.554,0 L296.554,42.34 L305.834,42.34 Z M337.792,42.92 C339.88,42.92 341.861667,42.456 343.737,41.528 C345.612333,40.6 347.226667,39.266 348.58,37.526 L348.58,37.526 L348.754,38.918 C348.986,40.1553333 349.546667,41.1123333 350.436,41.789 C351.325333,42.4656667 352.64,42.804 354.38,42.804 C354.921333,42.804 355.520667,42.775 356.178,42.717 C356.835333,42.659 357.57,42.5333333 358.382,42.34 L358.382,42.34 L358.382,34.51 C357.647333,34.4326667 357.135,34.2103333 356.845,33.843 C356.555,33.4756667 356.41,32.828 356.41,31.9 L356.41,31.9 L356.41,24.07 C356.41,19.894 355.153333,16.7233333 352.64,14.558 C350.126667,12.3926667 346.569333,11.31 341.968,11.31 C339.532,11.31 337.231333,11.6386667 335.066,12.296 C332.900667,12.9533333 330.812667,13.9393333 328.802,15.254 L328.802,15.254 L331.528,21.054 C333.190667,19.9326667 334.776,19.0916667 336.284,18.531 C337.792,17.9703333 339.377333,17.69 341.04,17.69 C345.1,17.69 347.13,19.4493333 347.13,22.968 L347.13,22.968 L347.13,24.36 C346.240667,23.9346667 345.196667,23.6156667 343.998,23.403 C342.799333,23.1903333 341.562,23.084 340.286,23.084 C338.352667,23.084 336.593333,23.3353333 335.008,23.838 C333.422667,24.3406667 332.05,25.0366667 330.89,25.926 C329.73,26.8153333 328.831,27.8786667 328.193,29.116 C327.555,30.3533333 327.236,31.726 327.236,33.234 C327.236,34.626 327.506667,35.9116667 328.048,37.091 C328.589333,38.2703333 329.324,39.295 330.252,40.165 C331.18,41.035 332.291667,41.7116667 333.587,42.195 C334.882333,42.6783333 336.284,42.92 337.792,42.92 Z M340.518,36.25 C339.203333,36.25 338.120667,35.8923333 337.27,35.177 C336.419333,34.4616667 335.994,33.5433333 335.994,32.422 C335.994,31.1846667 336.545,30.1793333 337.647,29.406 C338.749,28.6326667 340.150667,28.246 341.852,28.246 C342.664,28.246 343.543667,28.333 344.491,28.507 C345.438333,28.681 346.318,28.9226667 347.13,29.232 L347.13,29.232 L347.13,32.132 C347.13,32.9053333 346.685333,33.64 345.796,34.336 C345.177333,34.916 344.394333,35.38 343.447,35.728 C342.499667,36.076 341.523333,36.25 340.518,36.25 Z" id="lockup-name" fill="#AFAFAF"></path>
        </g>
    </g>
</svg>