<?xml version="1.0" encoding="UTF-8"?>
<svg width="192px" height="61px" viewBox="0 0 192 61" version="1.1" xmlns="http://www.w3.org/2000/svg" xmlns:xlink="http://www.w3.org/1999/xlink">
    <!-- Generator: Sketch 61 (89581) - https://sketch.com -->
    <title>lockup-subtitle</title>
    <desc>Created with Sketch.</desc>
    <g id="Home-2.0" stroke="none" stroke-width="1" fill="none" fill-rule="evenodd">
        <g id="home-2.0-dark" transform="translate(-807.000000, -354.000000)" fill="#E8BE4F" fill-rule="nonzero">
            <g id="Group-14">
                <g id="Group-4" transform="translate(429.052000, 272.660000)">
                    <path d="M387.313234,102.34 L387.313234,101.287266 C386.128339,101.19612 385.508547,101.14599 385.453859,101.136875 C385.235109,101.100417 385.077883,101.041172 384.98218,100.959141 C384.886477,100.877109 384.815839,100.772292 384.770266,100.644688 C384.715578,100.462396 384.676841,99.9291927 384.654055,99.0450781 C384.631268,98.1609635 384.619875,97.231276 384.619875,96.2560156 L384.619875,96.2560156 L384.619875,91.8946875 C385.412844,91.8673438 385.891359,91.8536719 386.055422,91.8536719 C386.110109,91.8536719 386.337974,91.8627865 386.739016,91.8810156 L386.739016,91.8810156 L388.119875,91.9083594 L388.338625,90.6915625 C388.365969,90.5275 388.402427,90.3679948 388.448,90.2130469 L388.448,90.2130469 L388.270266,90.0763281 C387.696047,90.121901 387.01701,90.1538021 386.233156,90.1720313 L386.233156,90.1720313 L384.619875,90.1857031 L384.619875,88.2853125 C384.619875,86.8269792 384.674563,85.9155208 384.783938,85.5509375 C384.856854,85.3048438 385.002688,85.1088802 385.221438,84.9630469 C385.531333,84.762526 385.950604,84.6622656 386.47925,84.6622656 C386.843833,84.6622656 387.144615,84.7101172 387.381594,84.8058203 C387.618573,84.9015234 387.873781,85.0769792 388.147219,85.3321875 L388.147219,85.3321875 L388.694094,85.0860938 C388.675865,84.2475521 388.739667,83.3360938 388.8855,82.3517188 C388.375083,82.1876563 387.896568,82.105625 387.449953,82.105625 C387.012453,82.105625 386.620526,82.1717057 386.274172,82.3038672 C385.927818,82.4360286 385.622479,82.6160417 385.358156,82.8439063 L385.358156,82.8439063 L383.703859,84.3204688 C382.673911,85.2136979 382.008547,85.8608333 381.707766,86.261875 C381.525474,86.5079688 381.393313,86.7631771 381.311281,87.0275 C381.22925,87.2918229 381.167727,87.7407161 381.126711,88.3741797 C381.085695,89.0076432 381.065188,89.5385677 381.065188,89.9669531 C381.065188,90.1036719 381.005943,90.2130469 380.887453,90.2950781 C380.84188,90.3315365 380.212974,90.6642188 379.000734,91.293125 L379.000734,91.293125 L379.000734,91.9630469 L380.860109,91.8810156 L381.242922,91.8946875 L381.242922,95.99625 C381.224693,98.4936458 381.183677,99.9793229 381.119875,100.453281 C381.092531,100.717604 381.001385,100.899896 380.846438,101.000156 C380.645917,101.12776 380.007896,101.228021 378.932375,101.300938 L378.932375,101.300938 L378.932375,102.34 C380.837323,102.294427 382.076906,102.271641 382.651125,102.271641 L382.651125,102.271641 L387.313234,102.34 Z M395.489016,102.709141 C396.127036,102.709141 396.7605,102.595208 397.389406,102.367344 L397.389406,102.367344 L398.934328,100.904453 C399.198651,100.667474 399.508547,100.407708 399.864016,100.125156 C399.864016,100.653802 399.859458,101.004714 399.850344,101.177891 L399.850344,101.177891 L399.768313,102.230625 L399.864016,102.34 L402.448,102.271641 L405.264406,102.34 L405.264406,101.24625 C404.31649,101.200677 403.755943,101.132318 403.582766,101.041172 C403.482505,100.97737 403.414146,100.863438 403.377688,100.699375 C403.295656,100.307448 403.254641,99.2775 403.254641,97.6095313 L403.254641,97.6095313 L403.254944,94.7671447 C403.258579,94.4899199 403.294937,93.5050905 403.364016,91.8126563 L403.364016,91.8126563 L403.514406,89.2970313 L403.254641,89.1466406 C402.033286,89.5385677 401.167401,89.7892188 400.656984,89.8985938 C400.146568,90.0079688 399.184979,90.1538021 397.772219,90.3360938 L397.772219,90.3360938 L397.772219,91.3751563 C398.747479,91.4298438 399.303469,91.479974 399.440188,91.5255469 C399.576906,91.5711198 399.668052,91.6349219 399.713625,91.7169531 C399.795656,91.8445573 399.836672,92.2228125 399.836672,92.8517188 L399.836672,92.8517188 L399.864016,94.793125 L399.864016,97.1310156 C399.864016,97.8784115 399.809328,98.370599 399.699953,98.6075781 C399.526776,98.9721615 399.21688,99.3253516 398.770266,99.6671484 C398.323651,100.008945 397.772219,100.179844 397.115969,100.179844 C396.54175,100.179844 396.081464,100.03401 395.735109,99.7423438 C395.388755,99.4506771 395.170005,99.0177344 395.078859,98.4435156 C395.015057,98.0060156 394.983156,97.1355729 394.983156,95.8321875 L394.983156,94.3009375 C394.983156,92.7696875 395.046958,91.1017188 395.174563,89.2970313 L395.174563,89.2970313 L394.983156,89.1466406 C393.743573,89.5659115 392.727297,89.8575781 391.934328,90.0216406 C391.141359,90.1857031 390.352948,90.2905208 389.569094,90.3360938 L389.569094,90.3360938 L389.569094,91.3751563 C390.453208,91.4116146 390.97274,91.4617448 391.127688,91.5255469 C391.282635,91.589349 391.394289,91.6850521 391.462648,91.8126563 C391.531008,91.9402604 391.565188,92.2683854 391.565188,92.7970313 L391.565188,92.7970313 L391.592531,95.6817969 C391.592531,96.4200781 391.587974,97.0216406 391.578859,97.4864844 C391.551516,98.3614844 391.537844,98.8673438 391.537844,99.0040625 C391.537844,100.125156 391.888755,101.022943 392.590578,101.697422 C393.292401,102.371901 394.258547,102.709141 395.489016,102.709141 Z M414.451906,102.34 L414.451906,101.24625 C413.60425,101.200677 413.139406,101.168776 413.057375,101.150547 C412.856854,101.114089 412.715578,101.063958 412.633547,101.000156 C412.569745,100.954583 412.524172,100.899896 412.496828,100.836094 C412.451255,100.744948 412.419354,100.528477 412.401125,100.18668 C412.382896,99.8448828 412.355552,98.8582292 412.319094,97.2267188 C412.300865,96.5704688 412.29175,95.5815365 412.29175,94.2599219 L412.29175,90.7599219 C412.300865,88.5086198 412.328208,86.6082292 412.373781,85.05875 L412.373781,85.05875 L412.483156,82.2970313 L412.196047,82.1329688 C411.056724,82.4884375 410.149823,82.7368099 409.475344,82.8780859 C408.800865,83.019362 407.898521,83.1492448 406.768313,83.2677344 L406.768313,83.2677344 L406.768313,84.2794531 C407.451906,84.3067969 407.862063,84.3295833 407.998781,84.3478125 C408.23576,84.3842708 408.408938,84.4389583 408.518313,84.511875 C408.582115,84.5483333 408.632245,84.5984635 408.668703,84.6622656 C408.723391,84.7807552 408.768964,85.1590104 408.805422,85.7970313 C408.869224,86.9819271 408.901125,88.2898698 408.901125,89.7208594 L408.901125,89.7208594 L408.901125,94.2325781 C408.901125,95.3536719 408.887453,96.6388281 408.860109,98.0880469 C408.832766,99.5372656 408.787193,100.398594 408.723391,100.672031 C408.696047,100.817865 408.648195,100.924961 408.579836,100.99332 C408.511477,101.06168 408.408938,101.114089 408.272219,101.150547 C408.089927,101.19612 407.565839,101.232578 406.699953,101.259922 L406.699953,101.259922 L406.699953,102.34 C408.249432,102.267083 409.643964,102.230625 410.883547,102.230625 C412.12313,102.230625 413.312583,102.267083 414.451906,102.34 L414.451906,102.34 Z M423.776125,102.34 L423.776125,101.24625 C422.928469,101.200677 422.463625,101.168776 422.381594,101.150547 C422.181073,101.114089 422.039797,101.063958 421.957766,101.000156 C421.893964,100.954583 421.848391,100.899896 421.821047,100.836094 C421.775474,100.744948 421.743573,100.528477 421.725344,100.18668 C421.707115,99.8448828 421.679771,98.8582292 421.643313,97.2267188 C421.625083,96.5704688 421.615969,95.5815365 421.615969,94.2599219 L421.615969,94.2599219 L421.615969,90.7599219 C421.625083,88.5086198 421.652427,86.6082292 421.698,85.05875 L421.698,85.05875 L421.807375,82.2970313 L421.520266,82.1329688 C420.380943,82.4884375 419.474042,82.7368099 418.799563,82.8780859 C418.125083,83.019362 417.22274,83.1492448 416.092531,83.2677344 L416.092531,83.2677344 L416.092531,84.2794531 C416.776125,84.3067969 417.186281,84.3295833 417.323,84.3478125 C417.559979,84.3842708 417.733156,84.4389583 417.842531,84.511875 C417.906333,84.5483333 417.956464,84.5984635 417.992922,84.6622656 C418.047609,84.7807552 418.093182,85.1590104 418.129641,85.7970313 C418.193443,86.9819271 418.225344,88.2898698 418.225344,89.7208594 L418.225344,89.7208594 L418.225344,94.2325781 C418.225344,95.3536719 418.211672,96.6388281 418.184328,98.0880469 C418.156984,99.5372656 418.111411,100.398594 418.047609,100.672031 C418.020266,100.817865 417.972414,100.924961 417.904055,100.99332 C417.835695,101.06168 417.733156,101.114089 417.596438,101.150547 C417.414146,101.19612 416.890057,101.232578 416.024172,101.259922 L416.024172,101.259922 L416.024172,102.34 C417.573651,102.267083 418.968182,102.230625 420.207766,102.230625 C421.447349,102.230625 422.636802,102.267083 423.776125,102.34 L423.776125,102.34 Z M432.539797,96.9396094 C432.694745,96.183099 432.838299,95.6111589 432.970461,95.2237891 C433.102622,94.8364193 433.259849,94.4832292 433.442141,94.1642188 L433.442141,94.1642188 L433.182375,93.8907813 L425.977297,93.8907813 C425.877036,94.3647396 425.717531,94.9571875 425.498781,95.668125 C425.352948,96.1147396 425.207115,96.4702083 425.061281,96.7345313 L425.061281,96.7345313 L425.266359,96.9396094 L432.539797,96.9396094 Z M439.375734,102.818516 C441.280682,102.818516 442.759523,102.353672 443.812258,101.423984 C444.864992,100.494297 445.391359,99.3504167 445.391359,97.9923438 C445.391359,97.4728125 445.311607,96.9965755 445.152102,96.5636328 C444.992596,96.1306901 444.762453,95.7683854 444.461672,95.4767188 C444.160891,95.1850521 443.759849,94.9435156 443.258547,94.7521094 C442.912193,94.6245052 442.235435,94.4672786 441.228273,94.2804297 C440.221112,94.0935807 439.530682,93.9409115 439.156984,93.8224219 C438.783286,93.7039323 438.500734,93.5261979 438.309328,93.2892188 C438.117922,93.0522396 438.022219,92.6876563 438.022219,92.1954688 C438.022219,91.7123958 438.234133,91.2976823 438.657961,90.9513281 C439.081789,90.604974 439.681073,90.4317969 440.455813,90.4317969 C441.011802,90.4317969 441.497154,90.5229427 441.911867,90.7052344 C442.326581,90.887526 442.675214,91.1609635 442.957766,91.5255469 C443.039797,91.9083594 443.094484,92.3048438 443.121828,92.715 C443.140057,92.9519792 443.153729,93.120599 443.162844,93.2208594 L443.162844,93.2208594 L444.215578,93.2345313 C444.270266,92.0131771 444.311281,91.2384375 444.338625,90.9103125 C444.365969,90.5821875 444.406984,90.2586198 444.461672,89.9396094 L444.461672,89.9396094 L444.420656,89.8028906 C443.919354,89.5476823 443.358807,89.356276 442.739016,89.2286719 C442.119224,89.1010677 441.440188,89.0372656 440.701906,89.0372656 C438.924563,89.0372656 437.561932,89.4542578 436.614016,90.2882422 C435.666099,91.1222266 435.192141,92.168125 435.192141,93.4259375 C435.192141,94.1277604 435.337974,94.7407161 435.629641,95.2648047 C435.921307,95.7888932 436.326906,96.183099 436.846438,96.4474219 C437.365969,96.7117448 438.129315,96.9532813 439.136477,97.1720313 C440.143638,97.3907813 440.824953,97.5639583 441.180422,97.6915625 C441.636151,97.9011979 441.939211,98.1313411 442.089602,98.3819922 C442.239992,98.6326432 442.315188,98.949375 442.315188,99.3321875 C442.315188,99.9155208 442.087323,100.412266 441.631594,100.822422 C441.175865,101.232578 440.519615,101.437656 439.662844,101.437656 C439.024823,101.437656 438.459719,101.316888 437.967531,101.075352 C437.475344,100.833815 437.024172,100.462396 436.614016,99.9610938 C436.568443,99.6967708 436.52287,99.0541927 436.477297,98.0333594 L436.477297,98.0333594 L435.383547,98.0333594 L435.301516,100.330234 C435.283286,100.621901 435.237714,101.118646 435.164797,101.820469 L435.164797,101.820469 L435.315188,102.025547 C436.181073,102.326328 436.914797,102.533685 437.516359,102.647617 C438.117922,102.761549 438.737714,102.818516 439.375734,102.818516 Z M452.131594,102.627109 C452.42326,102.627109 452.708091,102.602044 452.986086,102.551914 C453.264081,102.501784 453.580813,102.399245 453.936281,102.244297 C454.237063,101.934401 454.587974,101.574375 454.989016,101.164219 L454.989016,101.164219 L455.481203,100.672031 L455.262453,100.111484 C454.970786,100.175286 454.731529,100.218581 454.54468,100.241367 C454.357831,100.264154 454.109458,100.27099 453.799563,100.261875 C453.289146,100.261875 452.899497,100.141107 452.630617,99.8995703 C452.361737,99.6580339 452.209068,99.3230729 452.172609,98.8946875 C452.145266,98.6394792 452.131594,97.8100521 452.131594,96.4064063 L452.131594,91.84 L453.457766,91.84 L454.797609,91.8673438 C454.888755,91.8673438 454.989016,91.8582292 455.098391,91.84 L455.098391,91.84 L455.330813,89.9942969 C454.711021,90.0854427 453.795005,90.1310156 452.582766,90.1310156 L452.582766,90.1310156 L452.131594,90.1310156 L452.254641,87.7384375 L452.350344,86.1661719 L452.487063,84.7442969 L452.131594,84.4708594 C451.019615,84.9903906 450.440839,85.2592708 450.395266,85.2775 C450.130943,85.3777604 449.556724,85.573724 448.672609,85.8653906 C448.745526,86.8315365 448.781984,87.6427344 448.781984,88.2989844 L448.781984,88.2989844 L448.781984,90.1310156 C448.599693,90.276849 448.408286,90.4135677 448.207766,90.5411719 L448.207766,90.5411719 L446.977297,91.3204688 L446.977297,91.9357031 C447.433026,91.9083594 447.911542,91.8946875 448.412844,91.8946875 L448.412844,91.8946875 L448.781984,91.8946875 L448.781984,95.2716406 L448.727297,99.7833594 C448.727297,100.594557 449.030357,101.271315 449.636477,101.813633 C450.242596,102.355951 451.074302,102.627109 452.131594,102.627109 Z M459.938234,102.695469 C460.311932,102.695469 460.703859,102.649896 461.114016,102.55875 C462.718182,101.328281 463.684328,100.608229 464.012453,100.398594 L464.012453,100.398594 L463.889406,102.189609 L464.012453,102.34 C464.732505,102.294427 465.475344,102.271641 466.240969,102.271641 C467.052167,102.271641 467.981854,102.294427 469.030031,102.34 L469.030031,102.34 L469.030031,101.314609 C468.255292,101.259922 467.795005,101.19612 467.649172,101.123203 C467.539797,101.068516 467.46688,100.959141 467.430422,100.795078 C467.339276,100.448724 467.293703,99.464349 467.293703,97.8419531 C467.293703,97.3224219 467.307375,96.6525 467.334719,95.8321875 C467.380292,94.6017188 467.403078,93.840651 467.403078,93.5489844 C467.403078,92.8653906 467.346112,92.3002865 467.23218,91.8536719 C467.118247,91.4070573 466.908612,90.9877865 466.603273,90.5958594 C466.297935,90.2039323 465.823977,89.8644141 465.181398,89.5773047 C464.53882,89.2901953 463.720786,89.1466406 462.727297,89.1466406 C462.11662,89.1466406 461.642661,89.1967708 461.305422,89.2970313 C461.059328,89.3699479 460.630943,89.575026 460.020266,89.9122656 C459.409589,90.2495052 458.76701,90.6459896 458.092531,91.1017188 L458.092531,91.1017188 L458.0105,92.8653906 L458.940188,93.0704688 L459.514406,91.6896094 C459.724042,91.5528906 459.906333,91.4617448 460.061281,91.4161719 C460.41675,91.3159115 460.790448,91.2657813 461.182375,91.2657813 C462.148521,91.2657813 462.868573,91.5483333 463.342531,92.1134375 C463.807375,92.6785417 464.030682,93.5034115 464.012453,94.5880469 C462.298911,94.8797135 460.722089,95.2807552 459.281984,95.7911719 C458.680422,96.0008073 458.236086,96.2172786 457.948977,96.4405859 C457.661867,96.6638932 457.392987,97.012526 457.142336,97.4864844 C456.891685,97.9604427 456.766359,98.5665625 456.766359,99.3048438 C456.766359,100.398594 457.046633,101.237135 457.60718,101.820469 C458.167727,102.403802 458.944745,102.695469 459.938234,102.695469 Z M461.797609,100.316563 C461.314536,100.316563 460.924888,100.157057 460.628664,99.8380469 C460.33244,99.5190365 460.184328,99.0678646 460.184328,98.4845313 C460.184328,97.965 460.307375,97.5343359 460.553469,97.1925391 C460.799563,96.8507422 461.243898,96.5636328 461.886477,96.3312109 C462.529055,96.0987891 463.237714,95.9005469 464.012453,95.7364844 L464.012453,95.7364844 L464.012453,99.05875 C463.775474,99.4233333 463.449628,99.7241146 463.034914,99.9610938 C462.620201,100.198073 462.207766,100.316563 461.797609,100.316563 Z M477.178469,102.818516 C477.862063,102.818516 478.447674,102.756992 478.935305,102.633945 C479.422935,102.510898 480.058677,102.253411 480.842531,101.861484 L480.842531,101.861484 L481.444094,100.535313 L481.184328,100.220859 C480.837974,100.403151 480.473391,100.542148 480.090578,100.637852 C479.707766,100.733555 479.302167,100.781406 478.873781,100.781406 C477.934979,100.781406 477.144289,100.569492 476.501711,100.145664 C475.859133,99.7218359 475.34188,99.0564714 474.949953,98.1495703 C474.558026,97.2426693 474.362063,96.215 474.362063,95.0665625 C474.362063,94.2097917 474.457766,93.480625 474.649172,92.8790625 C474.840578,92.2775 475.141359,91.8491146 475.551516,91.5939063 C475.961672,91.3386979 476.513104,91.2110938 477.205813,91.2110938 C477.789146,91.2110938 478.281333,91.3090755 478.682375,91.5050391 C479.083417,91.7010026 479.379641,91.9539323 479.571047,92.2638281 C479.653078,92.6557552 479.721438,93.2573177 479.776125,94.0685156 L479.776125,94.0685156 L480.842531,94.0685156 C480.906333,93.011224 480.951906,92.3823177 480.97925,92.1817969 L480.97925,92.1817969 L481.321047,89.9532813 L481.184328,89.7208594 C480.755943,89.5294531 480.28882,89.3858984 479.782961,89.2901953 C479.277102,89.1944922 478.732505,89.1466406 478.149172,89.1466406 C477.447349,89.1466406 476.877688,89.2286719 476.440188,89.3927344 C476.175865,89.4838802 475.688234,89.7573177 474.977297,90.2130469 L474.977297,90.2130469 L472.871828,91.5392188 C472.489016,91.8126563 472.183677,92.1043229 471.955813,92.4142188 C471.618573,92.8790625 471.358807,93.4168229 471.176516,94.0275 C470.994224,94.6381771 470.903078,95.4220313 470.903078,96.3790625 C470.903078,97.6551042 471.076255,98.6759375 471.422609,99.4415625 C471.905682,100.526198 472.612063,101.360182 473.54175,101.943516 C474.471438,102.526849 475.683677,102.818516 477.178469,102.818516 Z M498.91675,102.34 L498.91675,101.24625 C498.552167,101.218906 498.274172,101.150547 498.082766,101.041172 C497.745526,100.849766 497.039146,100.138828 495.963625,98.9083594 C494.049563,96.7390885 492.69149,95.1804948 491.889406,94.2325781 L491.889406,94.2325781 L493.051516,93.2208594 C493.142661,93.1388281 493.270266,93.0203385 493.434328,92.8653906 C493.598391,92.7104427 494.081464,92.3139583 494.883547,91.6759375 C495.457766,91.2202083 495.881594,90.9239844 496.155031,90.7872656 C496.300865,90.714349 496.451255,90.668776 496.606203,90.6505469 L496.606203,90.6505469 L498.04175,90.5548438 L498.04175,89.4884375 C497.184979,89.4975521 496.574302,89.5021094 496.209719,89.5021094 C495.371177,89.511224 494.54175,89.5066667 493.721438,89.4884375 L493.721438,89.4884375 L493.721438,90.2540625 C493.393313,90.636875 492.987714,91.0652604 492.504641,91.5392188 C492.021568,92.0131771 491.684328,92.3504167 491.492922,92.5509375 C490.964276,93.0613542 490.298911,93.6811458 489.496828,94.4103125 C489.114016,94.7566667 488.776776,95.0392188 488.485109,95.2579688 L488.485109,95.2579688 L488.485109,90.2814063 C488.485109,88.6225521 488.503339,86.9728125 488.539797,85.3321875 L488.539797,85.3321875 L488.6355,82.3653906 L488.334719,82.2013281 C487.250083,82.5476823 486.418378,82.7846615 485.839602,82.9122656 C485.260826,83.0398698 484.328859,83.1811458 483.043703,83.3360938 L483.043703,83.3360938 L483.043703,84.3478125 C483.681724,84.3751563 484.078208,84.4025 484.233156,84.4298438 C484.461021,84.4663021 484.629641,84.5164323 484.739016,84.5802344 C484.802818,84.6166927 484.852948,84.6668229 484.889406,84.730625 C484.944094,84.84 484.985109,85.200026 485.012453,85.8107031 C485.08537,87.0047135 485.121828,88.3354427 485.121828,89.8028906 L485.121828,89.8028906 L485.121153,94.639021 C485.117552,95.7453739 485.099548,97.0317679 485.067141,98.4982031 C485.048911,99.7104427 485.003339,100.453281 484.930422,100.726719 C484.903078,100.836094 484.852948,100.924961 484.780031,100.99332 C484.707115,101.06168 484.600018,101.11181 484.458742,101.143711 C484.317466,101.175612 483.845786,101.209792 483.043703,101.24625 L483.043703,101.24625 L483.043703,102.34 C484.255943,102.276198 485.568443,102.244297 486.981203,102.244297 C488.302818,102.244297 489.519615,102.276198 490.631594,102.34 L490.631594,102.34 L490.631594,101.24625 C489.884198,101.209792 489.455813,101.182448 489.346438,101.164219 C489.100344,101.12776 488.927167,101.073073 488.826906,101.000156 C488.75399,100.954583 488.703859,100.895339 488.676516,100.822422 C488.630943,100.713047 488.594484,100.403151 488.567141,99.8927344 C488.512453,98.762526 488.485109,97.8647396 488.485109,97.199375 L488.485109,97.199375 L488.485109,95.8595313 C488.621828,95.8686458 488.722089,95.9005469 488.785891,95.9552344 C488.977297,96.1010677 489.799888,97.0011328 491.253664,98.6554297 C492.70744,100.309727 493.671307,101.537917 494.145266,102.34 C494.464276,102.312656 495.257245,102.298984 496.524172,102.298984 C497.736411,102.298984 498.533938,102.312656 498.91675,102.34 L498.91675,102.34 Z M386.561281,141.55875 L386.561281,140.478672 C385.421958,140.387526 384.806724,140.332839 384.715578,140.314609 C384.496828,140.269036 384.346438,140.193841 384.264406,140.089023 C384.182375,139.984206 384.141359,139.722161 384.141359,139.302891 L384.141359,139.302891 L384.141359,134.244297 C384.551516,134.381016 384.957115,134.485833 385.358156,134.55875 C385.759198,134.631667 386.151125,134.668125 386.533938,134.668125 C387.01701,134.668125 387.440839,134.613438 387.805422,134.504063 C388.069745,134.431146 388.34774,134.303542 388.639406,134.12125 C388.821698,134.00276 389.122479,133.770339 389.54175,133.423984 C389.961021,133.07763 390.419029,132.722161 390.915773,132.357578 C391.412518,131.992995 391.765708,131.701328 391.975344,131.482578 C392.257896,131.190911 392.524497,130.826328 392.775148,130.388828 C393.025799,129.951328 393.251385,129.363438 393.451906,128.625156 C393.652427,127.886875 393.752688,127.144036 393.752688,126.396641 C393.752688,125.211745 393.47925,124.206862 392.932375,123.381992 C392.3855,122.557122 391.688234,121.948724 390.840578,121.556797 C390.24813,121.283359 389.468833,121.146641 388.502688,121.146641 C388.074302,121.146641 387.739341,121.171706 387.497805,121.221836 C387.256268,121.271966 386.957766,121.369948 386.602297,121.515781 C386.420005,121.688958 386.283286,121.816563 386.192141,121.898594 L386.192141,121.898594 L384.824953,123.019688 C384.505943,123.28401 384.278078,123.470859 384.141359,123.580234 L384.141359,123.580234 L384.182375,121.283359 L383.867922,121.078281 C383.129641,121.406406 382.414146,121.6525 381.721438,121.816563 C381.028729,121.980625 380.003339,122.135573 378.645266,122.281406 L378.645266,122.281406 L378.645266,123.347813 C379.556724,123.356927 380.076255,123.386549 380.203859,123.43668 C380.331464,123.48681 380.427167,123.562005 380.490969,123.662266 C380.582115,123.817214 380.645917,124.325352 380.682375,125.18668 C380.718833,126.048008 380.737063,127.052891 380.737063,128.201328 L380.737063,128.201328 L380.737063,134.531406 L380.696047,137.470859 C380.659589,138.673984 380.618573,139.457839 380.573,139.822422 C380.554771,139.959141 380.511477,140.075352 380.443117,140.171055 C380.374758,140.266758 380.285891,140.332839 380.176516,140.369297 C379.985109,140.442214 379.474693,140.478672 378.645266,140.478672 L378.645266,140.478672 L378.645266,141.55875 L382.227297,141.463047 L386.561281,141.55875 Z M386.875734,132.904453 C386.383547,132.904453 385.909589,132.797357 385.453859,132.583164 C384.99813,132.368971 384.56063,132.047682 384.141359,131.619297 L384.141359,131.619297 L384.141359,124.920078 C384.469484,124.528151 384.891034,124.204583 385.406008,123.949375 C385.920982,123.694167 386.42912,123.566563 386.930422,123.566563 C387.449953,123.566563 387.930747,123.687331 388.372805,123.928867 C388.814862,124.170404 389.163495,124.471185 389.418703,124.831211 C389.673911,125.191237 389.874432,125.660638 390.020266,126.239414 C390.166099,126.81819 390.239016,127.431146 390.239016,128.078281 C390.239016,129.09 390.095461,129.983229 389.808352,130.757969 C389.521242,131.532708 389.124758,132.084141 388.618898,132.412266 C388.113039,132.740391 387.531984,132.904453 386.875734,132.904453 Z M403.746828,134.34 L403.746828,133.287266 L402.625734,133.177891 C402.142661,133.141432 401.828208,133.07763 401.682375,132.986484 C401.536542,132.895339 401.443117,132.770013 401.402102,132.610508 C401.361086,132.451003 401.336021,132.020339 401.326906,131.318516 L401.326906,131.318516 L401.299563,129.459141 L401.299776,127.847408 C401.301912,126.658062 401.32007,125.969395 401.35425,125.781406 C401.427167,125.435052 401.65731,125.095534 402.04468,124.762852 C402.432049,124.430169 402.894615,124.263828 403.432375,124.263828 C403.833417,124.263828 404.202557,124.359531 404.539797,124.550938 C404.749432,124.669427 404.968182,124.879063 405.196047,125.179844 L405.196047,125.179844 L405.770266,125.002109 C405.788495,124.847161 405.811281,124.241042 405.838625,123.18375 L405.838625,123.18375 L405.920656,121.242344 C405.647219,121.132969 405.34188,121.078281 405.004641,121.078281 C404.46688,121.078281 404.033938,121.187656 403.705813,121.406406 C403.468833,121.561354 403.113365,121.92138 402.639406,122.486484 C402.320396,122.887526 401.864667,123.393385 401.272219,124.004063 L401.272219,124.004063 L401.299563,121.242344 L400.930422,121.078281 C400.274172,121.379063 399.686281,121.597813 399.16675,121.734531 C398.647219,121.87125 397.558026,122.080885 395.899172,122.363438 L395.899172,122.363438 L395.899172,123.416172 C396.755943,123.443516 397.270917,123.489089 397.444094,123.552891 C397.553469,123.589349 397.633221,123.646315 397.683352,123.723789 C397.733482,123.801263 397.772219,124.131667 397.799563,124.715 C397.85425,125.872552 397.881594,126.856927 397.881594,127.668125 L397.881594,127.668125 L397.88138,129.666996 C397.880383,130.134545 397.875897,130.479974 397.867922,130.703281 L397.867922,130.703281 L397.813234,131.920078 C397.80412,132.403151 397.75399,132.731276 397.662844,132.904453 C397.599042,133.013828 397.503339,133.091302 397.375734,133.136875 C397.102297,133.237135 396.610109,133.287266 395.899172,133.287266 L395.899172,133.287266 L395.899172,134.34 C397.421307,134.294427 398.888755,134.271641 400.301516,134.271641 C401.568443,134.271641 402.71688,134.294427 403.746828,134.34 L403.746828,134.34 Z M413.563234,134.818516 C414.830161,134.818516 415.969484,134.581536 416.981203,134.107578 C417.573651,133.825026 418.138755,133.408034 418.676516,132.856602 C419.214276,132.305169 419.642661,131.578281 419.961672,130.675938 C420.280682,129.773594 420.440188,128.707188 420.440188,127.476719 C420.440188,125.343906 419.891034,123.726068 418.792727,122.623203 C417.694419,121.520339 416.092531,120.968906 413.987063,120.968906 C412.583417,120.968906 411.352948,121.226393 410.295656,121.741367 C409.238365,122.256341 408.445396,123.021966 407.91675,124.038242 C407.388104,125.054518 407.123781,126.337396 407.123781,127.886875 C407.123781,130.165521 407.682049,131.890456 408.798586,133.06168 C409.915122,134.232904 411.503339,134.818516 413.563234,134.818516 Z M414.000734,133.437656 C413.125734,133.437656 412.451255,133.095859 411.977297,132.412266 C411.266359,131.382318 410.910891,129.655104 410.910891,127.230625 C410.910891,125.92724 411.024823,124.936029 411.252688,124.256992 C411.480552,123.577956 411.799563,123.094883 412.209719,122.807773 C412.619875,122.520664 413.098391,122.377109 413.645266,122.377109 C414.283286,122.377109 414.827883,122.573073 415.279055,122.965 C415.730227,123.356927 416.072023,124.051914 416.304445,125.049961 C416.536867,126.048008 416.653078,127.244297 416.653078,128.638828 C416.653078,130.625807 416.361411,131.965651 415.778078,132.658359 C415.340578,133.177891 414.74813,133.437656 414.000734,133.437656 Z M428.2605,134.709141 C428.834719,134.709141 429.295005,134.640781 429.641359,134.504063 C429.923911,134.312656 430.211021,134.080234 430.502688,133.806797 C431.250083,133.150547 431.938234,132.558099 432.567141,132.029453 L432.567141,132.029453 L432.539797,133.150547 L432.471438,134.230625 L432.594484,134.34 L435.055422,134.298984 L437.926516,134.34 L437.926516,133.355625 C437.087974,133.291823 436.595786,133.232578 436.449953,133.177891 C436.30412,133.123203 436.199302,133.038893 436.1355,132.924961 C436.071698,132.811029 436.026125,132.498854 435.998781,131.988438 C435.953208,131.268385 435.930422,130.598464 435.930422,129.978672 L435.930422,129.978672 L435.930761,127.562479 C435.933021,123.8255 435.94658,120.875689 435.971438,118.713047 C435.980552,118.284661 436.039797,116.849115 436.149172,114.406406 L436.149172,114.406406 L435.793703,114.201328 C434.134849,114.802891 432.334719,115.199375 430.393313,115.390781 L430.393313,115.390781 L430.393313,116.4025 C431.395917,116.429844 431.956464,116.457188 432.074953,116.484531 C432.193443,116.511875 432.284589,116.57112 432.348391,116.662266 C432.430422,116.780755 432.480552,117.076979 432.498781,117.550938 C432.544354,118.535313 432.567141,119.373854 432.567141,120.066563 C432.567141,120.65901 432.553469,121.219557 432.526125,121.748203 C431.824302,121.474766 431.329836,121.306146 431.042727,121.242344 C430.755617,121.178542 430.393313,121.146641 429.955813,121.146641 C429.25399,121.146641 428.682049,121.230951 428.239992,121.39957 C427.797935,121.56819 427.068768,122.007969 426.052492,122.718906 C425.036216,123.429844 424.42326,123.912917 424.213625,124.168125 C423.921958,124.514479 423.66675,125.006667 423.448,125.644688 C423.156333,126.483229 423.0105,127.435703 423.0105,128.502109 C423.0105,130.425286 423.507245,131.940586 424.500734,133.048008 C425.494224,134.15543 426.747479,134.709141 428.2605,134.709141 Z M429.79175,132.070469 C428.898521,132.070469 428.187583,131.737786 427.658938,131.072422 C426.948,130.170078 426.592531,128.889479 426.592531,127.230625 C426.592531,126.337396 426.690513,125.548984 426.886477,124.865391 C427.08244,124.181797 427.378664,123.687331 427.775148,123.381992 C428.171633,123.076654 428.684328,122.923984 429.313234,122.923984 C430.033286,122.923984 430.694094,123.097161 431.295656,123.443516 C431.614667,123.625807 432.024823,124.017734 432.526125,124.619297 L432.526125,124.619297 L432.608156,127.134922 C432.608156,128.948724 432.560305,130.033359 432.464602,130.388828 C432.368898,130.744297 432.068117,131.113438 431.562258,131.49625 C431.056398,131.879063 430.466229,132.070469 429.79175,132.070469 Z M445.268313,134.709141 C445.906333,134.709141 446.539797,134.595208 447.168703,134.367344 L447.168703,134.367344 L448.713625,132.904453 C448.977948,132.667474 449.287844,132.407708 449.643313,132.125156 C449.643313,132.653802 449.638755,133.004714 449.629641,133.177891 L449.629641,133.177891 L449.547609,134.230625 L449.643313,134.34 L452.227297,134.271641 L455.043703,134.34 L455.043703,133.24625 C454.095786,133.200677 453.53524,133.132318 453.362063,133.041172 C453.261802,132.97737 453.193443,132.863438 453.156984,132.699375 C453.074953,132.307448 453.033938,131.2775 453.033938,129.609531 L453.033938,129.609531 L453.033938,126.806797 C453.033938,126.597161 453.070396,125.599115 453.143313,123.812656 L453.143313,123.812656 L453.293703,121.297031 L453.033938,121.146641 C451.812583,121.538568 450.946698,121.789219 450.436281,121.898594 C449.925865,122.007969 448.964276,122.153802 447.551516,122.336094 L447.551516,122.336094 L447.551516,123.375156 C448.526776,123.429844 449.082766,123.479974 449.219484,123.525547 C449.356203,123.57112 449.447349,123.634922 449.492922,123.716953 C449.574953,123.844557 449.615969,124.222813 449.615969,124.851719 L449.615969,124.851719 L449.643313,126.793125 L449.643313,129.131016 C449.643313,129.878411 449.588625,130.370599 449.47925,130.607578 C449.306073,130.972161 448.996177,131.325352 448.549563,131.667148 C448.102948,132.008945 447.551516,132.179844 446.895266,132.179844 C446.321047,132.179844 445.86076,132.03401 445.514406,131.742344 C445.168052,131.450677 444.949302,131.017734 444.858156,130.443516 C444.794354,130.006016 444.762453,129.135573 444.762453,127.832188 L444.762453,126.300938 C444.762453,124.769688 444.826255,123.101719 444.953859,121.297031 L444.953859,121.297031 L444.762453,121.146641 C443.52287,121.565911 442.506594,121.857578 441.713625,122.021641 C440.920656,122.185703 440.132245,122.290521 439.348391,122.336094 L439.348391,122.336094 L439.348391,123.375156 C440.232505,123.411615 440.752036,123.461745 440.906984,123.525547 C441.061932,123.589349 441.173586,123.685052 441.241945,123.812656 C441.310305,123.94026 441.344484,124.268385 441.344484,124.797031 L441.344484,124.797031 L441.371828,127.681797 C441.371828,128.420078 441.367271,129.021641 441.358156,129.486484 C441.330813,130.361484 441.317141,130.867344 441.317141,131.004063 C441.317141,132.125156 441.668052,133.022943 442.369875,133.697422 C443.071698,134.371901 444.037844,134.709141 445.268313,134.709141 Z M463.233156,134.818516 C463.91675,134.818516 464.502362,134.756992 464.989992,134.633945 C465.477622,134.510898 466.113365,134.253411 466.897219,133.861484 L466.897219,133.861484 L467.498781,132.535313 L467.239016,132.220859 C466.892661,132.403151 466.528078,132.542148 466.145266,132.637852 C465.762453,132.733555 465.356854,132.781406 464.928469,132.781406 C463.989667,132.781406 463.198977,132.569492 462.556398,132.145664 C461.91382,131.721836 461.396568,131.056471 461.004641,130.14957 C460.612714,129.242669 460.41675,128.215 460.41675,127.066563 C460.41675,126.209792 460.512453,125.480625 460.703859,124.879063 C460.895266,124.2775 461.196047,123.849115 461.606203,123.593906 C462.016359,123.338698 462.567792,123.211094 463.2605,123.211094 C463.843833,123.211094 464.336021,123.309076 464.737063,123.505039 C465.138104,123.701003 465.434328,123.953932 465.625734,124.263828 C465.707766,124.655755 465.776125,125.257318 465.830813,126.068516 L465.830813,126.068516 L466.897219,126.068516 C466.961021,125.011224 467.006594,124.382318 467.033938,124.181797 L467.033938,124.181797 L467.375734,121.953281 L467.239016,121.720859 C466.81063,121.529453 466.343508,121.385898 465.837648,121.290195 C465.331789,121.194492 464.787193,121.146641 464.203859,121.146641 C463.502036,121.146641 462.932375,121.228672 462.494875,121.392734 C462.230552,121.48388 461.742922,121.757318 461.031984,122.213047 L461.031984,122.213047 L458.926516,123.539219 C458.543703,123.812656 458.238365,124.104323 458.0105,124.414219 C457.67326,124.879063 457.413495,125.416823 457.231203,126.0275 C457.048911,126.638177 456.957766,127.422031 456.957766,128.379063 C456.957766,129.655104 457.130943,130.675938 457.477297,131.441563 C457.96037,132.526198 458.66675,133.360182 459.596438,133.943516 C460.526125,134.526849 461.738365,134.818516 463.233156,134.818516 Z M473.938234,134.627109 C474.229901,134.627109 474.514732,134.602044 474.792727,134.551914 C475.070721,134.501784 475.387453,134.399245 475.742922,134.244297 C476.043703,133.934401 476.394615,133.574375 476.795656,133.164219 L476.795656,133.164219 L477.287844,132.672031 L477.069094,132.111484 C476.777427,132.175286 476.538169,132.218581 476.35132,132.241367 C476.164471,132.264154 475.916099,132.27099 475.606203,132.261875 C475.095786,132.261875 474.706138,132.141107 474.437258,131.89957 C474.168378,131.658034 474.015708,131.323073 473.97925,130.894688 C473.955324,130.67138 473.941866,130.008437 473.938875,128.905857 L473.938234,123.84 L475.264406,123.84 L476.60425,123.867344 C476.695396,123.867344 476.795656,123.858229 476.905031,123.84 L476.905031,123.84 L477.137453,121.994297 C476.517661,122.085443 475.601646,122.131016 474.389406,122.131016 L474.389406,122.131016 L473.938234,122.131016 L474.061281,119.738438 L474.156984,118.166172 L474.293703,116.744297 L473.938234,116.470859 C472.826255,116.990391 472.247479,117.259271 472.201906,117.2775 C471.937583,117.37776 471.363365,117.573724 470.47925,117.865391 C470.552167,118.831536 470.588625,119.642734 470.588625,120.298984 L470.588625,120.298984 L470.588625,122.131016 C470.406333,122.276849 470.214927,122.413568 470.014406,122.541172 L470.014406,122.541172 L468.783938,123.320469 L468.783938,123.935703 C469.239667,123.908359 469.718182,123.894688 470.219484,123.894688 L470.219484,123.894688 L470.588625,123.894688 L470.588625,127.271641 L470.533938,131.783359 C470.533938,132.594557 470.836997,133.271315 471.443117,133.813633 C472.049237,134.355951 472.880943,134.627109 473.938234,134.627109 Z M491.219484,134.709141 C491.793703,134.709141 492.25399,134.640781 492.600344,134.504063 C492.882896,134.312656 493.170005,134.080234 493.461672,133.806797 C494.209068,133.150547 494.897219,132.558099 495.526125,132.029453 L495.526125,132.029453 L495.498781,133.150547 L495.430422,134.230625 L495.553469,134.34 L498.014406,134.298984 L500.8855,134.34 L500.8855,133.355625 C500.046958,133.291823 499.554771,133.232578 499.408938,133.177891 C499.263104,133.123203 499.158286,133.038893 499.094484,132.924961 C499.030682,132.811029 498.985109,132.498854 498.957766,131.988438 C498.912193,131.268385 498.889406,130.598464 498.889406,129.978672 L498.889406,129.978672 L498.889745,127.562479 C498.892005,123.8255 498.905564,120.875689 498.930422,118.713047 C498.939536,118.284661 498.998781,116.849115 499.108156,114.406406 L499.108156,114.406406 L498.752688,114.201328 C497.093833,114.802891 495.293703,115.199375 493.352297,115.390781 L493.352297,115.390781 L493.352297,116.4025 C494.354901,116.429844 494.915448,116.457188 495.033938,116.484531 C495.152427,116.511875 495.243573,116.57112 495.307375,116.662266 C495.389406,116.780755 495.439536,117.076979 495.457766,117.550938 C495.503339,118.535313 495.526125,119.373854 495.526125,120.066563 C495.526125,120.65901 495.512453,121.219557 495.485109,121.748203 C494.783286,121.474766 494.28882,121.306146 494.001711,121.242344 C493.714602,121.178542 493.352297,121.146641 492.914797,121.146641 C492.212974,121.146641 491.641034,121.230951 491.198977,121.39957 C490.756919,121.56819 490.027753,122.007969 489.011477,122.718906 C487.995201,123.429844 487.382245,123.912917 487.172609,124.168125 C486.880943,124.514479 486.625734,125.006667 486.406984,125.644688 C486.115318,126.483229 485.969484,127.435703 485.969484,128.502109 C485.969484,130.425286 486.466229,131.940586 487.459719,133.048008 C488.453208,134.15543 489.706464,134.709141 491.219484,134.709141 Z M492.750734,132.070469 C491.857505,132.070469 491.146568,131.737786 490.617922,131.072422 C489.906984,130.170078 489.551516,128.889479 489.551516,127.230625 C489.551516,126.337396 489.649497,125.548984 489.845461,124.865391 C490.041424,124.181797 490.337648,123.687331 490.734133,123.381992 C491.130617,123.076654 491.643313,122.923984 492.272219,122.923984 C492.992271,122.923984 493.653078,123.097161 494.254641,123.443516 C494.573651,123.625807 494.983807,124.017734 495.485109,124.619297 L495.485109,124.619297 L495.567141,127.134922 C495.567141,128.948724 495.519289,130.033359 495.423586,130.388828 C495.327883,130.744297 495.027102,131.113438 494.521242,131.49625 C494.015383,131.879063 493.425214,132.070469 492.750734,132.070469 Z M509.334719,134.818516 C510.091229,134.818516 510.765708,134.741042 511.358156,134.586094 C512.151125,134.367344 512.921307,134.030104 513.668703,133.574375 L513.668703,133.574375 L514.270266,132.234531 L513.942141,131.851719 C513.231203,132.207188 512.656984,132.441888 512.219484,132.55582 C511.781984,132.669753 511.303469,132.726719 510.783938,132.726719 C509.580813,132.726719 508.569094,132.309727 507.748781,131.475742 C506.928469,130.641758 506.481854,129.504714 506.408938,128.064609 L506.408938,128.064609 L507.311281,128.064609 C507.457115,128.064609 507.589276,128.060052 507.707766,128.050938 C507.826255,128.041823 508.446047,128.032708 509.567141,128.023594 C510.688234,128.014479 511.590578,127.982578 512.274172,127.927891 C512.492922,127.918776 512.912193,127.854974 513.531984,127.736484 C513.996828,127.645339 514.343182,127.563307 514.571047,127.490391 C514.589276,127.253411 514.598391,127.007318 514.598391,126.752109 C514.598391,125.621901 514.436607,124.660313 514.113039,123.867344 C513.789471,123.074375 513.23576,122.422682 512.451906,121.912266 C511.668052,121.401849 510.665448,121.146641 509.444094,121.146641 C508.578208,121.146641 507.826255,121.287917 507.188234,121.570469 C506.84188,121.725417 506.285891,122.053542 505.520266,122.554844 C504.754641,123.056146 504.280682,123.397943 504.098391,123.580234 C503.806724,123.871901 503.551516,124.345859 503.332766,125.002109 C503.013755,125.940911 502.85425,127.007318 502.85425,128.201328 C502.85425,129.021641 502.936281,129.778151 503.100344,130.470859 C503.264406,131.163568 503.531008,131.774245 503.900148,132.302891 C504.269289,132.831536 504.697674,133.278151 505.185305,133.642734 C505.672935,134.007318 506.260826,134.294427 506.948977,134.504063 C507.637128,134.713698 508.432375,134.818516 509.334719,134.818516 Z M509.006594,126.697422 C507.748781,126.697422 506.850995,126.656406 506.313234,126.574375 C506.276776,125.179844 506.495526,124.17724 506.969484,123.566563 C507.434328,122.965 508.022219,122.664219 508.733156,122.664219 C509.425865,122.664219 509.990969,122.951328 510.428469,123.525547 C510.856854,124.10888 511.052818,125.125156 511.016359,126.574375 C510.478599,126.656406 509.808677,126.697422 509.006594,126.697422 Z M521.037844,134.818516 C522.942792,134.818516 524.421633,134.353672 525.474367,133.423984 C526.527102,132.494297 527.053469,131.350417 527.053469,129.992344 C527.053469,129.472813 526.973716,128.996576 526.814211,128.563633 C526.654706,128.13069 526.424563,127.768385 526.123781,127.476719 C525.823,127.185052 525.421958,126.943516 524.920656,126.752109 C524.574302,126.624505 523.897544,126.467279 522.890383,126.28043 C521.883221,126.093581 521.192792,125.940911 520.819094,125.822422 C520.445396,125.703932 520.162844,125.526198 519.971438,125.289219 C519.780031,125.05224 519.684328,124.687656 519.684328,124.195469 C519.684328,123.712396 519.896242,123.297682 520.32007,122.951328 C520.743898,122.604974 521.343182,122.431797 522.117922,122.431797 C522.673911,122.431797 523.159263,122.522943 523.573977,122.705234 C523.98869,122.887526 524.337323,123.160964 524.619875,123.525547 C524.701906,123.908359 524.756594,124.304844 524.783938,124.715 C524.802167,124.951979 524.815839,125.120599 524.824953,125.220859 L524.824953,125.220859 L525.877688,125.234531 C525.932375,124.013177 525.973391,123.238438 526.000734,122.910313 C526.028078,122.582188 526.069094,122.25862 526.123781,121.939609 L526.123781,121.939609 L526.082766,121.802891 C525.581464,121.547682 525.020917,121.356276 524.401125,121.228672 C523.781333,121.101068 523.102297,121.037266 522.364016,121.037266 C520.586672,121.037266 519.224042,121.454258 518.276125,122.288242 C517.328208,123.122227 516.85425,124.168125 516.85425,125.425938 C516.85425,126.12776 517.000083,126.740716 517.29175,127.264805 C517.583417,127.788893 517.989016,128.183099 518.508547,128.447422 C519.028078,128.711745 519.791424,128.953281 520.798586,129.172031 C521.805747,129.390781 522.487063,129.563958 522.842531,129.691563 C523.29826,129.901198 523.60132,130.131341 523.751711,130.381992 C523.902102,130.632643 523.977297,130.949375 523.977297,131.332188 C523.977297,131.915521 523.749432,132.412266 523.293703,132.822422 C522.837974,133.232578 522.181724,133.437656 521.324953,133.437656 C520.686932,133.437656 520.121828,133.316888 519.629641,133.075352 C519.137453,132.833815 518.686281,132.462396 518.276125,131.961094 C518.230552,131.696771 518.184979,131.054193 518.139406,130.033359 L518.139406,130.033359 L517.045656,130.033359 L516.963625,132.330234 C516.945396,132.621901 516.899823,133.118646 516.826906,133.820469 L516.826906,133.820469 L516.977297,134.025547 C517.843182,134.326328 518.576906,134.533685 519.178469,134.647617 C519.780031,134.761549 520.399823,134.818516 521.037844,134.818516 Z M532.699953,118.740391 C533.283286,118.740391 533.777753,118.535313 534.183352,118.125156 C534.588951,117.715 534.79175,117.218255 534.79175,116.634922 C534.79175,116.060703 534.588951,115.568516 534.183352,115.158359 C533.777753,114.748203 533.283286,114.543125 532.699953,114.543125 C532.11662,114.543125 531.622154,114.748203 531.216555,115.158359 C530.810956,115.568516 530.608156,116.060703 530.608156,116.634922 C530.608156,117.218255 530.813234,117.715 531.223391,118.125156 C531.633547,118.535313 532.125734,118.740391 532.699953,118.740391 Z M536.651125,134.34 L536.651125,133.273594 C535.703208,133.237135 535.106203,133.159661 534.860109,133.041172 C534.750734,132.986484 534.677818,132.877109 534.641359,132.713047 C534.568443,132.42138 534.531984,131.482578 534.531984,129.896641 L534.531984,129.896641 L534.531984,125.248203 C534.531984,123.999505 534.586672,122.664219 534.696047,121.242344 L534.696047,121.242344 L534.367922,121.064609 C533.538495,121.401849 532.77287,121.6525 532.071047,121.816563 C531.369224,121.980625 530.330161,122.135573 528.953859,122.281406 L528.953859,122.281406 L528.953859,123.320469 C530.011151,123.329583 530.630943,123.393385 530.813234,123.511875 C530.895266,123.566563 530.95451,123.685052 530.990969,123.867344 C531.073,124.259271 531.114016,125.881667 531.114016,128.734531 C531.114016,130.812656 531.068443,132.10237 530.977297,132.603672 C530.940839,132.840651 530.849693,133.002435 530.703859,133.089023 C530.558026,133.175612 529.974693,133.255365 528.953859,133.328281 L528.953859,133.328281 L528.953859,134.34 C529.956464,134.303542 531.114016,134.285313 532.426516,134.285313 C533.948651,134.285313 535.356854,134.303542 536.651125,134.34 L536.651125,134.34 Z M544.539797,141.627109 C546.417401,141.627109 548.03524,141.257969 549.393313,140.519688 C550.468833,139.92724 551.275474,139.170729 551.813234,138.250156 C552.350995,137.329583 552.619875,136.299635 552.619875,135.160313 C552.619875,134.394688 552.487714,133.779453 552.223391,133.314609 C551.959068,132.849766 551.558026,132.503411 551.020266,132.275547 C550.482505,132.047682 549.721438,131.93375 548.737063,131.93375 L548.737063,131.93375 L545.373781,132.015781 C544.170656,132.015781 543.418703,131.98388 543.117922,131.920078 C542.899172,131.874505 542.728273,131.778802 542.605227,131.632969 C542.48218,131.487135 542.420656,131.332188 542.420656,131.168125 C542.420656,130.976719 542.493573,130.769362 542.639406,130.546055 C542.78524,130.322747 542.999432,130.129063 543.281984,129.965 C543.792401,130.010573 544.188885,130.033359 544.471438,130.033359 C545.528729,130.033359 546.529055,129.832839 547.472414,129.431797 C548.415773,129.030755 549.147219,128.456536 549.66675,127.709141 C550.186281,126.961745 550.446047,126.100417 550.446047,125.125156 C550.446047,124.696771 550.386802,124.254714 550.268313,123.798984 L550.268313,123.798984 L552.428469,123.798984 L552.619875,122.117344 C551.407635,122.172031 550.664797,122.199375 550.391359,122.199375 C550.190839,122.199375 549.826255,122.185703 549.297609,122.158359 C548.805422,121.775547 548.197023,121.486159 547.472414,121.290195 C546.747805,121.094232 545.957115,120.99625 545.100344,120.99625 C543.824302,120.99625 542.710044,121.219557 541.75757,121.666172 C540.805096,122.112786 540.105552,122.71207 539.658938,123.464023 C539.212323,124.215977 538.989016,125.024896 538.989016,125.890781 C538.989016,126.528802 539.109784,127.112135 539.35132,127.640781 C539.592857,128.169427 539.916424,128.595534 540.322023,128.919102 C540.727622,129.242669 541.267661,129.5275 541.942141,129.773594 L541.942141,129.773594 L540.04175,131.154453 C539.914146,131.391432 539.786542,131.710443 539.658938,132.111484 C539.567792,132.394036 539.522219,132.649245 539.522219,132.877109 C539.522219,133.29638 539.699953,133.670078 540.055422,133.998203 C540.447349,134.298984 540.889406,134.476719 541.381594,134.531406 C541.281333,134.576979 540.793703,134.845859 539.918703,135.338047 C539.462974,135.60237 539.157635,135.812005 539.002688,135.966953 C538.84774,136.121901 538.711021,136.354323 538.592531,136.664219 C538.474042,136.974115 538.414797,137.320469 538.414797,137.703281 C538.414797,138.368646 538.601646,138.98388 538.975344,139.548984 C539.349042,140.114089 540.000734,140.601719 540.930422,141.011875 C541.860109,141.422031 543.063234,141.627109 544.539797,141.627109 Z M544.785891,128.761875 C544.084068,128.761875 543.514406,128.492995 543.076906,127.955234 C542.639406,127.417474 542.420656,126.519688 542.420656,125.261875 C542.420656,124.231927 542.623456,123.484531 543.029055,123.019688 C543.434654,122.554844 543.983807,122.322422 544.676516,122.322422 C545.405682,122.322422 545.975344,122.57763 546.3855,123.088047 C546.795656,123.598464 547.000734,124.491693 547.000734,125.767734 C547.000734,126.679193 546.854901,127.362786 546.563234,127.818516 C546.153078,128.447422 545.56063,128.761875 544.785891,128.761875 Z M545.100344,140.218906 C543.742271,140.218906 542.723716,139.940911 542.04468,139.384922 C541.365643,138.828932 541.026125,138.136224 541.026125,137.306797 C541.026125,136.814609 541.151451,136.370273 541.402102,135.973789 C541.652753,135.577305 542.151776,135.142083 542.899172,134.668125 C543.409589,134.65901 543.824302,134.654453 544.143313,134.654453 L544.734657,134.654926 C546.147259,134.657292 547.066681,134.668527 547.492922,134.688633 C547.975995,134.711419 548.35425,134.798008 548.627688,134.948398 C548.901125,135.098789 549.113039,135.303867 549.26343,135.563633 C549.41382,135.823398 549.489016,136.199375 549.489016,136.691563 C549.489016,137.712396 549.113039,138.555495 548.361086,139.220859 C547.609133,139.886224 546.522219,140.218906 545.100344,140.218906 Z M569.436281,134.34 L569.436281,133.287266 C569.080813,133.250807 568.825604,133.228021 568.670656,133.218906 C568.251385,133.191563 567.980227,133.125482 567.85718,133.020664 C567.734133,132.915846 567.652102,132.681146 567.611086,132.316563 C567.57007,131.951979 567.545005,130.999505 567.535891,129.459141 L567.535891,129.459141 L567.522219,128.050938 C567.522219,127.89599 567.526776,127.763828 567.535891,127.654453 C567.55412,127.371901 567.563234,126.711094 567.563234,125.672031 C567.563234,124.751458 567.494875,124.074701 567.358156,123.641758 C567.221438,123.208815 566.984458,122.794102 566.647219,122.397617 C566.309979,122.001133 565.897544,121.693516 565.409914,121.474766 C564.922284,121.256016 564.190839,121.146641 563.215578,121.146641 C562.850995,121.146641 562.566164,121.167148 562.361086,121.208164 C562.156008,121.24918 561.903078,121.328932 561.602297,121.447422 L561.602297,121.447422 L559.114016,123.443516 L559.114016,121.242344 L558.744875,121.078281 C558.088625,121.379063 557.500734,121.597813 556.981203,121.734531 C556.461672,121.87125 555.372479,122.080885 553.713625,122.363438 L553.713625,122.363438 L553.713625,123.416172 C554.570396,123.443516 555.08537,123.489089 555.258547,123.552891 C555.367922,123.589349 555.447674,123.646315 555.497805,123.723789 C555.547935,123.801263 555.586672,124.131667 555.614016,124.715 C555.668703,125.872552 555.696047,126.856927 555.696047,127.668125 L555.696047,127.668125 L555.696047,129.459141 C555.696047,130.033359 555.69149,130.448073 555.682375,130.703281 L555.682375,130.703281 L555.627688,131.920078 C555.618573,132.403151 555.568443,132.731276 555.477297,132.904453 C555.413495,133.013828 555.317792,133.091302 555.190188,133.136875 C554.91675,133.237135 554.424563,133.287266 553.713625,133.287266 L553.713625,133.287266 L553.713625,134.34 C554.634198,134.303542 555.928469,134.285313 557.596438,134.285313 L558.068202,134.285988 C559.304184,134.289588 560.363726,134.307593 561.246828,134.34 L561.246828,134.34 L561.246828,133.287266 C560.590578,133.232578 560.207766,133.19612 560.098391,133.177891 C559.77938,133.114089 559.565188,133.045729 559.455813,132.972813 C559.382896,132.92724 559.323651,132.854323 559.278078,132.754063 C559.214276,132.617344 559.177818,132.334792 559.168703,131.906406 C559.132245,130.94026 559.114016,130.124505 559.114016,129.459141 L559.114016,127.162266 C559.104901,125.886224 559.132245,125.157057 559.196047,124.974766 C559.305422,124.66487 559.569745,124.357253 559.989016,124.051914 C560.408286,123.746576 560.936932,123.593906 561.574953,123.593906 C562.212974,123.593906 562.723391,123.746576 563.106203,124.051914 C563.489016,124.357253 563.741945,124.760573 563.864992,125.261875 C563.988039,125.763177 564.049563,126.811354 564.049563,128.406406 L564.049563,128.406406 L564.049563,129.486484 L563.981203,131.728672 C563.880943,133.114089 563.821698,133.9025 563.803469,134.093906 L563.803469,134.093906 L564.049563,134.34 C564.714927,134.276198 565.498781,134.244297 566.401125,134.244297 C567.184979,134.244297 568.196698,134.276198 569.436281,134.34 L569.436281,134.34 Z" id="lockup-subtitle"></path>
                </g>
            </g>
        </g>
    </g>
</svg>