<?xml version="1.0" encoding="UTF-8"?>
<svg width="275px" height="158px" viewBox="0 0 275 158" version="1.1" xmlns="http://www.w3.org/2000/svg" xmlns:xlink="http://www.w3.org/1999/xlink">
    <!-- Generator: Sketch 61 (89581) - https://sketch.com -->
    <title>lockup-mobile</title>
    <desc>Created with Sketch.</desc>
    <g id="Home-2.0" stroke="none" stroke-width="1" fill="none" fill-rule="evenodd">
        <g id="Mobile" transform="translate(-23.000000, -264.000000)" fill-rule="nonzero">
            <g id="lockup-mobile" transform="translate(23.000000, 264.000000)">
                <path d="M10.5908096,32 C13.4792123,32 15.7695113,31.3247706 17.4617068,29.9743119 C19.1539023,28.6238532 20,26.8036697 20,24.5137615 C20,23.5449541 19.8395332,22.7082569 19.5185996,22.0036697 C19.1976659,21.2990826 18.6870897,20.6752294 17.9868709,20.1321101 C17.2866521,19.5889908 16.3749088,19.0972477 15.2516411,18.6568807 C14.1283735,18.2165138 12.7498177,17.7761468 11.1159737,17.3357798 C9.56965718,16.9541284 8.51203501,16.6018349 7.94310722,16.2788991 C7.37417943,15.9559633 7.08971554,15.4715596 7.08971554,14.8256881 C7.08971554,14.1504587 7.35229759,13.6587156 7.87746171,13.3504587 C8.40262582,13.0422018 9.04449307,12.8880734 9.80306346,12.8880734 C10.7658643,12.8880734 11.757841,13.093578 12.7789934,13.5045872 C13.8001459,13.9155963 14.9671772,14.5761468 16.2800875,15.4862385 L16.2800875,15.4862385 L18.9934354,11.2587156 C17.5929978,10.0256881 16.1415026,9.17431193 14.6389497,8.70458716 C13.1363968,8.23486239 11.5244347,8 9.80306346,8 C8.49015317,8 7.27206419,8.19082569 6.1487965,8.57247706 C5.02552881,8.95412844 4.05543399,9.48256881 3.23851204,10.1577982 C2.42159008,10.8330275 1.77972283,11.6550459 1.31291028,12.6238532 C0.846097739,13.5926606 0.612691466,14.6642202 0.612691466,15.8385321 C0.612691466,16.7192661 0.758570387,17.4825688 1.05032823,18.1284404 C1.34208607,18.7743119 1.82348651,19.346789 2.49452954,19.8458716 C3.16557257,20.3449541 4.03355215,20.8 5.09846827,21.2110092 C6.16338439,21.6220183 7.46900073,22.0477064 9.01531729,22.4880734 C10.5908096,22.8990826 11.6921955,23.2880734 12.3194748,23.6550459 C12.9467542,24.0220183 13.2603939,24.5137615 13.2603939,25.1302752 C13.2603939,25.746789 13.0123997,26.2165138 12.5164114,26.5394495 C12.020423,26.8623853 11.3202042,27.0238532 10.4157549,27.0238532 C9.19037199,27.0238532 7.91393144,26.759633 6.58643326,26.2311927 C5.25893508,25.7027523 3.89496718,24.9541284 2.49452954,23.9853211 L2.49452954,23.9853211 L0,28.3009174 C1.31291028,29.5045872 2.91757841,30.4220183 4.81400438,31.053211 C6.71043034,31.6844037 8.63603209,32 10.5908096,32 Z M31.6818182,32 C32.9848485,32 34.280303,31.8233618 35.5681818,31.4700855 C36.8560606,31.1168091 38,30.7340931 39,30.3219373 L39,30.3219373 L37.5909091,24.7136752 C37.1666667,24.9197531 36.6666667,25.1111111 36.0909091,25.2877493 C35.5151515,25.4643875 34.9545455,25.5527066 34.4090909,25.5527066 C33.8030303,25.5527066 33.3030303,25.3834283 32.9090909,25.0448718 C32.5151515,24.7063153 32.3181818,24.154321 32.3181818,23.3888889 L32.3181818,23.3888889 L32.3181818,13.7179487 L37.1818182,13.7179487 L37.1818182,8.37464387 L32.3181818,8.37464387 L32.3181818,1 L25.0454545,1 L25.0454545,8.37464387 L22,8.37464387 L22,13.7179487 L25.0454545,13.7179487 L25.0454545,25.8176638 C25.0454545,26.9363723 25.219697,27.8931624 25.5681818,28.6880342 C25.9166667,29.482906 26.3939394,30.1232194 27,30.6089744 C27.6060606,31.0947293 28.3106061,31.4480057 29.1136364,31.6688034 C29.9166667,31.8896011 30.7727273,32 31.6818182,32 Z M52.544484,32 C55.2431791,32 57.5563464,31.4275229 59.4839858,30.2825688 C61.4116251,29.1376147 62.8351127,27.6550459 63.7544484,25.8348624 L63.7544484,25.8348624 L57.7046263,24.1614679 C57.3784104,25.012844 56.7333926,25.6880734 55.769573,26.187156 C54.8057533,26.6862385 53.8048636,26.9357798 52.7669039,26.9357798 C51.4620403,26.9357798 50.2980427,26.5321101 49.274911,25.7247706 C48.2517794,24.9174312 47.6809015,23.7357798 47.5622776,22.1798165 L47.5622776,22.1798165 L64.8220641,22.1798165 C64.881376,21.8862385 64.92586,21.5412844 64.955516,21.1449541 C64.985172,20.7486239 65,20.3449541 65,19.933945 C65,18.3486239 64.7256821,16.8366972 64.1770463,15.3981651 C63.6284104,13.959633 62.8202847,12.6899083 61.752669,11.5889908 C60.6850534,10.4880734 59.3801898,9.6146789 57.8380783,8.96880734 C56.2959668,8.32293578 54.5314353,8 52.544484,8 C50.5575326,8 48.7855872,8.32293578 47.2286477,8.96880734 C45.6717082,9.6146789 44.3594306,10.4954128 43.2918149,11.6110092 C42.2241993,12.7266055 41.4086595,14.0256881 40.8451957,15.5082569 C40.2817319,16.9908257 40,18.5688073 40,20.2422018 C40,21.7981651 40.2817319,23.2880734 40.8451957,24.7119266 C41.4086595,26.1357798 42.2316133,27.3908257 43.3140569,28.4770642 C44.3965006,29.5633028 45.7161922,30.4220183 47.2731317,31.053211 C48.8300712,31.6844037 50.5871886,32 52.544484,32 Z M57,18 L47,18 C47.1474926,16.4876543 47.6710914,15.2762346 48.5707965,14.3657407 C49.4705015,13.4552469 50.6135693,13 52,13 C53.3569322,13 54.4926254,13.4475309 55.4070796,14.3425926 C56.3215339,15.2376543 56.8525074,16.4567901 57,18 L57,18 Z M80.853211,32 L89,9 L82.4385321,9 L77.3302752,26.392381 L72.266055,9 L65,9 L73.1908257,32 L80.853211,32 Z M102.544484,32 C105.243179,32 107.556346,31.4275229 109.483986,30.2825688 C111.411625,29.1376147 112.835113,27.6550459 113.754448,25.8348624 L113.754448,25.8348624 L107.704626,24.1614679 C107.37841,25.012844 106.733393,25.6880734 105.769573,26.187156 C104.805753,26.6862385 103.804864,26.9357798 102.766904,26.9357798 C101.46204,26.9357798 100.298043,26.5321101 99.274911,25.7247706 C98.2517794,24.9174312 97.6809015,23.7357798 97.5622776,22.1798165 L97.5622776,22.1798165 L114.822064,22.1798165 C114.881376,21.8862385 114.92586,21.5412844 114.955516,21.1449541 C114.985172,20.7486239 115,20.3449541 115,19.933945 C115,18.3486239 114.725682,16.8366972 114.177046,15.3981651 C113.62841,13.959633 112.820285,12.6899083 111.752669,11.5889908 C110.685053,10.4880734 109.38019,9.6146789 107.838078,8.96880734 C106.295967,8.32293578 104.531435,8 102.544484,8 C100.557533,8 98.7855872,8.32293578 97.2286477,8.96880734 C95.6717082,9.6146789 94.3594306,10.4954128 93.2918149,11.6110092 C92.2241993,12.7266055 91.4086595,14.0256881 90.8451957,15.5082569 C90.2817319,16.9908257 90,18.5688073 90,20.2422018 C90,21.7981651 90.2817319,23.2880734 90.8451957,24.7119266 C91.4086595,26.1357798 92.2316133,27.3908257 93.3140569,28.4770642 C94.3965006,29.5633028 95.7161922,30.4220183 97.2731317,31.053211 C98.8300712,31.6844037 100.587189,32 102.544484,32 Z M107,18 L97,18 C97.1474926,16.4876543 97.6710914,15.2762346 98.5707965,14.3657407 C99.4705015,13.4552469 100.613569,13 102,13 C103.356932,13 104.492625,13.4475309 105.40708,14.3425926 C106.321534,15.2376543 106.852507,16.4567901 107,18 L107,18 Z M135.207207,32 L135.207207,17.8161351 C135.837838,16.7354597 136.858859,15.9249531 138.27027,15.3846154 C139.681682,14.8442777 141.258258,14.5590994 143,14.5290807 L143,14.5290807 L143,8.04502814 C142.84985,8.01500938 142.6997,8 142.54955,8 L142.54955,8 L141.828829,8 C140.387387,8.03001876 139.028529,8.49530957 137.752252,9.39587242 C136.475976,10.2964353 135.432432,11.5422139 134.621622,13.1332083 L134.621622,13.1332083 L134.621622,8.36022514 L128,8.36022514 L128,32 L135.207207,32 Z M156.5,32 C158.486951,32 160.258897,31.6770642 161.815836,31.0311927 C163.372776,30.3853211 164.685053,29.5119266 165.752669,28.4110092 C166.820285,27.3100917 167.62841,26.0330275 168.177046,24.5798165 C168.725682,23.1266055 169,21.6073394 169,20.0220183 C169,18.4366972 168.718268,16.9174312 168.154804,15.4642202 C167.59134,14.0110092 166.775801,12.733945 165.708185,11.6330275 C164.640569,10.5321101 163.335706,9.65137615 161.793594,8.99082569 C160.251483,8.33027523 158.486951,8 156.5,8 C154.513049,8 152.741103,8.33027523 151.184164,8.99082569 C149.627224,9.65137615 148.314947,10.5321101 147.247331,11.6330275 C146.179715,12.733945 145.37159,14.0110092 144.822954,15.4642202 C144.274318,16.9174312 144,18.4366972 144,20.0220183 C144,21.6073394 144.274318,23.1266055 144.822954,24.5798165 C145.37159,26.0330275 146.179715,27.3100917 147.247331,28.4110092 C148.314947,29.5119266 149.627224,30.3853211 151.184164,31.0311927 C152.741103,31.6770642 154.513049,32 156.5,32 Z M156.021459,26 C154.562232,26 153.360515,25.4525547 152.416309,24.3576642 C151.472103,23.2627737 151,21.810219 151,20 C151,19.1240876 151.128755,18.3138686 151.386266,17.5693431 C151.643777,16.8248175 151.994278,16.189781 152.437768,15.6642336 C152.881259,15.1386861 153.410587,14.729927 154.025751,14.4379562 C154.640916,14.1459854 155.306152,14 156.021459,14 C157.452074,14 158.639485,14.5474453 159.583691,15.6423358 C160.527897,16.7372263 161,18.189781 161,20 C161,20.8759124 160.871245,21.6861314 160.613734,22.4306569 C160.356223,23.1751825 160.005722,23.810219 159.562232,24.3357664 C159.118741,24.8613139 158.596567,25.270073 157.995708,25.5620438 C157.39485,25.8540146 156.736767,26 156.021459,26 Z M180.036329,32 L180.036329,25.2931507 L182.499044,22.7506849 L188.523901,32 L196,32 L186.984704,18.8931507 L195.296367,8.98630137 L187.820268,8.98630137 L180.036329,18.5424658 L180.036329,0 L173,0 L173,32 L180.036329,32 Z M205,6 L205,0 L198,0 L198,6 L205,6 Z M205,32 L205,9 L198,9 L198,32 L205,32 Z M217.681818,32 C218.984848,32 220.280303,31.8233618 221.568182,31.4700855 C222.856061,31.1168091 224,30.7340931 225,30.3219373 L225,30.3219373 L223.590909,24.7136752 C223.166667,24.9197531 222.666667,25.1111111 222.090909,25.2877493 C221.515152,25.4643875 220.954545,25.5527066 220.409091,25.5527066 C219.80303,25.5527066 219.30303,25.3834283 218.909091,25.0448718 C218.515152,24.7063153 218.318182,24.154321 218.318182,23.3888889 L218.318182,23.3888889 L218.318182,13.7179487 L223.181818,13.7179487 L223.181818,8.37464387 L218.318182,8.37464387 L218.318182,1 L211.045455,1 L211.045455,8.37464387 L208,8.37464387 L208,13.7179487 L211.045455,13.7179487 L211.045455,25.8176638 C211.045455,26.9363723 211.219697,27.8931624 211.568182,28.6880342 C211.916667,29.482906 212.393939,30.1232194 213,30.6089744 C213.606061,31.0947293 214.310606,31.4480057 215.113636,31.6688034 C215.916667,31.8896011 216.772727,32 217.681818,32 Z M235.036329,32 L235.036329,25.2931507 L237.499044,22.7506849 L243.523901,32 L251,32 L241.984704,18.8931507 L250.296367,8.98630137 L242.820268,8.98630137 L235.036329,18.5424658 L235.036329,0 L228,0 L228,32 L235.036329,32 Z M259.134078,32 C260.743017,32 262.270019,31.6477064 263.715084,30.9431193 C265.160149,30.2385321 266.404097,29.2256881 267.446927,27.9045872 L267.446927,27.9045872 L267.581006,28.9614679 C267.759777,29.9009174 268.191806,30.6275229 268.877095,31.1412844 C269.562384,31.6550459 270.575419,31.9119266 271.916201,31.9119266 C272.333333,31.9119266 272.795158,31.8899083 273.301676,31.8458716 C273.808194,31.8018349 274.374302,31.706422 275,31.559633 L275,31.559633 L275,25.6146789 C274.433892,25.5559633 274.039106,25.387156 273.815642,25.1082569 C273.592179,24.8293578 273.480447,24.3376147 273.480447,23.6330275 L273.480447,23.6330275 L273.480447,17.6880734 C273.480447,14.5174312 272.512104,12.1100917 270.575419,10.466055 C268.638734,8.82201835 265.897579,8 262.351955,8 C260.47486,8 258.702048,8.24954128 257.03352,8.74862385 C255.364991,9.24770642 253.756052,9.99633028 252.206704,10.9944954 L252.206704,10.9944954 L254.307263,15.3981651 C255.588454,14.546789 256.810056,13.9082569 257.972067,13.4825688 C259.134078,13.0568807 260.35568,12.8440367 261.636872,12.8440367 C264.765363,12.8440367 266.329609,14.1798165 266.329609,16.8513761 L266.329609,16.8513761 L266.329609,17.9082569 C265.64432,17.5853211 264.839851,17.3431193 263.916201,17.1816514 C262.992551,17.0201835 262.039106,16.9394495 261.055866,16.9394495 C259.566108,16.9394495 258.210428,17.1302752 256.988827,17.5119266 C255.767225,17.893578 254.709497,18.4220183 253.815642,19.0972477 C252.921788,19.7724771 252.22905,20.5798165 251.73743,21.5192661 C251.24581,22.4587156 251,23.5009174 251,24.6458716 C251,25.7027523 251.208566,26.6788991 251.625698,27.5743119 C252.042831,28.4697248 252.608939,29.2477064 253.324022,29.9082569 C254.039106,30.5688073 254.895717,31.0825688 255.893855,31.4495413 C256.891993,31.8165138 257.972067,32 259.134078,32 Z M261.65625,27 C260.59375,27 259.71875,26.7318841 259.03125,26.1956522 C258.34375,25.6594203 258,24.9710145 258,24.1304348 C258,23.2028986 258.445312,22.4492754 259.335938,21.8695652 C260.226562,21.2898551 261.359375,21 262.734375,21 C263.390625,21 264.101562,21.0652174 264.867188,21.1956522 C265.632812,21.326087 266.34375,21.5072464 267,21.7391304 L267,21.7391304 L267,23.9130435 C267,24.4927536 266.640625,25.0434783 265.921875,25.5652174 C265.421875,26 264.789062,26.3478261 264.023438,26.6086957 C263.257812,26.8695652 262.46875,27 261.65625,27 Z M48.7445255,78 L53.8248175,75.4374241 C52.2773723,72.6200891 51.0072993,69.9301337 50.0145985,67.3675577 C49.0218978,64.8049818 48.5255474,62.309842 48.5255474,59.8821385 C48.5255474,58.2936412 48.7372263,56.6601863 49.1605839,54.981774 C49.5839416,53.3033617 50.0875912,51.6998785 50.6715328,50.1713244 C51.2554745,48.6427704 51.8540146,47.2715674 52.4671533,46.0577157 C53.080292,44.8438639 53.5912409,43.9072499 54,43.2478736 L54,43.2478736 L48.6569343,41 C47.7226277,42.618469 46.8540146,44.2219522 46.0510949,45.8104496 C45.2481752,47.3989469 44.5474453,48.9724585 43.9489051,50.5309842 C43.350365,52.0895099 42.8759124,53.6330498 42.5255474,55.1616039 C42.1751825,56.690158 42,58.218712 42,59.7472661 C42,61.3057918 42.1824818,62.8718104 42.5474453,64.445322 C42.9124088,66.0188335 43.4014599,67.5773593 44.0145985,69.1208991 C44.6277372,70.664439 45.3430657,72.1855002 46.1605839,73.6840826 C46.9781022,75.182665 47.8394161,76.6213042 48.7445255,78 L48.7445255,78 Z M64.2072072,75 L64.2072072,60.8161351 C64.8378378,59.7354597 65.8588589,58.9249531 67.2702703,58.3846154 C68.6816817,57.8442777 70.2582583,57.5590994 72,57.5290807 L72,57.5290807 L72,51.0450281 C71.8498498,51.0150094 71.6996997,51 71.5495495,51 L71.5495495,51 L70.8288288,51 C69.3873874,51.0300188 68.0285285,51.4953096 66.7522523,52.3958724 C65.475976,53.2964353 64.4324324,54.5422139 63.6216216,56.1332083 L63.6216216,56.1332083 L63.6216216,51.3602251 L57,51.3602251 L57,75 L64.2072072,75 Z M85.5,75 C87.4869514,75 89.2588968,74.6770642 90.8158363,74.0311927 C92.3727758,73.3853211 93.6850534,72.5119266 94.752669,71.4110092 C95.8202847,70.3100917 96.6284104,69.0330275 97.1770463,67.5798165 C97.7256821,66.1266055 98,64.6073394 98,63.0220183 C98,61.4366972 97.7182681,59.9174312 97.1548043,58.4642202 C96.5913405,57.0110092 95.7758007,55.733945 94.7081851,54.6330275 C93.6405694,53.5321101 92.3357058,52.6513761 90.7935943,51.9908257 C89.2514828,51.3302752 87.4869514,51 85.5,51 C83.5130486,51 81.7411032,51.3302752 80.1841637,51.9908257 C78.6272242,52.6513761 77.3149466,53.5321101 76.247331,54.6330275 C75.1797153,55.733945 74.3715896,57.0110092 73.8229537,58.4642202 C73.2743179,59.9174312 73,61.4366972 73,63.0220183 C73,64.6073394 73.2743179,66.1266055 73.8229537,67.5798165 C74.3715896,69.0330275 75.1797153,70.3100917 76.247331,71.4110092 C77.3149466,72.5119266 78.6272242,73.3853211 80.1841637,74.0311927 C81.7411032,74.6770642 83.5130486,75 85.5,75 Z M85.0214592,69 C83.5622318,69 82.360515,68.4525547 81.416309,67.3576642 C80.472103,66.2627737 80,64.810219 80,63 C80,62.1240876 80.1287554,61.3138686 80.3862661,60.5693431 C80.6437768,59.8248175 80.9942775,59.189781 81.4377682,58.6642336 C81.8812589,58.1386861 82.4105866,57.729927 83.0257511,57.4379562 C83.6409156,57.1459854 84.3061516,57 85.0214592,57 C86.4520744,57 87.639485,57.5474453 88.583691,58.6423358 C89.527897,59.7372263 90,61.189781 90,63 C90,63.8759124 89.8712446,64.6861314 89.6137339,65.4306569 C89.3562232,66.1751825 89.0057225,66.810219 88.5622318,67.3357664 C88.1187411,67.8613139 87.5965665,68.270073 86.9957082,68.5620438 C86.3948498,68.8540146 85.7367668,69 85.0214592,69 Z M112.793951,75 C115.546314,75 117.882798,74.4275229 119.803403,73.2825688 C121.724008,72.1376147 123.122873,70.6697248 124,68.8788991 L124,68.8788991 L116.922495,66.7651376 C116.559546,67.440367 116,67.9908257 115.243856,68.4165138 C114.487713,68.8422018 113.655955,69.0550459 112.748582,69.0550459 C112.022684,69.0550459 111.334594,68.9082569 110.68431,68.6146789 C110.034026,68.3211009 109.466919,67.9100917 108.982987,67.3816514 C108.499055,66.853211 108.120983,66.2146789 107.848771,65.466055 C107.57656,64.7174312 107.440454,63.8880734 107.440454,62.9779817 C107.440454,61.1577982 107.94707,59.7045872 108.960302,58.6183486 C109.973535,57.5321101 111.236295,56.9889908 112.748582,56.9889908 C114.563327,56.9889908 115.939509,57.7229358 116.877127,59.1908257 L116.877127,59.1908257 L123.954631,57.1211009 C123.017013,55.3009174 121.610586,53.8256881 119.73535,52.6954128 C117.860113,51.5651376 115.546314,51 112.793951,51 C110.767486,51 108.960302,51.3229358 107.372401,51.9688073 C105.784499,52.6146789 104.446125,53.4880734 103.357278,54.5889908 C102.268431,55.6899083 101.436673,56.9669725 100.862004,58.4201835 C100.287335,59.8733945 100,61.3926606 100,62.9779817 C100,64.5633028 100.287335,66.0825688 100.862004,67.5357798 C101.436673,68.9889908 102.275992,70.266055 103.379962,71.3669725 C104.483932,72.4678899 105.829868,73.3486239 107.417769,74.0091743 C109.005671,74.6697248 110.797732,75 112.793951,75 Z M134.036329,75 L134.036329,68.2931507 L136.499044,65.7506849 L142.523901,75 L150,75 L140.984704,61.8931507 L149.296367,51.9863014 L141.820268,51.9863014 L134.036329,61.5424658 L134.036329,43 L127,43 L127,75 L134.036329,75 Z M161.544484,75 C164.243179,75 166.556346,74.4275229 168.483986,73.2825688 C170.411625,72.1376147 171.835113,70.6550459 172.754448,68.8348624 L172.754448,68.8348624 L166.704626,67.1614679 C166.37841,68.012844 165.733393,68.6880734 164.769573,69.187156 C163.805753,69.6862385 162.804864,69.9357798 161.766904,69.9357798 C160.46204,69.9357798 159.298043,69.5321101 158.274911,68.7247706 C157.251779,67.9174312 156.680902,66.7357798 156.562278,65.1798165 L156.562278,65.1798165 L173.822064,65.1798165 C173.881376,64.8862385 173.92586,64.5412844 173.955516,64.1449541 C173.985172,63.7486239 174,63.3449541 174,62.933945 C174,61.3486239 173.725682,59.8366972 173.177046,58.3981651 C172.62841,56.959633 171.820285,55.6899083 170.752669,54.5889908 C169.685053,53.4880734 168.38019,52.6146789 166.838078,51.9688073 C165.295967,51.3229358 163.531435,51 161.544484,51 C159.557533,51 157.785587,51.3229358 156.228648,51.9688073 C154.671708,52.6146789 153.359431,53.4954128 152.291815,54.6110092 C151.224199,55.7266055 150.40866,57.0256881 149.845196,58.5082569 C149.281732,59.9908257 149,61.5688073 149,63.2422018 C149,64.7981651 149.281732,66.2880734 149.845196,67.7119266 C150.40866,69.1357798 151.231613,70.3908257 152.314057,71.4770642 C153.396501,72.5633028 154.716192,73.4220183 156.273132,74.053211 C157.830071,74.6844037 159.587189,75 161.544484,75 Z M167,61 L157,61 C157.147493,59.4876543 157.671091,58.2762346 158.570796,57.3657407 C159.470501,56.4552469 160.613569,56 162,56 C163.356932,56 164.492625,56.4475309 165.40708,57.3425926 C166.321534,58.2376543 166.852507,59.4567901 167,61 L167,61 Z M185.681818,75 C186.984848,75 188.280303,74.8233618 189.568182,74.4700855 C190.856061,74.1168091 192,73.7340931 193,73.3219373 L193,73.3219373 L191.590909,67.7136752 C191.166667,67.9197531 190.666667,68.1111111 190.090909,68.2877493 C189.515152,68.4643875 188.954545,68.5527066 188.409091,68.5527066 C187.80303,68.5527066 187.30303,68.3834283 186.909091,68.0448718 C186.515152,67.7063153 186.318182,67.154321 186.318182,66.3888889 L186.318182,66.3888889 L186.318182,56.7179487 L191.181818,56.7179487 L191.181818,51.3746439 L186.318182,51.3746439 L186.318182,44 L179.045455,44 L179.045455,51.3746439 L176,51.3746439 L176,56.7179487 L179.045455,56.7179487 L179.045455,68.8176638 C179.045455,69.9363723 179.219697,70.8931624 179.568182,71.6880342 C179.916667,72.482906 180.393939,73.1232194 181,73.6089744 C181.606061,74.0947293 182.310606,74.4480057 183.113636,74.6688034 C183.916667,74.8896011 184.772727,75 185.681818,75 Z M203.036329,75 L203.036329,68.2931507 L205.499044,65.7506849 L211.523901,75 L219,75 L209.984704,61.8931507 L218.296367,51.9863014 L210.820268,51.9863014 L203.036329,61.5424658 L203.036329,43 L196,43 L196,75 L203.036329,75 Z M227.134078,75 C228.743017,75 230.270019,74.6477064 231.715084,73.9431193 C233.160149,73.2385321 234.404097,72.2256881 235.446927,70.9045872 L235.446927,70.9045872 L235.581006,71.9614679 C235.759777,72.9009174 236.191806,73.6275229 236.877095,74.1412844 C237.562384,74.6550459 238.575419,74.9119266 239.916201,74.9119266 C240.333333,74.9119266 240.795158,74.8899083 241.301676,74.8458716 C241.808194,74.8018349 242.374302,74.706422 243,74.559633 L243,74.559633 L243,68.6146789 C242.433892,68.5559633 242.039106,68.387156 241.815642,68.1082569 C241.592179,67.8293578 241.480447,67.3376147 241.480447,66.6330275 L241.480447,66.6330275 L241.480447,60.6880734 C241.480447,57.5174312 240.512104,55.1100917 238.575419,53.466055 C236.638734,51.8220183 233.897579,51 230.351955,51 C228.47486,51 226.702048,51.2495413 225.03352,51.7486239 C223.364991,52.2477064 221.756052,52.9963303 220.206704,53.9944954 L220.206704,53.9944954 L222.307263,58.3981651 C223.588454,57.546789 224.810056,56.9082569 225.972067,56.4825688 C227.134078,56.0568807 228.35568,55.8440367 229.636872,55.8440367 C232.765363,55.8440367 234.329609,57.1798165 234.329609,59.8513761 L234.329609,59.8513761 L234.329609,60.9082569 C233.64432,60.5853211 232.839851,60.3431193 231.916201,60.1816514 C230.992551,60.0201835 230.039106,59.9394495 229.055866,59.9394495 C227.566108,59.9394495 226.210428,60.1302752 224.988827,60.5119266 C223.767225,60.893578 222.709497,61.4220183 221.815642,62.0972477 C220.921788,62.7724771 220.22905,63.5798165 219.73743,64.5192661 C219.24581,65.4587156 219,66.5009174 219,67.6458716 C219,68.7027523 219.208566,69.6788991 219.625698,70.5743119 C220.042831,71.4697248 220.608939,72.2477064 221.324022,72.9082569 C222.039106,73.5688073 222.895717,74.0825688 223.893855,74.4495413 C224.891993,74.8165138 225.972067,75 227.134078,75 Z M228.65625,70 C227.59375,70 226.71875,69.7318841 226.03125,69.1956522 C225.34375,68.6594203 225,67.9710145 225,67.1304348 C225,66.2028986 225.445312,65.4492754 226.335938,64.8695652 C227.226562,64.2898551 228.359375,64 229.734375,64 C230.390625,64 231.101562,64.0652174 231.867188,64.1956522 C232.632812,64.326087 233.34375,64.5072464 234,64.7391304 L234,64.7391304 L234,66.9130435 C234,67.4927536 233.640625,68.0434783 232.921875,68.5652174 C232.421875,69 231.789063,69.3478261 231.023438,69.6086957 C230.257812,69.8695652 229.46875,70 228.65625,70 Z M253.207207,75 L253.207207,60.8161351 C253.837838,59.7354597 254.858859,58.9249531 256.27027,58.3846154 C257.681682,57.8442777 259.258258,57.5590994 261,57.5290807 L261,57.5290807 L261,51.0450281 C260.84985,51.0150094 260.6997,51 260.54955,51 L260.54955,51 L259.828829,51 C258.387387,51.0300188 257.028529,51.4953096 255.752252,52.3958724 C254.475976,53.2964353 253.432432,54.5422139 252.621622,56.1332083 L252.621622,56.1332083 L252.621622,51.3602251 L246,51.3602251 L246,75 L253.207207,75 Z M268.255474,78 C269.160584,76.6213042 270.021898,75.182665 270.839416,73.6840826 C271.656934,72.1855002 272.372263,70.664439 272.985401,69.1208991 C273.59854,67.5773593 274.087591,66.0188335 274.452555,64.445322 C274.817518,62.8718104 275,61.3057918 275,59.7472661 C275,58.218712 274.824818,56.690158 274.474453,55.1616039 C274.124088,53.6330498 273.649635,52.0895099 273.051095,50.5309842 C272.452555,48.9724585 271.751825,47.3989469 270.948905,45.8104496 C270.145985,44.2219522 269.277372,42.618469 268.343066,41 L268.343066,41 L263,43.2478736 C263.408759,43.9072499 263.919708,44.8438639 264.532847,46.0577157 C265.145985,47.2715674 265.744526,48.6427704 266.328467,50.1713244 C266.912409,51.6998785 267.416058,53.3033617 267.839416,54.981774 C268.262774,56.6601863 268.474453,58.2936412 268.474453,59.8821385 C268.474453,62.309842 267.978102,64.8049818 266.985401,67.3675577 C265.992701,69.9301337 264.722628,72.6200891 263.175182,75.4374241 L263.175182,75.4374241 L268.255474,78 Z" id="steverokitka(rocketkar)" fill="#AFAFAF"></path>
                <path d="M9.36523438,118 L9.36523438,116.947266 C8.18033854,116.85612 7.56054688,116.80599 7.50585938,116.796875 C7.28710938,116.760417 7.12988281,116.701172 7.03417969,116.619141 C6.93847656,116.537109 6.86783854,116.432292 6.82226562,116.304688 C6.76757813,116.122396 6.72884115,115.589193 6.70605469,114.705078 C6.68326823,113.820964 6.671875,112.891276 6.671875,111.916016 L6.671875,111.916016 L6.671875,107.554688 C7.46484375,107.527344 7.94335938,107.513672 8.10742188,107.513672 C8.16210938,107.513672 8.38997396,107.522786 8.79101562,107.541016 L8.79101562,107.541016 L10.171875,107.568359 L10.390625,106.351562 C10.4179688,106.1875 10.4544271,106.027995 10.5,105.873047 L10.5,105.873047 L10.3222656,105.736328 C9.74804688,105.781901 9.06901042,105.813802 8.28515625,105.832031 L8.28515625,105.832031 L6.671875,105.845703 L6.671875,103.945312 C6.671875,102.486979 6.7265625,101.575521 6.8359375,101.210938 C6.90885417,100.964844 7.0546875,100.76888 7.2734375,100.623047 C7.58333333,100.422526 8.00260417,100.322266 8.53125,100.322266 C8.89583333,100.322266 9.19661458,100.370117 9.43359375,100.46582 C9.67057292,100.561523 9.92578125,100.736979 10.1992188,100.992188 L10.1992188,100.992188 L10.7460938,100.746094 C10.7278646,99.9075521 10.7916667,98.9960938 10.9375,98.0117188 C10.4270833,97.8476562 9.94856771,97.765625 9.50195312,97.765625 C9.06445312,97.765625 8.67252604,97.8317057 8.32617188,97.9638672 C7.97981771,98.0960286 7.67447917,98.2760417 7.41015625,98.5039062 L7.41015625,98.5039062 L5.75585938,99.9804688 C4.72591146,100.873698 4.06054688,101.520833 3.75976562,101.921875 C3.57747396,102.167969 3.4453125,102.423177 3.36328125,102.6875 C3.28125,102.951823 3.21972656,103.400716 3.17871094,104.03418 C3.13769531,104.667643 3.1171875,105.198568 3.1171875,105.626953 C3.1171875,105.763672 3.05794271,105.873047 2.93945312,105.955078 C2.89388021,105.991536 2.26497396,106.324219 1.05273438,106.953125 L1.05273438,106.953125 L1.05273438,107.623047 L2.91210938,107.541016 L3.29492188,107.554688 L3.29492188,111.65625 C3.27669271,114.153646 3.23567708,115.639323 3.171875,116.113281 C3.14453125,116.377604 3.05338542,116.559896 2.8984375,116.660156 C2.69791667,116.78776 2.05989583,116.888021 0.984375,116.960938 L0.984375,116.960938 L0.984375,118 C2.88932292,117.954427 4.12890625,117.931641 4.703125,117.931641 L4.703125,117.931641 L9.36523438,118 Z M17.5410156,118.369141 C18.1790365,118.369141 18.8125,118.255208 19.4414062,118.027344 L19.4414062,118.027344 L20.9863281,116.564453 C21.250651,116.327474 21.5605469,116.067708 21.9160156,115.785156 C21.9160156,116.313802 21.9114583,116.664714 21.9023438,116.837891 L21.9023438,116.837891 L21.8203125,117.890625 L21.9160156,118 L24.5,117.931641 L27.3164062,118 L27.3164062,116.90625 C26.3684896,116.860677 25.8079427,116.792318 25.6347656,116.701172 C25.5345052,116.63737 25.4661458,116.523438 25.4296875,116.359375 C25.3476562,115.967448 25.3066406,114.9375 25.3066406,113.269531 L25.3066406,113.269531 L25.3069436,110.427145 C25.3105793,110.14992 25.3469367,109.16509 25.4160156,107.472656 L25.4160156,107.472656 L25.5664062,104.957031 L25.3066406,104.806641 C24.0852865,105.198568 23.219401,105.449219 22.7089844,105.558594 C22.1985677,105.667969 21.2369792,105.813802 19.8242188,105.996094 L19.8242188,105.996094 L19.8242188,107.035156 C20.7994792,107.089844 21.3554688,107.139974 21.4921875,107.185547 C21.6289062,107.23112 21.7200521,107.294922 21.765625,107.376953 C21.8476562,107.504557 21.8886719,107.882812 21.8886719,108.511719 L21.8886719,108.511719 L21.9160156,110.453125 L21.9160156,112.791016 C21.9160156,113.538411 21.8613281,114.030599 21.7519531,114.267578 C21.578776,114.632161 21.2688802,114.985352 20.8222656,115.327148 C20.375651,115.668945 19.8242188,115.839844 19.1679688,115.839844 C18.59375,115.839844 18.1334635,115.69401 17.7871094,115.402344 C17.4407552,115.110677 17.2220052,114.677734 17.1308594,114.103516 C17.0670573,113.666016 17.0351562,112.795573 17.0351562,111.492188 L17.0351562,109.960938 C17.0351562,108.429688 17.0989583,106.761719 17.2265625,104.957031 L17.2265625,104.957031 L17.0351562,104.806641 C15.7955729,105.225911 14.7792969,105.517578 13.9863281,105.681641 C13.1933594,105.845703 12.4049479,105.950521 11.6210938,105.996094 L11.6210938,105.996094 L11.6210938,107.035156 C12.5052083,107.071615 13.0247396,107.121745 13.1796875,107.185547 C13.3346354,107.249349 13.4462891,107.345052 13.5146484,107.472656 C13.5830078,107.60026 13.6171875,107.928385 13.6171875,108.457031 L13.6171875,108.457031 L13.6445312,111.341797 C13.6445312,112.080078 13.639974,112.681641 13.6308594,113.146484 C13.6035156,114.021484 13.5898438,114.527344 13.5898438,114.664062 C13.5898438,115.785156 13.9407552,116.682943 14.6425781,117.357422 C15.344401,118.031901 16.3105469,118.369141 17.5410156,118.369141 Z M36.5039062,118 L36.5039062,116.90625 C35.65625,116.860677 35.1914062,116.828776 35.109375,116.810547 C34.9088542,116.774089 34.7675781,116.723958 34.6855469,116.660156 C34.6217448,116.614583 34.5761719,116.559896 34.5488281,116.496094 C34.5032552,116.404948 34.4713542,116.188477 34.453125,115.84668 C34.4348958,115.504883 34.4075521,114.518229 34.3710938,112.886719 C34.3528646,112.230469 34.34375,111.241536 34.34375,109.919922 L34.34375,106.419922 C34.3528646,104.16862 34.3802083,102.268229 34.4257812,100.71875 L34.4257812,100.71875 L34.5351562,97.9570312 L34.2480469,97.7929688 C33.108724,98.1484375 32.2018229,98.3968099 31.5273438,98.5380859 C30.8528646,98.679362 29.9505208,98.8092448 28.8203125,98.9277344 L28.8203125,98.9277344 L28.8203125,99.9394531 C29.5039062,99.9667969 29.9140625,99.9895833 30.0507812,100.007812 C30.2877604,100.044271 30.4609375,100.098958 30.5703125,100.171875 C30.6341146,100.208333 30.6842448,100.258464 30.7207031,100.322266 C30.7753906,100.440755 30.8209635,100.81901 30.8574219,101.457031 C30.921224,102.641927 30.953125,103.94987 30.953125,105.380859 L30.953125,105.380859 L30.953125,109.892578 C30.953125,111.013672 30.9394531,112.298828 30.9121094,113.748047 C30.8847656,115.197266 30.8391927,116.058594 30.7753906,116.332031 C30.7480469,116.477865 30.7001953,116.584961 30.6318359,116.65332 C30.5634766,116.72168 30.4609375,116.774089 30.3242188,116.810547 C30.1419271,116.85612 29.6178385,116.892578 28.7519531,116.919922 L28.7519531,116.919922 L28.7519531,118 C30.3014323,117.927083 31.6959635,117.890625 32.9355469,117.890625 C34.1751302,117.890625 35.3645833,117.927083 36.5039062,118 L36.5039062,118 Z M45.828125,118 L45.828125,116.90625 C44.9804688,116.860677 44.515625,116.828776 44.4335938,116.810547 C44.2330729,116.774089 44.0917969,116.723958 44.0097656,116.660156 C43.9459635,116.614583 43.9003906,116.559896 43.8730469,116.496094 C43.827474,116.404948 43.7955729,116.188477 43.7773438,115.84668 C43.7591146,115.504883 43.7317708,114.518229 43.6953125,112.886719 C43.6770833,112.230469 43.6679688,111.241536 43.6679688,109.919922 L43.6679688,109.919922 L43.6679688,106.419922 C43.6770833,104.16862 43.7044271,102.268229 43.75,100.71875 L43.75,100.71875 L43.859375,97.9570312 L43.5722656,97.7929688 C42.4329427,98.1484375 41.5260417,98.3968099 40.8515625,98.5380859 C40.1770833,98.679362 39.2747396,98.8092448 38.1445312,98.9277344 L38.1445312,98.9277344 L38.1445312,99.9394531 C38.828125,99.9667969 39.2382812,99.9895833 39.375,100.007812 C39.6119792,100.044271 39.7851562,100.098958 39.8945312,100.171875 C39.9583333,100.208333 40.0084635,100.258464 40.0449219,100.322266 C40.0996094,100.440755 40.1451823,100.81901 40.1816406,101.457031 C40.2454427,102.641927 40.2773438,103.94987 40.2773438,105.380859 L40.2773438,105.380859 L40.2773438,109.892578 C40.2773438,111.013672 40.2636719,112.298828 40.2363281,113.748047 C40.2089844,115.197266 40.1634115,116.058594 40.0996094,116.332031 C40.0722656,116.477865 40.0244141,116.584961 39.9560547,116.65332 C39.8876953,116.72168 39.7851562,116.774089 39.6484375,116.810547 C39.4661458,116.85612 38.9420573,116.892578 38.0761719,116.919922 L38.0761719,116.919922 L38.0761719,118 C39.625651,117.927083 41.0201823,117.890625 42.2597656,117.890625 C43.499349,117.890625 44.6888021,117.927083 45.828125,118 L45.828125,118 Z M54.5917969,112.599609 C54.7467448,111.843099 54.8902995,111.271159 55.0224609,110.883789 C55.1546224,110.496419 55.311849,110.143229 55.4941406,109.824219 L55.4941406,109.824219 L55.234375,109.550781 L48.0292969,109.550781 C47.9290365,110.02474 47.7695312,110.617188 47.5507812,111.328125 C47.4049479,111.77474 47.2591146,112.130208 47.1132812,112.394531 L47.1132812,112.394531 L47.3183594,112.599609 L54.5917969,112.599609 Z M61.4277344,118.478516 C63.3326823,118.478516 64.8115234,118.013672 65.8642578,117.083984 C66.9169922,116.154297 67.4433594,115.010417 67.4433594,113.652344 C67.4433594,113.132812 67.3636068,112.656576 67.2041016,112.223633 C67.0445964,111.79069 66.8144531,111.428385 66.5136719,111.136719 C66.2128906,110.845052 65.811849,110.603516 65.3105469,110.412109 C64.9641927,110.284505 64.2874349,110.127279 63.2802734,109.94043 C62.273112,109.753581 61.5826823,109.600911 61.2089844,109.482422 C60.8352865,109.363932 60.5527344,109.186198 60.3613281,108.949219 C60.1699219,108.71224 60.0742188,108.347656 60.0742188,107.855469 C60.0742188,107.372396 60.2861328,106.957682 60.7099609,106.611328 C61.1337891,106.264974 61.7330729,106.091797 62.5078125,106.091797 C63.0638021,106.091797 63.5491536,106.182943 63.9638672,106.365234 C64.3785807,106.547526 64.7272135,106.820964 65.0097656,107.185547 C65.0917969,107.568359 65.1464844,107.964844 65.1738281,108.375 C65.1920573,108.611979 65.2057292,108.780599 65.2148438,108.880859 L65.2148438,108.880859 L66.2675781,108.894531 C66.3222656,107.673177 66.3632812,106.898438 66.390625,106.570312 C66.4179688,106.242188 66.4589844,105.91862 66.5136719,105.599609 L66.5136719,105.599609 L66.4726562,105.462891 C65.9713542,105.207682 65.4108073,105.016276 64.7910156,104.888672 C64.171224,104.761068 63.4921875,104.697266 62.7539062,104.697266 C60.9765625,104.697266 59.6139323,105.114258 58.6660156,105.948242 C57.718099,106.782227 57.2441406,107.828125 57.2441406,109.085938 C57.2441406,109.78776 57.389974,110.400716 57.6816406,110.924805 C57.9733073,111.448893 58.3789062,111.843099 58.8984375,112.107422 C59.4179688,112.371745 60.1813151,112.613281 61.1884766,112.832031 C62.195638,113.050781 62.8769531,113.223958 63.2324219,113.351562 C63.688151,113.561198 63.9912109,113.791341 64.1416016,114.041992 C64.2919922,114.292643 64.3671875,114.609375 64.3671875,114.992188 C64.3671875,115.575521 64.1393229,116.072266 63.6835938,116.482422 C63.2278646,116.892578 62.5716146,117.097656 61.7148438,117.097656 C61.0768229,117.097656 60.5117188,116.976888 60.0195312,116.735352 C59.5273438,116.493815 59.0761719,116.122396 58.6660156,115.621094 C58.6204427,115.356771 58.5748698,114.714193 58.5292969,113.693359 L58.5292969,113.693359 L57.4355469,113.693359 L57.3535156,115.990234 C57.3352865,116.281901 57.2897135,116.778646 57.2167969,117.480469 L57.2167969,117.480469 L57.3671875,117.685547 C58.2330729,117.986328 58.9667969,118.193685 59.5683594,118.307617 C60.1699219,118.421549 60.7897135,118.478516 61.4277344,118.478516 Z M74.1835938,118.287109 C74.4752604,118.287109 74.7600911,118.262044 75.0380859,118.211914 C75.3160807,118.161784 75.6328125,118.059245 75.9882812,117.904297 C76.2890625,117.594401 76.639974,117.234375 77.0410156,116.824219 L77.0410156,116.824219 L77.5332031,116.332031 L77.3144531,115.771484 C77.0227865,115.835286 76.7835286,115.878581 76.5966797,115.901367 C76.4098307,115.924154 76.1614583,115.93099 75.8515625,115.921875 C75.3411458,115.921875 74.9514974,115.801107 74.6826172,115.55957 C74.413737,115.318034 74.2610677,114.983073 74.2246094,114.554688 C74.1972656,114.299479 74.1835938,113.470052 74.1835938,112.066406 L74.1835938,107.5 L75.5097656,107.5 L76.8496094,107.527344 C76.9407552,107.527344 77.0410156,107.518229 77.1503906,107.5 L77.1503906,107.5 L77.3828125,105.654297 C76.7630208,105.745443 75.8470052,105.791016 74.6347656,105.791016 L74.6347656,105.791016 L74.1835938,105.791016 L74.3066406,103.398438 L74.4023438,101.826172 L74.5390625,100.404297 L74.1835938,100.130859 C73.0716146,100.650391 72.4928385,100.919271 72.4472656,100.9375 C72.1829427,101.03776 71.608724,101.233724 70.7246094,101.525391 C70.797526,102.491536 70.8339844,103.302734 70.8339844,103.958984 L70.8339844,103.958984 L70.8339844,105.791016 C70.6516927,105.936849 70.4602865,106.073568 70.2597656,106.201172 L70.2597656,106.201172 L69.0292969,106.980469 L69.0292969,107.595703 C69.485026,107.568359 69.9635417,107.554688 70.4648438,107.554688 L70.4648438,107.554688 L70.8339844,107.554688 L70.8339844,110.931641 L70.7792969,115.443359 C70.7792969,116.254557 71.0823568,116.931315 71.6884766,117.473633 C72.2945964,118.015951 73.1263021,118.287109 74.1835938,118.287109 Z M81.9902344,118.355469 C82.3639323,118.355469 82.7558594,118.309896 83.1660156,118.21875 C84.7701823,116.988281 85.7363281,116.268229 86.0644531,116.058594 L86.0644531,116.058594 L85.9414062,117.849609 L86.0644531,118 C86.7845052,117.954427 87.5273438,117.931641 88.2929688,117.931641 C89.1041667,117.931641 90.0338542,117.954427 91.0820312,118 L91.0820312,118 L91.0820312,116.974609 C90.3072917,116.919922 89.8470052,116.85612 89.7011719,116.783203 C89.5917969,116.728516 89.5188802,116.619141 89.4824219,116.455078 C89.391276,116.108724 89.3457031,115.124349 89.3457031,113.501953 C89.3457031,112.982422 89.359375,112.3125 89.3867188,111.492188 C89.4322917,110.261719 89.4550781,109.500651 89.4550781,109.208984 C89.4550781,108.525391 89.398112,107.960286 89.2841797,107.513672 C89.1702474,107.067057 88.960612,106.647786 88.6552734,106.255859 C88.3499349,105.863932 87.8759766,105.524414 87.2333984,105.237305 C86.5908203,104.950195 85.7727865,104.806641 84.7792969,104.806641 C84.1686198,104.806641 83.6946615,104.856771 83.3574219,104.957031 C83.1113281,105.029948 82.6829427,105.235026 82.0722656,105.572266 C81.4615885,105.909505 80.8190104,106.30599 80.1445312,106.761719 L80.1445312,106.761719 L80.0625,108.525391 L80.9921875,108.730469 L81.5664062,107.349609 C81.7760417,107.212891 81.9583333,107.121745 82.1132812,107.076172 C82.46875,106.975911 82.8424479,106.925781 83.234375,106.925781 C84.2005208,106.925781 84.9205729,107.208333 85.3945312,107.773438 C85.859375,108.338542 86.0826823,109.163411 86.0644531,110.248047 C84.3509115,110.539714 82.7740885,110.940755 81.3339844,111.451172 C80.7324219,111.660807 80.2880859,111.877279 80.0009766,112.100586 C79.7138672,112.323893 79.444987,112.672526 79.1943359,113.146484 C78.9436849,113.620443 78.8183594,114.226562 78.8183594,114.964844 C78.8183594,116.058594 79.0986328,116.897135 79.6591797,117.480469 C80.2197266,118.063802 80.9967448,118.355469 81.9902344,118.355469 Z M83.8496094,115.976562 C83.3665365,115.976562 82.976888,115.817057 82.6806641,115.498047 C82.3844401,115.179036 82.2363281,114.727865 82.2363281,114.144531 C82.2363281,113.625 82.359375,113.194336 82.6054688,112.852539 C82.8515625,112.510742 83.2958984,112.223633 83.9384766,111.991211 C84.5810547,111.758789 85.2897135,111.560547 86.0644531,111.396484 L86.0644531,111.396484 L86.0644531,114.71875 C85.827474,115.083333 85.5016276,115.384115 85.0869141,115.621094 C84.6722005,115.858073 84.2597656,115.976562 83.8496094,115.976562 Z M99.2304688,118.478516 C99.9140625,118.478516 100.499674,118.416992 100.987305,118.293945 C101.474935,118.170898 102.110677,117.913411 102.894531,117.521484 L102.894531,117.521484 L103.496094,116.195312 L103.236328,115.880859 C102.889974,116.063151 102.525391,116.202148 102.142578,116.297852 C101.759766,116.393555 101.354167,116.441406 100.925781,116.441406 C99.9869792,116.441406 99.1962891,116.229492 98.5537109,115.805664 C97.9111328,115.381836 97.3938802,114.716471 97.0019531,113.80957 C96.610026,112.902669 96.4140625,111.875 96.4140625,110.726562 C96.4140625,109.869792 96.5097656,109.140625 96.7011719,108.539062 C96.8925781,107.9375 97.1933594,107.509115 97.6035156,107.253906 C98.0136719,106.998698 98.5651042,106.871094 99.2578125,106.871094 C99.8411458,106.871094 100.333333,106.969076 100.734375,107.165039 C101.135417,107.361003 101.431641,107.613932 101.623047,107.923828 C101.705078,108.315755 101.773438,108.917318 101.828125,109.728516 L101.828125,109.728516 L102.894531,109.728516 C102.958333,108.671224 103.003906,108.042318 103.03125,107.841797 L103.03125,107.841797 L103.373047,105.613281 L103.236328,105.380859 C102.807943,105.189453 102.34082,105.045898 101.834961,104.950195 C101.329102,104.854492 100.784505,104.806641 100.201172,104.806641 C99.499349,104.806641 98.9296875,104.888672 98.4921875,105.052734 C98.2278646,105.14388 97.7402344,105.417318 97.0292969,105.873047 L97.0292969,105.873047 L94.9238281,107.199219 C94.5410156,107.472656 94.2356771,107.764323 94.0078125,108.074219 C93.6705729,108.539062 93.4108073,109.076823 93.2285156,109.6875 C93.046224,110.298177 92.9550781,111.082031 92.9550781,112.039062 C92.9550781,113.315104 93.1282552,114.335938 93.4746094,115.101562 C93.9576823,116.186198 94.6640625,117.020182 95.59375,117.603516 C96.5234375,118.186849 97.7356771,118.478516 99.2304688,118.478516 Z M120.96875,118 L120.96875,116.90625 C120.604167,116.878906 120.326172,116.810547 120.134766,116.701172 C119.797526,116.509766 119.091146,115.798828 118.015625,114.568359 C116.101562,112.399089 114.74349,110.840495 113.941406,109.892578 L113.941406,109.892578 L115.103516,108.880859 C115.194661,108.798828 115.322266,108.680339 115.486328,108.525391 C115.650391,108.370443 116.133464,107.973958 116.935547,107.335938 C117.509766,106.880208 117.933594,106.583984 118.207031,106.447266 C118.352865,106.374349 118.503255,106.328776 118.658203,106.310547 L118.658203,106.310547 L120.09375,106.214844 L120.09375,105.148438 C119.236979,105.157552 118.626302,105.162109 118.261719,105.162109 C117.423177,105.171224 116.59375,105.166667 115.773438,105.148438 L115.773438,105.148438 L115.773438,105.914062 C115.445312,106.296875 115.039714,106.72526 114.556641,107.199219 C114.073568,107.673177 113.736328,108.010417 113.544922,108.210938 C113.016276,108.721354 112.350911,109.341146 111.548828,110.070312 C111.166016,110.416667 110.828776,110.699219 110.537109,110.917969 L110.537109,110.917969 L110.537109,105.941406 C110.537109,104.282552 110.555339,102.632812 110.591797,100.992188 L110.591797,100.992188 L110.6875,98.0253906 L110.386719,97.8613281 C109.302083,98.2076823 108.470378,98.4446615 107.891602,98.5722656 C107.312826,98.6998698 106.380859,98.8411458 105.095703,98.9960938 L105.095703,98.9960938 L105.095703,100.007812 C105.733724,100.035156 106.130208,100.0625 106.285156,100.089844 C106.513021,100.126302 106.681641,100.176432 106.791016,100.240234 C106.854818,100.276693 106.904948,100.326823 106.941406,100.390625 C106.996094,100.5 107.037109,100.860026 107.064453,101.470703 C107.13737,102.664714 107.173828,103.995443 107.173828,105.462891 L107.173828,105.462891 L107.173153,110.299021 C107.169552,111.405374 107.151548,112.691768 107.119141,114.158203 C107.100911,115.370443 107.055339,116.113281 106.982422,116.386719 C106.955078,116.496094 106.904948,116.584961 106.832031,116.65332 C106.759115,116.72168 106.652018,116.77181 106.510742,116.803711 C106.369466,116.835612 105.897786,116.869792 105.095703,116.90625 L105.095703,116.90625 L105.095703,118 C106.307943,117.936198 107.620443,117.904297 109.033203,117.904297 C110.354818,117.904297 111.571615,117.936198 112.683594,118 L112.683594,118 L112.683594,116.90625 C111.936198,116.869792 111.507812,116.842448 111.398438,116.824219 C111.152344,116.78776 110.979167,116.733073 110.878906,116.660156 C110.80599,116.614583 110.755859,116.555339 110.728516,116.482422 C110.682943,116.373047 110.646484,116.063151 110.619141,115.552734 C110.564453,114.422526 110.537109,113.52474 110.537109,112.859375 L110.537109,112.859375 L110.537109,111.519531 C110.673828,111.528646 110.774089,111.560547 110.837891,111.615234 C111.029297,111.761068 111.851888,112.661133 113.305664,114.31543 C114.75944,115.969727 115.723307,117.197917 116.197266,118 C116.516276,117.972656 117.309245,117.958984 118.576172,117.958984 C119.788411,117.958984 120.585938,117.972656 120.96875,118 L120.96875,118 Z M8.61328125,157.21875 L8.61328125,156.138672 C7.47395833,156.047526 6.85872396,155.992839 6.76757812,155.974609 C6.54882812,155.929036 6.3984375,155.853841 6.31640625,155.749023 C6.234375,155.644206 6.19335938,155.382161 6.19335938,154.962891 L6.19335938,154.962891 L6.19335938,149.904297 C6.60351562,150.041016 7.00911458,150.145833 7.41015625,150.21875 C7.81119792,150.291667 8.203125,150.328125 8.5859375,150.328125 C9.06901042,150.328125 9.49283854,150.273438 9.85742188,150.164062 C10.1217448,150.091146 10.3997396,149.963542 10.6914062,149.78125 C10.8736979,149.66276 11.1744792,149.430339 11.59375,149.083984 C12.0130208,148.73763 12.4710286,148.382161 12.9677734,148.017578 C13.4645182,147.652995 13.8177083,147.361328 14.0273438,147.142578 C14.3098958,146.850911 14.5764974,146.486328 14.8271484,146.048828 C15.0777995,145.611328 15.3033854,145.023438 15.5039062,144.285156 C15.7044271,143.546875 15.8046875,142.804036 15.8046875,142.056641 C15.8046875,140.871745 15.53125,139.866862 14.984375,139.041992 C14.4375,138.217122 13.7402344,137.608724 12.8925781,137.216797 C12.3001302,136.943359 11.5208333,136.806641 10.5546875,136.806641 C10.1263021,136.806641 9.79134115,136.831706 9.54980469,136.881836 C9.30826823,136.931966 9.00976562,137.029948 8.65429688,137.175781 C8.47200521,137.348958 8.33528646,137.476562 8.24414062,137.558594 L8.24414062,137.558594 L6.87695312,138.679688 C6.55794271,138.94401 6.33007812,139.130859 6.19335938,139.240234 L6.19335938,139.240234 L6.234375,136.943359 L5.91992188,136.738281 C5.18164062,137.066406 4.46614583,137.3125 3.7734375,137.476562 C3.08072917,137.640625 2.05533854,137.795573 0.697265625,137.941406 L0.697265625,137.941406 L0.697265625,139.007812 C1.60872396,139.016927 2.12825521,139.046549 2.25585938,139.09668 C2.38346354,139.14681 2.47916667,139.222005 2.54296875,139.322266 C2.63411458,139.477214 2.69791667,139.985352 2.734375,140.84668 C2.77083333,141.708008 2.7890625,142.712891 2.7890625,143.861328 L2.7890625,143.861328 L2.7890625,150.191406 L2.74804688,153.130859 C2.71158854,154.333984 2.67057292,155.117839 2.625,155.482422 C2.60677083,155.619141 2.56347656,155.735352 2.49511719,155.831055 C2.42675781,155.926758 2.33789062,155.992839 2.22851562,156.029297 C2.03710938,156.102214 1.52669271,156.138672 0.697265625,156.138672 L0.697265625,156.138672 L0.697265625,157.21875 L4.27929688,157.123047 L8.61328125,157.21875 Z M8.92773438,148.564453 C8.43554688,148.564453 7.96158854,148.457357 7.50585938,148.243164 C7.05013021,148.028971 6.61263021,147.707682 6.19335938,147.279297 L6.19335938,147.279297 L6.19335938,140.580078 C6.52148438,140.188151 6.94303385,139.864583 7.45800781,139.609375 C7.97298177,139.354167 8.48111979,139.226562 8.98242188,139.226562 C9.50195312,139.226562 9.9827474,139.347331 10.4248047,139.588867 C10.866862,139.830404 11.2154948,140.131185 11.4707031,140.491211 C11.7259115,140.851237 11.9264323,141.320638 12.0722656,141.899414 C12.218099,142.47819 12.2910156,143.091146 12.2910156,143.738281 C12.2910156,144.75 12.1474609,145.643229 11.8603516,146.417969 C11.5732422,147.192708 11.1767578,147.744141 10.6708984,148.072266 C10.1650391,148.400391 9.58398438,148.564453 8.92773438,148.564453 Z M25.7988281,150 L25.7988281,148.947266 L24.6777344,148.837891 C24.1946615,148.801432 23.8802083,148.73763 23.734375,148.646484 C23.5885417,148.555339 23.4951172,148.430013 23.4541016,148.270508 C23.4130859,148.111003 23.3880208,147.680339 23.3789062,146.978516 L23.3789062,146.978516 L23.3515625,145.119141 L23.3517761,143.507408 C23.3539124,142.318062 23.3720703,141.629395 23.40625,141.441406 C23.4791667,141.095052 23.7093099,140.755534 24.0966797,140.422852 C24.4840495,140.090169 24.9466146,139.923828 25.484375,139.923828 C25.8854167,139.923828 26.2545573,140.019531 26.5917969,140.210938 C26.8014323,140.329427 27.0201823,140.539062 27.2480469,140.839844 L27.2480469,140.839844 L27.8222656,140.662109 C27.8404948,140.507161 27.8632812,139.901042 27.890625,138.84375 L27.890625,138.84375 L27.9726562,136.902344 C27.6992188,136.792969 27.3938802,136.738281 27.0566406,136.738281 C26.5188802,136.738281 26.0859375,136.847656 25.7578125,137.066406 C25.5208333,137.221354 25.1653646,137.58138 24.6914062,138.146484 C24.3723958,138.547526 23.9166667,139.053385 23.3242188,139.664062 L23.3242188,139.664062 L23.3515625,136.902344 L22.9824219,136.738281 C22.3261719,137.039062 21.7382812,137.257812 21.21875,137.394531 C20.6992188,137.53125 19.610026,137.740885 17.9511719,138.023438 L17.9511719,138.023438 L17.9511719,139.076172 C18.8079427,139.103516 19.3229167,139.149089 19.4960938,139.212891 C19.6054688,139.249349 19.6852214,139.306315 19.7353516,139.383789 C19.7854818,139.461263 19.8242188,139.791667 19.8515625,140.375 C19.90625,141.532552 19.9335938,142.516927 19.9335938,143.328125 L19.9335938,143.328125 L19.9333801,145.326996 C19.9323832,145.794545 19.9278971,146.139974 19.9199219,146.363281 L19.9199219,146.363281 L19.8652344,147.580078 C19.8561198,148.063151 19.8059896,148.391276 19.7148438,148.564453 C19.6510417,148.673828 19.5553385,148.751302 19.4277344,148.796875 C19.1542969,148.897135 18.6621094,148.947266 17.9511719,148.947266 L17.9511719,148.947266 L17.9511719,150 C19.4733073,149.954427 20.9407552,149.931641 22.3535156,149.931641 C23.6204427,149.931641 24.7688802,149.954427 25.7988281,150 L25.7988281,150 Z M35.6152344,150.478516 C36.8821615,150.478516 38.0214844,150.241536 39.0332031,149.767578 C39.625651,149.485026 40.1907552,149.068034 40.7285156,148.516602 C41.266276,147.965169 41.6946615,147.238281 42.0136719,146.335938 C42.3326823,145.433594 42.4921875,144.367188 42.4921875,143.136719 C42.4921875,141.003906 41.9430339,139.386068 40.8447266,138.283203 C39.7464193,137.180339 38.1445312,136.628906 36.0390625,136.628906 C34.6354167,136.628906 33.4049479,136.886393 32.3476562,137.401367 C31.2903646,137.916341 30.4973958,138.681966 29.96875,139.698242 C29.4401042,140.714518 29.1757812,141.997396 29.1757812,143.546875 C29.1757812,145.825521 29.7340495,147.550456 30.8505859,148.72168 C31.9671224,149.892904 33.5553385,150.478516 35.6152344,150.478516 Z M36.0527344,149.097656 C35.1777344,149.097656 34.5032552,148.755859 34.0292969,148.072266 C33.3183594,147.042318 32.9628906,145.315104 32.9628906,142.890625 C32.9628906,141.58724 33.0768229,140.596029 33.3046875,139.916992 C33.5325521,139.237956 33.8515625,138.754883 34.2617188,138.467773 C34.671875,138.180664 35.1503906,138.037109 35.6972656,138.037109 C36.3352865,138.037109 36.8798828,138.233073 37.3310547,138.625 C37.7822266,139.016927 38.1240234,139.711914 38.3564453,140.709961 C38.5888672,141.708008 38.7050781,142.904297 38.7050781,144.298828 C38.7050781,146.285807 38.4134115,147.625651 37.8300781,148.318359 C37.3925781,148.837891 36.8001302,149.097656 36.0527344,149.097656 Z M50.3125,150.369141 C50.8867188,150.369141 51.3470052,150.300781 51.6933594,150.164062 C51.9759115,149.972656 52.2630208,149.740234 52.5546875,149.466797 C53.3020833,148.810547 53.9902344,148.218099 54.6191406,147.689453 L54.6191406,147.689453 L54.5917969,148.810547 L54.5234375,149.890625 L54.6464844,150 L57.1074219,149.958984 L59.9785156,150 L59.9785156,149.015625 C59.139974,148.951823 58.6477865,148.892578 58.5019531,148.837891 C58.3561198,148.783203 58.2513021,148.698893 58.1875,148.584961 C58.1236979,148.471029 58.078125,148.158854 58.0507812,147.648438 C58.0052083,146.928385 57.9824219,146.258464 57.9824219,145.638672 L57.9824219,145.638672 L57.9827608,143.222479 C57.9850207,139.4855 57.9985795,136.535689 58.0234375,134.373047 C58.0325521,133.944661 58.0917969,132.509115 58.2011719,130.066406 L58.2011719,130.066406 L57.8457031,129.861328 C56.186849,130.462891 54.3867188,130.859375 52.4453125,131.050781 L52.4453125,131.050781 L52.4453125,132.0625 C53.4479167,132.089844 54.0084635,132.117188 54.1269531,132.144531 C54.2454427,132.171875 54.3365885,132.23112 54.4003906,132.322266 C54.4824219,132.440755 54.5325521,132.736979 54.5507812,133.210938 C54.5963542,134.195312 54.6191406,135.033854 54.6191406,135.726562 C54.6191406,136.31901 54.6054688,136.879557 54.578125,137.408203 C53.8763021,137.134766 53.3818359,136.966146 53.0947266,136.902344 C52.8076172,136.838542 52.4453125,136.806641 52.0078125,136.806641 C51.3059896,136.806641 50.7340495,136.890951 50.2919922,137.05957 C49.8499349,137.22819 49.1207682,137.667969 48.1044922,138.378906 C47.0882161,139.089844 46.4752604,139.572917 46.265625,139.828125 C45.9739583,140.174479 45.71875,140.666667 45.5,141.304688 C45.2083333,142.143229 45.0625,143.095703 45.0625,144.162109 C45.0625,146.085286 45.5592448,147.600586 46.5527344,148.708008 C47.546224,149.81543 48.7994792,150.369141 50.3125,150.369141 Z M51.84375,147.730469 C50.9505208,147.730469 50.2395833,147.397786 49.7109375,146.732422 C49,145.830078 48.6445312,144.549479 48.6445312,142.890625 C48.6445312,141.997396 48.742513,141.208984 48.9384766,140.525391 C49.1344401,139.841797 49.4306641,139.347331 49.8271484,139.041992 C50.2236328,138.736654 50.7363281,138.583984 51.3652344,138.583984 C52.0852865,138.583984 52.7460938,138.757161 53.3476562,139.103516 C53.6666667,139.285807 54.0768229,139.677734 54.578125,140.279297 L54.578125,140.279297 L54.6601562,142.794922 C54.6601562,144.608724 54.6123047,145.693359 54.5166016,146.048828 C54.4208984,146.404297 54.1201172,146.773438 53.6142578,147.15625 C53.1083984,147.539062 52.5182292,147.730469 51.84375,147.730469 Z M67.3203125,150.369141 C67.9583333,150.369141 68.5917969,150.255208 69.2207031,150.027344 L69.2207031,150.027344 L70.765625,148.564453 C71.0299479,148.327474 71.3398438,148.067708 71.6953125,147.785156 C71.6953125,148.313802 71.6907552,148.664714 71.6816406,148.837891 L71.6816406,148.837891 L71.5996094,149.890625 L71.6953125,150 L74.2792969,149.931641 L77.0957031,150 L77.0957031,148.90625 C76.1477865,148.860677 75.5872396,148.792318 75.4140625,148.701172 C75.3138021,148.63737 75.2454427,148.523438 75.2089844,148.359375 C75.1269531,147.967448 75.0859375,146.9375 75.0859375,145.269531 L75.0859375,145.269531 L75.0859375,142.466797 C75.0859375,142.257161 75.1223958,141.259115 75.1953125,139.472656 L75.1953125,139.472656 L75.3457031,136.957031 L75.0859375,136.806641 C73.8645833,137.198568 72.9986979,137.449219 72.4882812,137.558594 C71.9778646,137.667969 71.016276,137.813802 69.6035156,137.996094 L69.6035156,137.996094 L69.6035156,139.035156 C70.578776,139.089844 71.1347656,139.139974 71.2714844,139.185547 C71.4082031,139.23112 71.499349,139.294922 71.5449219,139.376953 C71.6269531,139.504557 71.6679688,139.882812 71.6679688,140.511719 L71.6679688,140.511719 L71.6953125,142.453125 L71.6953125,144.791016 C71.6953125,145.538411 71.640625,146.030599 71.53125,146.267578 C71.3580729,146.632161 71.0481771,146.985352 70.6015625,147.327148 C70.1549479,147.668945 69.6035156,147.839844 68.9472656,147.839844 C68.3730469,147.839844 67.9127604,147.69401 67.5664062,147.402344 C67.2200521,147.110677 67.0013021,146.677734 66.9101562,146.103516 C66.8463542,145.666016 66.8144531,144.795573 66.8144531,143.492188 L66.8144531,141.960938 C66.8144531,140.429688 66.8782552,138.761719 67.0058594,136.957031 L67.0058594,136.957031 L66.8144531,136.806641 C65.5748698,137.225911 64.5585938,137.517578 63.765625,137.681641 C62.9726562,137.845703 62.1842448,137.950521 61.4003906,137.996094 L61.4003906,137.996094 L61.4003906,139.035156 C62.2845052,139.071615 62.8040365,139.121745 62.9589844,139.185547 C63.1139323,139.249349 63.2255859,139.345052 63.2939453,139.472656 C63.3623047,139.60026 63.3964844,139.928385 63.3964844,140.457031 L63.3964844,140.457031 L63.4238281,143.341797 C63.4238281,144.080078 63.4192708,144.681641 63.4101562,145.146484 C63.3828125,146.021484 63.3691406,146.527344 63.3691406,146.664062 C63.3691406,147.785156 63.7200521,148.682943 64.421875,149.357422 C65.1236979,150.031901 66.0898438,150.369141 67.3203125,150.369141 Z M85.2851562,150.478516 C85.96875,150.478516 86.554362,150.416992 87.0419922,150.293945 C87.5296224,150.170898 88.1653646,149.913411 88.9492188,149.521484 L88.9492188,149.521484 L89.5507812,148.195312 L89.2910156,147.880859 C88.9446615,148.063151 88.5800781,148.202148 88.1972656,148.297852 C87.8144531,148.393555 87.4088542,148.441406 86.9804688,148.441406 C86.0416667,148.441406 85.2509766,148.229492 84.6083984,147.805664 C83.9658203,147.381836 83.4485677,146.716471 83.0566406,145.80957 C82.6647135,144.902669 82.46875,143.875 82.46875,142.726562 C82.46875,141.869792 82.5644531,141.140625 82.7558594,140.539062 C82.9472656,139.9375 83.2480469,139.509115 83.6582031,139.253906 C84.0683594,138.998698 84.6197917,138.871094 85.3125,138.871094 C85.8958333,138.871094 86.3880208,138.969076 86.7890625,139.165039 C87.1901042,139.361003 87.4863281,139.613932 87.6777344,139.923828 C87.7597656,140.315755 87.828125,140.917318 87.8828125,141.728516 L87.8828125,141.728516 L88.9492188,141.728516 C89.0130208,140.671224 89.0585938,140.042318 89.0859375,139.841797 L89.0859375,139.841797 L89.4277344,137.613281 L89.2910156,137.380859 C88.8626302,137.189453 88.3955078,137.045898 87.8896484,136.950195 C87.3837891,136.854492 86.8391927,136.806641 86.2558594,136.806641 C85.5540365,136.806641 84.984375,136.888672 84.546875,137.052734 C84.2825521,137.14388 83.7949219,137.417318 83.0839844,137.873047 L83.0839844,137.873047 L80.9785156,139.199219 C80.5957031,139.472656 80.2903646,139.764323 80.0625,140.074219 C79.7252604,140.539062 79.4654948,141.076823 79.2832031,141.6875 C79.1009115,142.298177 79.0097656,143.082031 79.0097656,144.039062 C79.0097656,145.315104 79.1829427,146.335938 79.5292969,147.101562 C80.0123698,148.186198 80.71875,149.020182 81.6484375,149.603516 C82.578125,150.186849 83.7903646,150.478516 85.2851562,150.478516 Z M95.9902344,150.287109 C96.281901,150.287109 96.5667318,150.262044 96.8447266,150.211914 C97.1227214,150.161784 97.4394531,150.059245 97.7949219,149.904297 C98.0957031,149.594401 98.4466146,149.234375 98.8476562,148.824219 L98.8476562,148.824219 L99.3398438,148.332031 L99.1210938,147.771484 C98.8294271,147.835286 98.5901693,147.878581 98.4033203,147.901367 C98.2164714,147.924154 97.968099,147.93099 97.6582031,147.921875 C97.1477865,147.921875 96.758138,147.801107 96.4892578,147.55957 C96.2203776,147.318034 96.0677083,146.983073 96.03125,146.554688 C96.0073242,146.33138 95.993866,145.668437 95.9908752,144.565857 L95.9902344,139.5 L97.3164062,139.5 L98.65625,139.527344 C98.7473958,139.527344 98.8476562,139.518229 98.9570312,139.5 L98.9570312,139.5 L99.1894531,137.654297 C98.5696615,137.745443 97.6536458,137.791016 96.4414062,137.791016 L96.4414062,137.791016 L95.9902344,137.791016 L96.1132812,135.398438 L96.2089844,133.826172 L96.3457031,132.404297 L95.9902344,132.130859 C94.8782552,132.650391 94.2994792,132.919271 94.2539062,132.9375 C93.9895833,133.03776 93.4153646,133.233724 92.53125,133.525391 C92.6041667,134.491536 92.640625,135.302734 92.640625,135.958984 L92.640625,135.958984 L92.640625,137.791016 C92.4583333,137.936849 92.2669271,138.073568 92.0664062,138.201172 L92.0664062,138.201172 L90.8359375,138.980469 L90.8359375,139.595703 C91.2916667,139.568359 91.7701823,139.554688 92.2714844,139.554688 L92.2714844,139.554688 L92.640625,139.554688 L92.640625,142.931641 L92.5859375,147.443359 C92.5859375,148.254557 92.8889974,148.931315 93.4951172,149.473633 C94.101237,150.015951 94.9329427,150.287109 95.9902344,150.287109 Z M113.271484,150.369141 C113.845703,150.369141 114.30599,150.300781 114.652344,150.164062 C114.934896,149.972656 115.222005,149.740234 115.513672,149.466797 C116.261068,148.810547 116.949219,148.218099 117.578125,147.689453 L117.578125,147.689453 L117.550781,148.810547 L117.482422,149.890625 L117.605469,150 L120.066406,149.958984 L122.9375,150 L122.9375,149.015625 C122.098958,148.951823 121.606771,148.892578 121.460938,148.837891 C121.315104,148.783203 121.210286,148.698893 121.146484,148.584961 C121.082682,148.471029 121.037109,148.158854 121.009766,147.648438 C120.964193,146.928385 120.941406,146.258464 120.941406,145.638672 L120.941406,145.638672 L120.941745,143.222479 C120.944005,139.4855 120.957564,136.535689 120.982422,134.373047 C120.991536,133.944661 121.050781,132.509115 121.160156,130.066406 L121.160156,130.066406 L120.804688,129.861328 C119.145833,130.462891 117.345703,130.859375 115.404297,131.050781 L115.404297,131.050781 L115.404297,132.0625 C116.406901,132.089844 116.967448,132.117188 117.085938,132.144531 C117.204427,132.171875 117.295573,132.23112 117.359375,132.322266 C117.441406,132.440755 117.491536,132.736979 117.509766,133.210938 C117.555339,134.195312 117.578125,135.033854 117.578125,135.726562 C117.578125,136.31901 117.564453,136.879557 117.537109,137.408203 C116.835286,137.134766 116.34082,136.966146 116.053711,136.902344 C115.766602,136.838542 115.404297,136.806641 114.966797,136.806641 C114.264974,136.806641 113.693034,136.890951 113.250977,137.05957 C112.808919,137.22819 112.079753,137.667969 111.063477,138.378906 C110.047201,139.089844 109.434245,139.572917 109.224609,139.828125 C108.932943,140.174479 108.677734,140.666667 108.458984,141.304688 C108.167318,142.143229 108.021484,143.095703 108.021484,144.162109 C108.021484,146.085286 108.518229,147.600586 109.511719,148.708008 C110.505208,149.81543 111.758464,150.369141 113.271484,150.369141 Z M114.802734,147.730469 C113.909505,147.730469 113.198568,147.397786 112.669922,146.732422 C111.958984,145.830078 111.603516,144.549479 111.603516,142.890625 C111.603516,141.997396 111.701497,141.208984 111.897461,140.525391 C112.093424,139.841797 112.389648,139.347331 112.786133,139.041992 C113.182617,138.736654 113.695312,138.583984 114.324219,138.583984 C115.044271,138.583984 115.705078,138.757161 116.306641,139.103516 C116.625651,139.285807 117.035807,139.677734 117.537109,140.279297 L117.537109,140.279297 L117.619141,142.794922 C117.619141,144.608724 117.571289,145.693359 117.475586,146.048828 C117.379883,146.404297 117.079102,146.773438 116.573242,147.15625 C116.067383,147.539062 115.477214,147.730469 114.802734,147.730469 Z M131.386719,150.478516 C132.143229,150.478516 132.817708,150.401042 133.410156,150.246094 C134.203125,150.027344 134.973307,149.690104 135.720703,149.234375 L135.720703,149.234375 L136.322266,147.894531 L135.994141,147.511719 C135.283203,147.867188 134.708984,148.101888 134.271484,148.21582 C133.833984,148.329753 133.355469,148.386719 132.835938,148.386719 C131.632812,148.386719 130.621094,147.969727 129.800781,147.135742 C128.980469,146.301758 128.533854,145.164714 128.460938,143.724609 L128.460938,143.724609 L129.363281,143.724609 C129.509115,143.724609 129.641276,143.720052 129.759766,143.710938 C129.878255,143.701823 130.498047,143.692708 131.619141,143.683594 C132.740234,143.674479 133.642578,143.642578 134.326172,143.587891 C134.544922,143.578776 134.964193,143.514974 135.583984,143.396484 C136.048828,143.305339 136.395182,143.223307 136.623047,143.150391 C136.641276,142.913411 136.650391,142.667318 136.650391,142.412109 C136.650391,141.281901 136.488607,140.320312 136.165039,139.527344 C135.841471,138.734375 135.28776,138.082682 134.503906,137.572266 C133.720052,137.061849 132.717448,136.806641 131.496094,136.806641 C130.630208,136.806641 129.878255,136.947917 129.240234,137.230469 C128.89388,137.385417 128.337891,137.713542 127.572266,138.214844 C126.806641,138.716146 126.332682,139.057943 126.150391,139.240234 C125.858724,139.531901 125.603516,140.005859 125.384766,140.662109 C125.065755,141.600911 124.90625,142.667318 124.90625,143.861328 C124.90625,144.681641 124.988281,145.438151 125.152344,146.130859 C125.316406,146.823568 125.583008,147.434245 125.952148,147.962891 C126.321289,148.491536 126.749674,148.938151 127.237305,149.302734 C127.724935,149.667318 128.312826,149.954427 129.000977,150.164062 C129.689128,150.373698 130.484375,150.478516 131.386719,150.478516 Z M131.058594,142.357422 C129.800781,142.357422 128.902995,142.316406 128.365234,142.234375 C128.328776,140.839844 128.547526,139.83724 129.021484,139.226562 C129.486328,138.625 130.074219,138.324219 130.785156,138.324219 C131.477865,138.324219 132.042969,138.611328 132.480469,139.185547 C132.908854,139.76888 133.104818,140.785156 133.068359,142.234375 C132.530599,142.316406 131.860677,142.357422 131.058594,142.357422 Z M143.089844,150.478516 C144.994792,150.478516 146.473633,150.013672 147.526367,149.083984 C148.579102,148.154297 149.105469,147.010417 149.105469,145.652344 C149.105469,145.132812 149.025716,144.656576 148.866211,144.223633 C148.706706,143.79069 148.476562,143.428385 148.175781,143.136719 C147.875,142.845052 147.473958,142.603516 146.972656,142.412109 C146.626302,142.284505 145.949544,142.127279 144.942383,141.94043 C143.935221,141.753581 143.244792,141.600911 142.871094,141.482422 C142.497396,141.363932 142.214844,141.186198 142.023438,140.949219 C141.832031,140.71224 141.736328,140.347656 141.736328,139.855469 C141.736328,139.372396 141.948242,138.957682 142.37207,138.611328 C142.795898,138.264974 143.395182,138.091797 144.169922,138.091797 C144.725911,138.091797 145.211263,138.182943 145.625977,138.365234 C146.04069,138.547526 146.389323,138.820964 146.671875,139.185547 C146.753906,139.568359 146.808594,139.964844 146.835938,140.375 C146.854167,140.611979 146.867839,140.780599 146.876953,140.880859 L146.876953,140.880859 L147.929688,140.894531 C147.984375,139.673177 148.025391,138.898438 148.052734,138.570312 C148.080078,138.242188 148.121094,137.91862 148.175781,137.599609 L148.175781,137.599609 L148.134766,137.462891 C147.633464,137.207682 147.072917,137.016276 146.453125,136.888672 C145.833333,136.761068 145.154297,136.697266 144.416016,136.697266 C142.638672,136.697266 141.276042,137.114258 140.328125,137.948242 C139.380208,138.782227 138.90625,139.828125 138.90625,141.085938 C138.90625,141.78776 139.052083,142.400716 139.34375,142.924805 C139.635417,143.448893 140.041016,143.843099 140.560547,144.107422 C141.080078,144.371745 141.843424,144.613281 142.850586,144.832031 C143.857747,145.050781 144.539062,145.223958 144.894531,145.351562 C145.35026,145.561198 145.65332,145.791341 145.803711,146.041992 C145.954102,146.292643 146.029297,146.609375 146.029297,146.992188 C146.029297,147.575521 145.801432,148.072266 145.345703,148.482422 C144.889974,148.892578 144.233724,149.097656 143.376953,149.097656 C142.738932,149.097656 142.173828,148.976888 141.681641,148.735352 C141.189453,148.493815 140.738281,148.122396 140.328125,147.621094 C140.282552,147.356771 140.236979,146.714193 140.191406,145.693359 L140.191406,145.693359 L139.097656,145.693359 L139.015625,147.990234 C138.997396,148.281901 138.951823,148.778646 138.878906,149.480469 L138.878906,149.480469 L139.029297,149.685547 C139.895182,149.986328 140.628906,150.193685 141.230469,150.307617 C141.832031,150.421549 142.451823,150.478516 143.089844,150.478516 Z M154.751953,134.400391 C155.335286,134.400391 155.829753,134.195312 156.235352,133.785156 C156.640951,133.375 156.84375,132.878255 156.84375,132.294922 C156.84375,131.720703 156.640951,131.228516 156.235352,130.818359 C155.829753,130.408203 155.335286,130.203125 154.751953,130.203125 C154.16862,130.203125 153.674154,130.408203 153.268555,130.818359 C152.862956,131.228516 152.660156,131.720703 152.660156,132.294922 C152.660156,132.878255 152.865234,133.375 153.275391,133.785156 C153.685547,134.195312 154.177734,134.400391 154.751953,134.400391 Z M158.703125,150 L158.703125,148.933594 C157.755208,148.897135 157.158203,148.819661 156.912109,148.701172 C156.802734,148.646484 156.729818,148.537109 156.693359,148.373047 C156.620443,148.08138 156.583984,147.142578 156.583984,145.556641 L156.583984,145.556641 L156.583984,140.908203 C156.583984,139.659505 156.638672,138.324219 156.748047,136.902344 L156.748047,136.902344 L156.419922,136.724609 C155.590495,137.061849 154.82487,137.3125 154.123047,137.476562 C153.421224,137.640625 152.382161,137.795573 151.005859,137.941406 L151.005859,137.941406 L151.005859,138.980469 C152.063151,138.989583 152.682943,139.053385 152.865234,139.171875 C152.947266,139.226562 153.00651,139.345052 153.042969,139.527344 C153.125,139.919271 153.166016,141.541667 153.166016,144.394531 C153.166016,146.472656 153.120443,147.76237 153.029297,148.263672 C152.992839,148.500651 152.901693,148.662435 152.755859,148.749023 C152.610026,148.835612 152.026693,148.915365 151.005859,148.988281 L151.005859,148.988281 L151.005859,150 C152.008464,149.963542 153.166016,149.945312 154.478516,149.945312 C156.000651,149.945312 157.408854,149.963542 158.703125,150 L158.703125,150 Z M166.591797,157.287109 C168.469401,157.287109 170.08724,156.917969 171.445312,156.179688 C172.520833,155.58724 173.327474,154.830729 173.865234,153.910156 C174.402995,152.989583 174.671875,151.959635 174.671875,150.820312 C174.671875,150.054688 174.539714,149.439453 174.275391,148.974609 C174.011068,148.509766 173.610026,148.163411 173.072266,147.935547 C172.534505,147.707682 171.773438,147.59375 170.789062,147.59375 L170.789062,147.59375 L167.425781,147.675781 C166.222656,147.675781 165.470703,147.64388 165.169922,147.580078 C164.951172,147.534505 164.780273,147.438802 164.657227,147.292969 C164.53418,147.147135 164.472656,146.992188 164.472656,146.828125 C164.472656,146.636719 164.545573,146.429362 164.691406,146.206055 C164.83724,145.982747 165.051432,145.789062 165.333984,145.625 C165.844401,145.670573 166.240885,145.693359 166.523438,145.693359 C167.580729,145.693359 168.581055,145.492839 169.524414,145.091797 C170.467773,144.690755 171.199219,144.116536 171.71875,143.369141 C172.238281,142.621745 172.498047,141.760417 172.498047,140.785156 C172.498047,140.356771 172.438802,139.914714 172.320312,139.458984 L172.320312,139.458984 L174.480469,139.458984 L174.671875,137.777344 C173.459635,137.832031 172.716797,137.859375 172.443359,137.859375 C172.242839,137.859375 171.878255,137.845703 171.349609,137.818359 C170.857422,137.435547 170.249023,137.146159 169.524414,136.950195 C168.799805,136.754232 168.009115,136.65625 167.152344,136.65625 C165.876302,136.65625 164.762044,136.879557 163.80957,137.326172 C162.857096,137.772786 162.157552,138.37207 161.710938,139.124023 C161.264323,139.875977 161.041016,140.684896 161.041016,141.550781 C161.041016,142.188802 161.161784,142.772135 161.40332,143.300781 C161.644857,143.829427 161.968424,144.255534 162.374023,144.579102 C162.779622,144.902669 163.319661,145.1875 163.994141,145.433594 L163.994141,145.433594 L162.09375,146.814453 C161.966146,147.051432 161.838542,147.370443 161.710938,147.771484 C161.619792,148.054036 161.574219,148.309245 161.574219,148.537109 C161.574219,148.95638 161.751953,149.330078 162.107422,149.658203 C162.499349,149.958984 162.941406,150.136719 163.433594,150.191406 C163.333333,150.236979 162.845703,150.505859 161.970703,150.998047 C161.514974,151.26237 161.209635,151.472005 161.054688,151.626953 C160.89974,151.781901 160.763021,152.014323 160.644531,152.324219 C160.526042,152.634115 160.466797,152.980469 160.466797,153.363281 C160.466797,154.028646 160.653646,154.64388 161.027344,155.208984 C161.401042,155.774089 162.052734,156.261719 162.982422,156.671875 C163.912109,157.082031 165.115234,157.287109 166.591797,157.287109 Z M166.837891,144.421875 C166.136068,144.421875 165.566406,144.152995 165.128906,143.615234 C164.691406,143.077474 164.472656,142.179688 164.472656,140.921875 C164.472656,139.891927 164.675456,139.144531 165.081055,138.679688 C165.486654,138.214844 166.035807,137.982422 166.728516,137.982422 C167.457682,137.982422 168.027344,138.23763 168.4375,138.748047 C168.847656,139.258464 169.052734,140.151693 169.052734,141.427734 C169.052734,142.339193 168.906901,143.022786 168.615234,143.478516 C168.205078,144.107422 167.61263,144.421875 166.837891,144.421875 Z M167.152344,155.878906 C165.794271,155.878906 164.775716,155.600911 164.09668,155.044922 C163.417643,154.488932 163.078125,153.796224 163.078125,152.966797 C163.078125,152.474609 163.203451,152.030273 163.454102,151.633789 C163.704753,151.237305 164.203776,150.802083 164.951172,150.328125 C165.461589,150.31901 165.876302,150.314453 166.195312,150.314453 L166.786657,150.314926 C168.199259,150.317292 169.118681,150.328527 169.544922,150.348633 C170.027995,150.371419 170.40625,150.458008 170.679688,150.608398 C170.953125,150.758789 171.165039,150.963867 171.31543,151.223633 C171.46582,151.483398 171.541016,151.859375 171.541016,152.351562 C171.541016,153.372396 171.165039,154.215495 170.413086,154.880859 C169.661133,155.546224 168.574219,155.878906 167.152344,155.878906 Z M191.488281,150 L191.488281,148.947266 C191.132812,148.910807 190.877604,148.888021 190.722656,148.878906 C190.303385,148.851562 190.032227,148.785482 189.90918,148.680664 C189.786133,148.575846 189.704102,148.341146 189.663086,147.976562 C189.62207,147.611979 189.597005,146.659505 189.587891,145.119141 L189.587891,145.119141 L189.574219,143.710938 C189.574219,143.55599 189.578776,143.423828 189.587891,143.314453 C189.60612,143.031901 189.615234,142.371094 189.615234,141.332031 C189.615234,140.411458 189.546875,139.734701 189.410156,139.301758 C189.273438,138.868815 189.036458,138.454102 188.699219,138.057617 C188.361979,137.661133 187.949544,137.353516 187.461914,137.134766 C186.974284,136.916016 186.242839,136.806641 185.267578,136.806641 C184.902995,136.806641 184.618164,136.827148 184.413086,136.868164 C184.208008,136.90918 183.955078,136.988932 183.654297,137.107422 L183.654297,137.107422 L181.166016,139.103516 L181.166016,136.902344 L180.796875,136.738281 C180.140625,137.039062 179.552734,137.257812 179.033203,137.394531 C178.513672,137.53125 177.424479,137.740885 175.765625,138.023438 L175.765625,138.023438 L175.765625,139.076172 C176.622396,139.103516 177.13737,139.149089 177.310547,139.212891 C177.419922,139.249349 177.499674,139.306315 177.549805,139.383789 C177.599935,139.461263 177.638672,139.791667 177.666016,140.375 C177.720703,141.532552 177.748047,142.516927 177.748047,143.328125 L177.748047,143.328125 L177.748047,145.119141 C177.748047,145.693359 177.74349,146.108073 177.734375,146.363281 L177.734375,146.363281 L177.679688,147.580078 C177.670573,148.063151 177.620443,148.391276 177.529297,148.564453 C177.465495,148.673828 177.369792,148.751302 177.242188,148.796875 C176.96875,148.897135 176.476562,148.947266 175.765625,148.947266 L175.765625,148.947266 L175.765625,150 C176.686198,149.963542 177.980469,149.945312 179.648438,149.945312 L180.120202,149.945988 C181.356184,149.949588 182.415726,149.967593 183.298828,150 L183.298828,150 L183.298828,148.947266 C182.642578,148.892578 182.259766,148.85612 182.150391,148.837891 C181.83138,148.774089 181.617188,148.705729 181.507812,148.632812 C181.434896,148.58724 181.375651,148.514323 181.330078,148.414062 C181.266276,148.277344 181.229818,147.994792 181.220703,147.566406 C181.184245,146.60026 181.166016,145.784505 181.166016,145.119141 L181.166016,142.822266 C181.156901,141.546224 181.184245,140.817057 181.248047,140.634766 C181.357422,140.32487 181.621745,140.017253 182.041016,139.711914 C182.460286,139.406576 182.988932,139.253906 183.626953,139.253906 C184.264974,139.253906 184.775391,139.406576 185.158203,139.711914 C185.541016,140.017253 185.793945,140.420573 185.916992,140.921875 C186.040039,141.423177 186.101562,142.471354 186.101562,144.066406 L186.101562,144.066406 L186.101562,145.146484 L186.033203,147.388672 C185.932943,148.774089 185.873698,149.5625 185.855469,149.753906 L185.855469,149.753906 L186.101562,150 C186.766927,149.936198 187.550781,149.904297 188.453125,149.904297 C189.236979,149.904297 190.248698,149.936198 191.488281,150 L191.488281,150 Z" id="full-stackproductdesign" fill="#E8BE4F"></path>
            </g>
        </g>
    </g>
</svg>