<?xml version="1.0" encoding="UTF-8"?>
<svg width="275px" height="101px" viewBox="0 0 275 101" version="1.1" xmlns="http://www.w3.org/2000/svg" xmlns:xlink="http://www.w3.org/1999/xlink">
    <title>lockup-mobile</title>
    <g id="Home-2.0" stroke="none" stroke-width="1" fill="none" fill-rule="evenodd">
        <g id="Mobile-Copy" transform="translate(-20.000000, -321.000000)" fill-rule="nonzero">
            <g id="lockup-mobile" transform="translate(20.000000, 321.000000)">
                <path d="M10.5908096,32 C13.4792123,32 15.7695113,31.3247706 17.4617068,29.9743119 C19.1539023,28.6238532 20,26.8036697 20,24.5137615 C20,23.5449541 19.8395332,22.7082569 19.5185996,22.0036697 C19.1976659,21.2990826 18.6870897,20.6752294 17.9868709,20.1321101 C17.2866521,19.5889908 16.3749088,19.0972477 15.2516411,18.6568807 C14.1283735,18.2165138 12.7498177,17.7761468 11.1159737,17.3357798 C9.56965718,16.9541284 8.51203501,16.6018349 7.94310722,16.2788991 C7.37417943,15.9559633 7.08971554,15.4715596 7.08971554,14.8256881 C7.08971554,14.1504587 7.35229759,13.6587156 7.87746171,13.3504587 C8.40262582,13.0422018 9.04449307,12.8880734 9.80306346,12.8880734 C10.7658643,12.8880734 11.757841,13.093578 12.7789934,13.5045872 C13.8001459,13.9155963 14.9671772,14.5761468 16.2800875,15.4862385 L16.2800875,15.4862385 L18.9934354,11.2587156 C17.5929978,10.0256881 16.1415026,9.17431193 14.6389497,8.70458716 C13.1363968,8.23486239 11.5244347,8 9.80306346,8 C8.49015317,8 7.27206419,8.19082569 6.1487965,8.57247706 C5.02552881,8.95412844 4.05543399,9.48256881 3.23851204,10.1577982 C2.42159008,10.8330275 1.77972283,11.6550459 1.31291028,12.6238532 C0.846097739,13.5926606 0.612691466,14.6642202 0.612691466,15.8385321 C0.612691466,16.7192661 0.758570387,17.4825688 1.05032823,18.1284404 C1.34208607,18.7743119 1.82348651,19.346789 2.49452954,19.8458716 C3.16557257,20.3449541 4.03355215,20.8 5.09846827,21.2110092 C6.16338439,21.6220183 7.46900073,22.0477064 9.01531729,22.4880734 C10.5908096,22.8990826 11.6921955,23.2880734 12.3194748,23.6550459 C12.9467542,24.0220183 13.2603939,24.5137615 13.2603939,25.1302752 C13.2603939,25.746789 13.0123997,26.2165138 12.5164114,26.5394495 C12.020423,26.8623853 11.3202042,27.0238532 10.4157549,27.0238532 C9.19037199,27.0238532 7.91393144,26.759633 6.58643326,26.2311927 C5.25893508,25.7027523 3.89496718,24.9541284 2.49452954,23.9853211 L2.49452954,23.9853211 L0,28.3009174 C1.31291028,29.5045872 2.91757841,30.4220183 4.81400438,31.053211 C6.71043034,31.6844037 8.63603209,32 10.5908096,32 Z M31.6818182,32 C32.9848485,32 34.280303,31.8233618 35.5681818,31.4700855 C36.8560606,31.1168091 38,30.7340931 39,30.3219373 L39,30.3219373 L37.5909091,24.7136752 C37.1666667,24.9197531 36.6666667,25.1111111 36.0909091,25.2877493 C35.5151515,25.4643875 34.9545455,25.5527066 34.4090909,25.5527066 C33.8030303,25.5527066 33.3030303,25.3834283 32.9090909,25.0448718 C32.5151515,24.7063153 32.3181818,24.154321 32.3181818,23.3888889 L32.3181818,23.3888889 L32.3181818,13.7179487 L37.1818182,13.7179487 L37.1818182,8.37464387 L32.3181818,8.37464387 L32.3181818,1 L25.0454545,1 L25.0454545,8.37464387 L22,8.37464387 L22,13.7179487 L25.0454545,13.7179487 L25.0454545,25.8176638 C25.0454545,26.9363723 25.219697,27.8931624 25.5681818,28.6880342 C25.9166667,29.482906 26.3939394,30.1232194 27,30.6089744 C27.6060606,31.0947293 28.3106061,31.4480057 29.1136364,31.6688034 C29.9166667,31.8896011 30.7727273,32 31.6818182,32 Z M52.544484,32 C55.2431791,32 57.5563464,31.4275229 59.4839858,30.2825688 C61.4116251,29.1376147 62.8351127,27.6550459 63.7544484,25.8348624 L63.7544484,25.8348624 L57.7046263,24.1614679 C57.3784104,25.012844 56.7333926,25.6880734 55.769573,26.187156 C54.8057533,26.6862385 53.8048636,26.9357798 52.7669039,26.9357798 C51.4620403,26.9357798 50.2980427,26.5321101 49.274911,25.7247706 C48.2517794,24.9174312 47.6809015,23.7357798 47.5622776,22.1798165 L47.5622776,22.1798165 L64.8220641,22.1798165 C64.881376,21.8862385 64.92586,21.5412844 64.955516,21.1449541 C64.985172,20.7486239 65,20.3449541 65,19.933945 C65,18.3486239 64.7256821,16.8366972 64.1770463,15.3981651 C63.6284104,13.959633 62.8202847,12.6899083 61.752669,11.5889908 C60.6850534,10.4880734 59.3801898,9.6146789 57.8380783,8.96880734 C56.2959668,8.32293578 54.5314353,8 52.544484,8 C50.5575326,8 48.7855872,8.32293578 47.2286477,8.96880734 C45.6717082,9.6146789 44.3594306,10.4954128 43.2918149,11.6110092 C42.2241993,12.7266055 41.4086595,14.0256881 40.8451957,15.5082569 C40.2817319,16.9908257 40,18.5688073 40,20.2422018 C40,21.7981651 40.2817319,23.2880734 40.8451957,24.7119266 C41.4086595,26.1357798 42.2316133,27.3908257 43.3140569,28.4770642 C44.3965006,29.5633028 45.7161922,30.4220183 47.2731317,31.053211 C48.8300712,31.6844037 50.5871886,32 52.544484,32 Z M57,18 L47,18 C47.1474926,16.4876543 47.6710914,15.2762346 48.5707965,14.3657407 C49.4705015,13.4552469 50.6135693,13 52,13 C53.3569322,13 54.4926254,13.4475309 55.4070796,14.3425926 C56.3215339,15.2376543 56.8525074,16.4567901 57,18 L57,18 Z M80.853211,32 L89,9 L82.4385321,9 L77.3302752,26.392381 L72.266055,9 L65,9 L73.1908257,32 L80.853211,32 Z M102.544484,32 C105.243179,32 107.556346,31.4275229 109.483986,30.2825688 C111.411625,29.1376147 112.835113,27.6550459 113.754448,25.8348624 L113.754448,25.8348624 L107.704626,24.1614679 C107.37841,25.012844 106.733393,25.6880734 105.769573,26.187156 C104.805753,26.6862385 103.804864,26.9357798 102.766904,26.9357798 C101.46204,26.9357798 100.298043,26.5321101 99.274911,25.7247706 C98.2517794,24.9174312 97.6809015,23.7357798 97.5622776,22.1798165 L97.5622776,22.1798165 L114.822064,22.1798165 C114.881376,21.8862385 114.92586,21.5412844 114.955516,21.1449541 C114.985172,20.7486239 115,20.3449541 115,19.933945 C115,18.3486239 114.725682,16.8366972 114.177046,15.3981651 C113.62841,13.959633 112.820285,12.6899083 111.752669,11.5889908 C110.685053,10.4880734 109.38019,9.6146789 107.838078,8.96880734 C106.295967,8.32293578 104.531435,8 102.544484,8 C100.557533,8 98.7855872,8.32293578 97.2286477,8.96880734 C95.6717082,9.6146789 94.3594306,10.4954128 93.2918149,11.6110092 C92.2241993,12.7266055 91.4086595,14.0256881 90.8451957,15.5082569 C90.2817319,16.9908257 90,18.5688073 90,20.2422018 C90,21.7981651 90.2817319,23.2880734 90.8451957,24.7119266 C91.4086595,26.1357798 92.2316133,27.3908257 93.3140569,28.4770642 C94.3965006,29.5633028 95.7161922,30.4220183 97.2731317,31.053211 C98.8300712,31.6844037 100.587189,32 102.544484,32 Z M107,18 L97,18 C97.1474926,16.4876543 97.6710914,15.2762346 98.5707965,14.3657407 C99.4705015,13.4552469 100.613569,13 102,13 C103.356932,13 104.492625,13.4475309 105.40708,14.3425926 C106.321534,15.2376543 106.852507,16.4567901 107,18 L107,18 Z M135.207207,32 L135.207207,17.8161351 C135.837838,16.7354597 136.858859,15.9249531 138.27027,15.3846154 C139.681682,14.8442777 141.258258,14.5590994 143,14.5290807 L143,14.5290807 L143,8.04502814 C142.84985,8.01500938 142.6997,8 142.54955,8 L142.54955,8 L141.828829,8 C140.387387,8.03001876 139.028529,8.49530957 137.752252,9.39587242 C136.475976,10.2964353 135.432432,11.5422139 134.621622,13.1332083 L134.621622,13.1332083 L134.621622,8.36022514 L128,8.36022514 L128,32 L135.207207,32 Z M156.5,32 C158.486951,32 160.258897,31.6770642 161.815836,31.0311927 C163.372776,30.3853211 164.685053,29.5119266 165.752669,28.4110092 C166.820285,27.3100917 167.62841,26.0330275 168.177046,24.5798165 C168.725682,23.1266055 169,21.6073394 169,20.0220183 C169,18.4366972 168.718268,16.9174312 168.154804,15.4642202 C167.59134,14.0110092 166.775801,12.733945 165.708185,11.6330275 C164.640569,10.5321101 163.335706,9.65137615 161.793594,8.99082569 C160.251483,8.33027523 158.486951,8 156.5,8 C154.513049,8 152.741103,8.33027523 151.184164,8.99082569 C149.627224,9.65137615 148.314947,10.5321101 147.247331,11.6330275 C146.179715,12.733945 145.37159,14.0110092 144.822954,15.4642202 C144.274318,16.9174312 144,18.4366972 144,20.0220183 C144,21.6073394 144.274318,23.1266055 144.822954,24.5798165 C145.37159,26.0330275 146.179715,27.3100917 147.247331,28.4110092 C148.314947,29.5119266 149.627224,30.3853211 151.184164,31.0311927 C152.741103,31.6770642 154.513049,32 156.5,32 Z M156.021459,26 C154.562232,26 153.360515,25.4525547 152.416309,24.3576642 C151.472103,23.2627737 151,21.810219 151,20 C151,19.1240876 151.128755,18.3138686 151.386266,17.5693431 C151.643777,16.8248175 151.994278,16.189781 152.437768,15.6642336 C152.881259,15.1386861 153.410587,14.729927 154.025751,14.4379562 C154.640916,14.1459854 155.306152,14 156.021459,14 C157.452074,14 158.639485,14.5474453 159.583691,15.6423358 C160.527897,16.7372263 161,18.189781 161,20 C161,20.8759124 160.871245,21.6861314 160.613734,22.4306569 C160.356223,23.1751825 160.005722,23.810219 159.562232,24.3357664 C159.118741,24.8613139 158.596567,25.270073 157.995708,25.5620438 C157.39485,25.8540146 156.736767,26 156.021459,26 Z M180.036329,32 L180.036329,25.2931507 L182.499044,22.7506849 L188.523901,32 L196,32 L186.984704,18.8931507 L195.296367,8.98630137 L187.820268,8.98630137 L180.036329,18.5424658 L180.036329,0 L173,0 L173,32 L180.036329,32 Z M205,6 L205,0 L198,0 L198,6 L205,6 Z M205,32 L205,9 L198,9 L198,32 L205,32 Z M217.681818,32 C218.984848,32 220.280303,31.8233618 221.568182,31.4700855 C222.856061,31.1168091 224,30.7340931 225,30.3219373 L225,30.3219373 L223.590909,24.7136752 C223.166667,24.9197531 222.666667,25.1111111 222.090909,25.2877493 C221.515152,25.4643875 220.954545,25.5527066 220.409091,25.5527066 C219.80303,25.5527066 219.30303,25.3834283 218.909091,25.0448718 C218.515152,24.7063153 218.318182,24.154321 218.318182,23.3888889 L218.318182,23.3888889 L218.318182,13.7179487 L223.181818,13.7179487 L223.181818,8.37464387 L218.318182,8.37464387 L218.318182,1 L211.045455,1 L211.045455,8.37464387 L208,8.37464387 L208,13.7179487 L211.045455,13.7179487 L211.045455,25.8176638 C211.045455,26.9363723 211.219697,27.8931624 211.568182,28.6880342 C211.916667,29.482906 212.393939,30.1232194 213,30.6089744 C213.606061,31.0947293 214.310606,31.4480057 215.113636,31.6688034 C215.916667,31.8896011 216.772727,32 217.681818,32 Z M235.036329,32 L235.036329,25.2931507 L237.499044,22.7506849 L243.523901,32 L251,32 L241.984704,18.8931507 L250.296367,8.98630137 L242.820268,8.98630137 L235.036329,18.5424658 L235.036329,0 L228,0 L228,32 L235.036329,32 Z M259.134078,32 C260.743017,32 262.270019,31.6477064 263.715084,30.9431193 C265.160149,30.2385321 266.404097,29.2256881 267.446927,27.9045872 L267.446927,27.9045872 L267.581006,28.9614679 C267.759777,29.9009174 268.191806,30.6275229 268.877095,31.1412844 C269.562384,31.6550459 270.575419,31.9119266 271.916201,31.9119266 C272.333333,31.9119266 272.795158,31.8899083 273.301676,31.8458716 C273.808194,31.8018349 274.374302,31.706422 275,31.559633 L275,31.559633 L275,25.6146789 C274.433892,25.5559633 274.039106,25.387156 273.815642,25.1082569 C273.592179,24.8293578 273.480447,24.3376147 273.480447,23.6330275 L273.480447,23.6330275 L273.480447,17.6880734 C273.480447,14.5174312 272.512104,12.1100917 270.575419,10.466055 C268.638734,8.82201835 265.897579,8 262.351955,8 C260.47486,8 258.702048,8.24954128 257.03352,8.74862385 C255.364991,9.24770642 253.756052,9.99633028 252.206704,10.9944954 L252.206704,10.9944954 L254.307263,15.3981651 C255.588454,14.546789 256.810056,13.9082569 257.972067,13.4825688 C259.134078,13.0568807 260.35568,12.8440367 261.636872,12.8440367 C264.765363,12.8440367 266.329609,14.1798165 266.329609,16.8513761 L266.329609,16.8513761 L266.329609,17.9082569 C265.64432,17.5853211 264.839851,17.3431193 263.916201,17.1816514 C262.992551,17.0201835 262.039106,16.9394495 261.055866,16.9394495 C259.566108,16.9394495 258.210428,17.1302752 256.988827,17.5119266 C255.767225,17.893578 254.709497,18.4220183 253.815642,19.0972477 C252.921788,19.7724771 252.22905,20.5798165 251.73743,21.5192661 C251.24581,22.4587156 251,23.5009174 251,24.6458716 C251,25.7027523 251.208566,26.6788991 251.625698,27.5743119 C252.042831,28.4697248 252.608939,29.2477064 253.324022,29.9082569 C254.039106,30.5688073 254.895717,31.0825688 255.893855,31.4495413 C256.891993,31.8165138 257.972067,32 259.134078,32 Z M261.65625,27 C260.59375,27 259.71875,26.7318841 259.03125,26.1956522 C258.34375,25.6594203 258,24.9710145 258,24.1304348 C258,23.2028986 258.445312,22.4492754 259.335938,21.8695652 C260.226562,21.2898551 261.359375,21 262.734375,21 C263.390625,21 264.101562,21.0652174 264.867188,21.1956522 C265.632812,21.326087 266.34375,21.5072464 267,21.7391304 L267,21.7391304 L267,23.9130435 C267,24.4927536 266.640625,25.0434783 265.921875,25.5652174 C265.421875,26 264.789062,26.3478261 264.023438,26.6086957 C263.257812,26.8695652 262.46875,27 261.65625,27 Z" id="steverokitka" fill="#AFAFAF"></path>
                <path d="M12.3652344,61 L12.3652344,59.9472656 C11.1803385,59.8561198 10.5605469,59.8059896 10.5058594,59.796875 C10.2871094,59.7604167 10.1298828,59.7011719 10.0341797,59.6191406 C9.93847656,59.5371094 9.86783854,59.4322917 9.82226562,59.3046875 C9.76757812,59.1223958 9.72884115,58.5891927 9.70605469,57.7050781 C9.68326823,56.8209635 9.671875,55.891276 9.671875,54.9160156 L9.671875,54.9160156 L9.671875,50.5546875 C10.4648438,50.5273438 10.9433594,50.5136719 11.1074219,50.5136719 C11.1621094,50.5136719 11.389974,50.5227865 11.7910156,50.5410156 L11.7910156,50.5410156 L13.171875,50.5683594 L13.390625,49.3515625 C13.4179688,49.1875 13.4544271,49.0279948 13.5,48.8730469 L13.5,48.8730469 L13.3222656,48.7363281 C12.7480469,48.781901 12.0690104,48.8138021 11.2851562,48.8320312 L11.2851562,48.8320312 L9.671875,48.8457031 L9.671875,46.9453125 C9.671875,45.4869792 9.7265625,44.5755208 9.8359375,44.2109375 C9.90885417,43.9648438 10.0546875,43.7688802 10.2734375,43.6230469 C10.5833333,43.422526 11.0026042,43.3222656 11.53125,43.3222656 C11.8958333,43.3222656 12.1966146,43.3701172 12.4335938,43.4658203 C12.6705729,43.5615234 12.9257812,43.7369792 13.1992188,43.9921875 L13.1992188,43.9921875 L13.7460938,43.7460938 C13.7278646,42.9075521 13.7916667,41.9960938 13.9375,41.0117188 C13.4270833,40.8476562 12.9485677,40.765625 12.5019531,40.765625 C12.0644531,40.765625 11.672526,40.8317057 11.3261719,40.9638672 C10.9798177,41.0960286 10.6744792,41.2760417 10.4101562,41.5039062 L10.4101562,41.5039062 L8.75585938,42.9804688 C7.72591146,43.8736979 7.06054688,44.5208333 6.75976562,44.921875 C6.57747396,45.1679688 6.4453125,45.4231771 6.36328125,45.6875 C6.28125,45.9518229 6.21972656,46.4007161 6.17871094,47.0341797 C6.13769531,47.6676432 6.1171875,48.1985677 6.1171875,48.6269531 C6.1171875,48.7636719 6.05794271,48.8730469 5.93945312,48.9550781 C5.89388021,48.9915365 5.26497396,49.3242188 4.05273438,49.953125 L4.05273438,49.953125 L4.05273438,50.6230469 L5.91210938,50.5410156 L6.29492188,50.5546875 L6.29492188,54.65625 C6.27669271,57.1536458 6.23567708,58.6393229 6.171875,59.1132812 C6.14453125,59.3776042 6.05338542,59.5598958 5.8984375,59.6601562 C5.69791667,59.7877604 5.05989583,59.8880208 3.984375,59.9609375 L3.984375,59.9609375 L3.984375,61 C5.88932292,60.9544271 7.12890625,60.9316406 7.703125,60.9316406 L7.703125,60.9316406 L12.3652344,61 Z M20.5410156,61.3691406 C21.1790365,61.3691406 21.8125,61.2552083 22.4414062,61.0273438 L22.4414062,61.0273438 L23.9863281,59.5644531 C24.250651,59.327474 24.5605469,59.0677083 24.9160156,58.7851562 C24.9160156,59.3138021 24.9114583,59.6647135 24.9023438,59.8378906 L24.9023438,59.8378906 L24.8203125,60.890625 L24.9160156,61 L27.5,60.9316406 L30.3164062,61 L30.3164062,59.90625 C29.3684896,59.8606771 28.8079427,59.7923177 28.6347656,59.7011719 C28.5345052,59.6373698 28.4661458,59.5234375 28.4296875,59.359375 C28.3476562,58.9674479 28.3066406,57.9375 28.3066406,56.2695312 L28.3066406,56.2695312 L28.3069436,53.4271447 C28.3105793,53.1499199 28.3469367,52.1650905 28.4160156,50.4726562 L28.4160156,50.4726562 L28.5664062,47.9570312 L28.3066406,47.8066406 C27.0852865,48.1985677 26.219401,48.4492188 25.7089844,48.5585938 C25.1985677,48.6679688 24.2369792,48.8138021 22.8242188,48.9960938 L22.8242188,48.9960938 L22.8242188,50.0351562 C23.7994792,50.0898438 24.3554688,50.139974 24.4921875,50.1855469 C24.6289062,50.2311198 24.7200521,50.2949219 24.765625,50.3769531 C24.8476562,50.5045573 24.8886719,50.8828125 24.8886719,51.5117188 L24.8886719,51.5117188 L24.9160156,53.453125 L24.9160156,55.7910156 C24.9160156,56.5384115 24.8613281,57.030599 24.7519531,57.2675781 C24.578776,57.6321615 24.2688802,57.9853516 23.8222656,58.3271484 C23.375651,58.6689453 22.8242188,58.8398438 22.1679688,58.8398438 C21.59375,58.8398438 21.1334635,58.6940104 20.7871094,58.4023438 C20.4407552,58.1106771 20.2220052,57.6777344 20.1308594,57.1035156 C20.0670573,56.6660156 20.0351562,55.7955729 20.0351562,54.4921875 L20.0351562,52.9609375 C20.0351562,51.4296875 20.0989583,49.7617188 20.2265625,47.9570312 L20.2265625,47.9570312 L20.0351562,47.8066406 C18.7955729,48.2259115 17.7792969,48.5175781 16.9863281,48.6816406 C16.1933594,48.8457031 15.4049479,48.9505208 14.6210938,48.9960938 L14.6210938,48.9960938 L14.6210938,50.0351562 C15.5052083,50.0716146 16.0247396,50.1217448 16.1796875,50.1855469 C16.3346354,50.249349 16.4462891,50.3450521 16.5146484,50.4726562 C16.5830078,50.6002604 16.6171875,50.9283854 16.6171875,51.4570312 L16.6171875,51.4570312 L16.6445312,54.3417969 C16.6445312,55.0800781 16.639974,55.6816406 16.6308594,56.1464844 C16.6035156,57.0214844 16.5898438,57.5273438 16.5898438,57.6640625 C16.5898438,58.7851562 16.9407552,59.6829427 17.6425781,60.3574219 C18.344401,61.031901 19.3105469,61.3691406 20.5410156,61.3691406 Z M39.5039062,61 L39.5039062,59.90625 C38.65625,59.8606771 38.1914062,59.828776 38.109375,59.8105469 C37.9088542,59.7740885 37.7675781,59.7239583 37.6855469,59.6601562 C37.6217448,59.6145833 37.5761719,59.5598958 37.5488281,59.4960938 C37.5032552,59.4049479 37.4713542,59.1884766 37.453125,58.8466797 C37.4348958,58.5048828 37.4075521,57.5182292 37.3710938,55.8867188 C37.3528646,55.2304688 37.34375,54.2415365 37.34375,52.9199219 L37.34375,49.4199219 C37.3528646,47.1686198 37.3802083,45.2682292 37.4257812,43.71875 L37.4257812,43.71875 L37.5351562,40.9570312 L37.2480469,40.7929688 C36.108724,41.1484375 35.2018229,41.3968099 34.5273438,41.5380859 C33.8528646,41.679362 32.9505208,41.8092448 31.8203125,41.9277344 L31.8203125,41.9277344 L31.8203125,42.9394531 C32.5039062,42.9667969 32.9140625,42.9895833 33.0507812,43.0078125 C33.2877604,43.0442708 33.4609375,43.0989583 33.5703125,43.171875 C33.6341146,43.2083333 33.6842448,43.2584635 33.7207031,43.3222656 C33.7753906,43.4407552 33.8209635,43.8190104 33.8574219,44.4570312 C33.921224,45.6419271 33.953125,46.9498698 33.953125,48.3808594 L33.953125,48.3808594 L33.953125,52.8925781 C33.953125,54.0136719 33.9394531,55.2988281 33.9121094,56.7480469 C33.8847656,58.1972656 33.8391927,59.0585938 33.7753906,59.3320312 C33.7480469,59.4778646 33.7001953,59.5849609 33.6318359,59.6533203 C33.5634766,59.7216797 33.4609375,59.7740885 33.3242188,59.8105469 C33.1419271,59.8561198 32.6178385,59.8925781 31.7519531,59.9199219 L31.7519531,59.9199219 L31.7519531,61 C33.3014323,60.9270833 34.6959635,60.890625 35.9355469,60.890625 C37.1751302,60.890625 38.3645833,60.9270833 39.5039062,61 L39.5039062,61 Z M48.828125,61 L48.828125,59.90625 C47.9804688,59.8606771 47.515625,59.828776 47.4335938,59.8105469 C47.2330729,59.7740885 47.0917969,59.7239583 47.0097656,59.6601562 C46.9459635,59.6145833 46.9003906,59.5598958 46.8730469,59.4960938 C46.827474,59.4049479 46.7955729,59.1884766 46.7773438,58.8466797 C46.7591146,58.5048828 46.7317708,57.5182292 46.6953125,55.8867188 C46.6770833,55.2304688 46.6679688,54.2415365 46.6679688,52.9199219 L46.6679688,52.9199219 L46.6679688,49.4199219 C46.6770833,47.1686198 46.7044271,45.2682292 46.75,43.71875 L46.75,43.71875 L46.859375,40.9570312 L46.5722656,40.7929688 C45.4329427,41.1484375 44.5260417,41.3968099 43.8515625,41.5380859 C43.1770833,41.679362 42.2747396,41.8092448 41.1445312,41.9277344 L41.1445312,41.9277344 L41.1445312,42.9394531 C41.828125,42.9667969 42.2382812,42.9895833 42.375,43.0078125 C42.6119792,43.0442708 42.7851562,43.0989583 42.8945312,43.171875 C42.9583333,43.2083333 43.0084635,43.2584635 43.0449219,43.3222656 C43.0996094,43.4407552 43.1451823,43.8190104 43.1816406,44.4570312 C43.2454427,45.6419271 43.2773438,46.9498698 43.2773438,48.3808594 L43.2773438,48.3808594 L43.2773438,52.8925781 C43.2773438,54.0136719 43.2636719,55.2988281 43.2363281,56.7480469 C43.2089844,58.1972656 43.1634115,59.0585938 43.0996094,59.3320312 C43.0722656,59.4778646 43.0244141,59.5849609 42.9560547,59.6533203 C42.8876953,59.7216797 42.7851562,59.7740885 42.6484375,59.8105469 C42.4661458,59.8561198 41.9420573,59.8925781 41.0761719,59.9199219 L41.0761719,59.9199219 L41.0761719,61 C42.625651,60.9270833 44.0201823,60.890625 45.2597656,60.890625 C46.499349,60.890625 47.6888021,60.9270833 48.828125,61 L48.828125,61 Z M57.5917969,55.5996094 C57.7467448,54.843099 57.8902995,54.2711589 58.0224609,53.8837891 C58.1546224,53.4964193 58.311849,53.1432292 58.4941406,52.8242188 L58.4941406,52.8242188 L58.234375,52.5507812 L51.0292969,52.5507812 C50.9290365,53.0247396 50.7695312,53.6171875 50.5507812,54.328125 C50.4049479,54.7747396 50.2591146,55.1302083 50.1132812,55.3945312 L50.1132812,55.3945312 L50.3183594,55.5996094 L57.5917969,55.5996094 Z M64.4277344,61.4785156 C66.3326823,61.4785156 67.8115234,61.0136719 68.8642578,60.0839844 C69.9169922,59.1542969 70.4433594,58.0104167 70.4433594,56.6523438 C70.4433594,56.1328125 70.3636068,55.6565755 70.2041016,55.2236328 C70.0445964,54.7906901 69.8144531,54.4283854 69.5136719,54.1367188 C69.2128906,53.8450521 68.811849,53.6035156 68.3105469,53.4121094 C67.9641927,53.2845052 67.2874349,53.1272786 66.2802734,52.9404297 C65.273112,52.7535807 64.5826823,52.6009115 64.2089844,52.4824219 C63.8352865,52.3639323 63.5527344,52.1861979 63.3613281,51.9492188 C63.1699219,51.7122396 63.0742188,51.3476562 63.0742188,50.8554688 C63.0742188,50.3723958 63.2861328,49.9576823 63.7099609,49.6113281 C64.1337891,49.264974 64.7330729,49.0917969 65.5078125,49.0917969 C66.0638021,49.0917969 66.5491536,49.1829427 66.9638672,49.3652344 C67.3785807,49.547526 67.7272135,49.8209635 68.0097656,50.1855469 C68.0917969,50.5683594 68.1464844,50.9648438 68.1738281,51.375 C68.1920573,51.6119792 68.2057292,51.780599 68.2148438,51.8808594 L68.2148438,51.8808594 L69.2675781,51.8945312 C69.3222656,50.6731771 69.3632812,49.8984375 69.390625,49.5703125 C69.4179688,49.2421875 69.4589844,48.9186198 69.5136719,48.5996094 L69.5136719,48.5996094 L69.4726562,48.4628906 C68.9713542,48.2076823 68.4108073,48.016276 67.7910156,47.8886719 C67.171224,47.7610677 66.4921875,47.6972656 65.7539062,47.6972656 C63.9765625,47.6972656 62.6139323,48.1142578 61.6660156,48.9482422 C60.718099,49.7822266 60.2441406,50.828125 60.2441406,52.0859375 C60.2441406,52.7877604 60.389974,53.4007161 60.6816406,53.9248047 C60.9733073,54.4488932 61.3789062,54.843099 61.8984375,55.1074219 C62.4179688,55.3717448 63.1813151,55.6132812 64.1884766,55.8320312 C65.195638,56.0507812 65.8769531,56.2239583 66.2324219,56.3515625 C66.688151,56.5611979 66.9912109,56.7913411 67.1416016,57.0419922 C67.2919922,57.2926432 67.3671875,57.609375 67.3671875,57.9921875 C67.3671875,58.5755208 67.1393229,59.0722656 66.6835938,59.4824219 C66.2278646,59.8925781 65.5716146,60.0976562 64.7148438,60.0976562 C64.0768229,60.0976562 63.5117188,59.976888 63.0195312,59.7353516 C62.5273438,59.4938151 62.0761719,59.1223958 61.6660156,58.6210938 C61.6204427,58.3567708 61.5748698,57.7141927 61.5292969,56.6933594 L61.5292969,56.6933594 L60.4355469,56.6933594 L60.3535156,58.9902344 C60.3352865,59.281901 60.2897135,59.7786458 60.2167969,60.4804688 L60.2167969,60.4804688 L60.3671875,60.6855469 C61.2330729,60.9863281 61.9667969,61.1936849 62.5683594,61.3076172 C63.1699219,61.4215495 63.7897135,61.4785156 64.4277344,61.4785156 Z M77.1835938,61.2871094 C77.4752604,61.2871094 77.7600911,61.2620443 78.0380859,61.2119141 C78.3160807,61.1617839 78.6328125,61.0592448 78.9882812,60.9042969 C79.2890625,60.594401 79.639974,60.234375 80.0410156,59.8242188 L80.0410156,59.8242188 L80.5332031,59.3320312 L80.3144531,58.7714844 C80.0227865,58.8352865 79.7835286,58.8785807 79.5966797,58.9013672 C79.4098307,58.9241536 79.1614583,58.9309896 78.8515625,58.921875 C78.3411458,58.921875 77.9514974,58.8011068 77.6826172,58.5595703 C77.413737,58.3180339 77.2610677,57.9830729 77.2246094,57.5546875 C77.1972656,57.2994792 77.1835938,56.4700521 77.1835938,55.0664062 L77.1835938,50.5 L78.5097656,50.5 L79.8496094,50.5273438 C79.9407552,50.5273438 80.0410156,50.5182292 80.1503906,50.5 L80.1503906,50.5 L80.3828125,48.6542969 C79.7630208,48.7454427 78.8470052,48.7910156 77.6347656,48.7910156 L77.6347656,48.7910156 L77.1835938,48.7910156 L77.3066406,46.3984375 L77.4023438,44.8261719 L77.5390625,43.4042969 L77.1835938,43.1308594 C76.0716146,43.6503906 75.4928385,43.9192708 75.4472656,43.9375 C75.1829427,44.0377604 74.608724,44.233724 73.7246094,44.5253906 C73.797526,45.4915365 73.8339844,46.3027344 73.8339844,46.9589844 L73.8339844,46.9589844 L73.8339844,48.7910156 C73.6516927,48.936849 73.4602865,49.0735677 73.2597656,49.2011719 L73.2597656,49.2011719 L72.0292969,49.9804688 L72.0292969,50.5957031 C72.485026,50.5683594 72.9635417,50.5546875 73.4648438,50.5546875 L73.4648438,50.5546875 L73.8339844,50.5546875 L73.8339844,53.9316406 L73.7792969,58.4433594 C73.7792969,59.2545573 74.0823568,59.9313151 74.6884766,60.4736328 C75.2945964,61.0159505 76.1263021,61.2871094 77.1835938,61.2871094 Z M84.9902344,61.3554688 C85.3639323,61.3554688 85.7558594,61.3098958 86.1660156,61.21875 C87.7701823,59.9882812 88.7363281,59.2682292 89.0644531,59.0585938 L89.0644531,59.0585938 L88.9414062,60.8496094 L89.0644531,61 C89.7845052,60.9544271 90.5273438,60.9316406 91.2929688,60.9316406 C92.1041667,60.9316406 93.0338542,60.9544271 94.0820312,61 L94.0820312,61 L94.0820312,59.9746094 C93.3072917,59.9199219 92.8470052,59.8561198 92.7011719,59.7832031 C92.5917969,59.7285156 92.5188802,59.6191406 92.4824219,59.4550781 C92.391276,59.108724 92.3457031,58.124349 92.3457031,56.5019531 C92.3457031,55.9824219 92.359375,55.3125 92.3867188,54.4921875 C92.4322917,53.2617188 92.4550781,52.500651 92.4550781,52.2089844 C92.4550781,51.5253906 92.398112,50.9602865 92.2841797,50.5136719 C92.1702474,50.0670573 91.960612,49.6477865 91.6552734,49.2558594 C91.3499349,48.8639323 90.8759766,48.5244141 90.2333984,48.2373047 C89.5908203,47.9501953 88.7727865,47.8066406 87.7792969,47.8066406 C87.1686198,47.8066406 86.6946615,47.8567708 86.3574219,47.9570312 C86.1113281,48.0299479 85.6829427,48.235026 85.0722656,48.5722656 C84.4615885,48.9095052 83.8190104,49.3059896 83.1445312,49.7617188 L83.1445312,49.7617188 L83.0625,51.5253906 L83.9921875,51.7304688 L84.5664062,50.3496094 C84.7760417,50.2128906 84.9583333,50.1217448 85.1132812,50.0761719 C85.46875,49.9759115 85.8424479,49.9257812 86.234375,49.9257812 C87.2005208,49.9257812 87.9205729,50.2083333 88.3945312,50.7734375 C88.859375,51.3385417 89.0826823,52.1634115 89.0644531,53.2480469 C87.3509115,53.5397135 85.7740885,53.9407552 84.3339844,54.4511719 C83.7324219,54.6608073 83.2880859,54.8772786 83.0009766,55.1005859 C82.7138672,55.3238932 82.444987,55.672526 82.1943359,56.1464844 C81.9436849,56.6204427 81.8183594,57.2265625 81.8183594,57.9648438 C81.8183594,59.0585938 82.0986328,59.8971354 82.6591797,60.4804688 C83.2197266,61.0638021 83.9967448,61.3554688 84.9902344,61.3554688 Z M86.8496094,58.9765625 C86.3665365,58.9765625 85.976888,58.8170573 85.6806641,58.4980469 C85.3844401,58.1790365 85.2363281,57.7278646 85.2363281,57.1445312 C85.2363281,56.625 85.359375,56.1943359 85.6054688,55.8525391 C85.8515625,55.5107422 86.2958984,55.2236328 86.9384766,54.9912109 C87.5810547,54.7587891 88.2897135,54.5605469 89.0644531,54.3964844 L89.0644531,54.3964844 L89.0644531,57.71875 C88.827474,58.0833333 88.5016276,58.3841146 88.0869141,58.6210938 C87.6722005,58.8580729 87.2597656,58.9765625 86.8496094,58.9765625 Z M102.230469,61.4785156 C102.914062,61.4785156 103.499674,61.4169922 103.987305,61.2939453 C104.474935,61.1708984 105.110677,60.9134115 105.894531,60.5214844 L105.894531,60.5214844 L106.496094,59.1953125 L106.236328,58.8808594 C105.889974,59.063151 105.525391,59.2021484 105.142578,59.2978516 C104.759766,59.3935547 104.354167,59.4414062 103.925781,59.4414062 C102.986979,59.4414062 102.196289,59.2294922 101.553711,58.8056641 C100.911133,58.3818359 100.39388,57.7164714 100.001953,56.8095703 C99.610026,55.9026693 99.4140625,54.875 99.4140625,53.7265625 C99.4140625,52.8697917 99.5097656,52.140625 99.7011719,51.5390625 C99.8925781,50.9375 100.193359,50.5091146 100.603516,50.2539062 C101.013672,49.9986979 101.565104,49.8710938 102.257812,49.8710938 C102.841146,49.8710938 103.333333,49.9690755 103.734375,50.1650391 C104.135417,50.3610026 104.431641,50.6139323 104.623047,50.9238281 C104.705078,51.3157552 104.773438,51.9173177 104.828125,52.7285156 L104.828125,52.7285156 L105.894531,52.7285156 C105.958333,51.671224 106.003906,51.0423177 106.03125,50.8417969 L106.03125,50.8417969 L106.373047,48.6132812 L106.236328,48.3808594 C105.807943,48.1894531 105.34082,48.0458984 104.834961,47.9501953 C104.329102,47.8544922 103.784505,47.8066406 103.201172,47.8066406 C102.499349,47.8066406 101.929688,47.8886719 101.492188,48.0527344 C101.227865,48.1438802 100.740234,48.4173177 100.029297,48.8730469 L100.029297,48.8730469 L97.9238281,50.1992188 C97.5410156,50.4726562 97.2356771,50.7643229 97.0078125,51.0742188 C96.6705729,51.5390625 96.4108073,52.0768229 96.2285156,52.6875 C96.046224,53.2981771 95.9550781,54.0820312 95.9550781,55.0390625 C95.9550781,56.3151042 96.1282552,57.3359375 96.4746094,58.1015625 C96.9576823,59.1861979 97.6640625,60.0201823 98.59375,60.6035156 C99.5234375,61.186849 100.735677,61.4785156 102.230469,61.4785156 Z M123.96875,61 L123.96875,59.90625 C123.604167,59.8789062 123.326172,59.8105469 123.134766,59.7011719 C122.797526,59.5097656 122.091146,58.7988281 121.015625,57.5683594 C119.101562,55.3990885 117.74349,53.8404948 116.941406,52.8925781 L116.941406,52.8925781 L118.103516,51.8808594 C118.194661,51.7988281 118.322266,51.6803385 118.486328,51.5253906 C118.650391,51.3704427 119.133464,50.9739583 119.935547,50.3359375 C120.509766,49.8802083 120.933594,49.5839844 121.207031,49.4472656 C121.352865,49.374349 121.503255,49.328776 121.658203,49.3105469 L121.658203,49.3105469 L123.09375,49.2148438 L123.09375,48.1484375 C122.236979,48.1575521 121.626302,48.1621094 121.261719,48.1621094 C120.423177,48.171224 119.59375,48.1666667 118.773438,48.1484375 L118.773438,48.1484375 L118.773438,48.9140625 C118.445312,49.296875 118.039714,49.7252604 117.556641,50.1992188 C117.073568,50.6731771 116.736328,51.0104167 116.544922,51.2109375 C116.016276,51.7213542 115.350911,52.3411458 114.548828,53.0703125 C114.166016,53.4166667 113.828776,53.6992188 113.537109,53.9179688 L113.537109,53.9179688 L113.537109,48.9414062 C113.537109,47.2825521 113.555339,45.6328125 113.591797,43.9921875 L113.591797,43.9921875 L113.6875,41.0253906 L113.386719,40.8613281 C112.302083,41.2076823 111.470378,41.4446615 110.891602,41.5722656 C110.312826,41.6998698 109.380859,41.8411458 108.095703,41.9960938 L108.095703,41.9960938 L108.095703,43.0078125 C108.733724,43.0351562 109.130208,43.0625 109.285156,43.0898438 C109.513021,43.1263021 109.681641,43.1764323 109.791016,43.2402344 C109.854818,43.2766927 109.904948,43.3268229 109.941406,43.390625 C109.996094,43.5 110.037109,43.860026 110.064453,44.4707031 C110.13737,45.6647135 110.173828,46.9954427 110.173828,48.4628906 L110.173828,48.4628906 L110.173153,53.299021 C110.169552,54.4053739 110.151548,55.6917679 110.119141,57.1582031 C110.100911,58.3704427 110.055339,59.1132812 109.982422,59.3867188 C109.955078,59.4960938 109.904948,59.5849609 109.832031,59.6533203 C109.759115,59.7216797 109.652018,59.7718099 109.510742,59.8037109 C109.369466,59.835612 108.897786,59.8697917 108.095703,59.90625 L108.095703,59.90625 L108.095703,61 C109.307943,60.9361979 110.620443,60.9042969 112.033203,60.9042969 C113.354818,60.9042969 114.571615,60.9361979 115.683594,61 L115.683594,61 L115.683594,59.90625 C114.936198,59.8697917 114.507812,59.8424479 114.398438,59.8242188 C114.152344,59.7877604 113.979167,59.7330729 113.878906,59.6601562 C113.80599,59.6145833 113.755859,59.5553385 113.728516,59.4824219 C113.682943,59.3730469 113.646484,59.063151 113.619141,58.5527344 C113.564453,57.422526 113.537109,56.5247396 113.537109,55.859375 L113.537109,55.859375 L113.537109,54.5195312 C113.673828,54.5286458 113.774089,54.5605469 113.837891,54.6152344 C114.029297,54.7610677 114.851888,55.6611328 116.305664,57.3154297 C117.75944,58.9697266 118.723307,60.1979167 119.197266,61 C119.516276,60.9726562 120.309245,60.9589844 121.576172,60.9589844 C122.788411,60.9589844 123.585938,60.9726562 123.96875,61 L123.96875,61 Z M11.6132812,100.21875 L11.6132812,99.1386719 C10.4739583,99.047526 9.85872396,98.9928385 9.76757812,98.9746094 C9.54882812,98.9290365 9.3984375,98.8538411 9.31640625,98.7490234 C9.234375,98.6442057 9.19335938,98.3821615 9.19335938,97.9628906 L9.19335938,97.9628906 L9.19335938,92.9042969 C9.60351562,93.0410156 10.0091146,93.1458333 10.4101562,93.21875 C10.8111979,93.2916667 11.203125,93.328125 11.5859375,93.328125 C12.0690104,93.328125 12.4928385,93.2734375 12.8574219,93.1640625 C13.1217448,93.0911458 13.3997396,92.9635417 13.6914062,92.78125 C13.8736979,92.6627604 14.1744792,92.4303385 14.59375,92.0839844 C15.0130208,91.7376302 15.4710286,91.3821615 15.9677734,91.0175781 C16.4645182,90.6529948 16.8177083,90.3613281 17.0273438,90.1425781 C17.3098958,89.8509115 17.5764974,89.4863281 17.8271484,89.0488281 C18.0777995,88.6113281 18.3033854,88.0234375 18.5039062,87.2851562 C18.7044271,86.546875 18.8046875,85.8040365 18.8046875,85.0566406 C18.8046875,83.8717448 18.53125,82.866862 17.984375,82.0419922 C17.4375,81.2171224 16.7402344,80.608724 15.8925781,80.2167969 C15.3001302,79.9433594 14.5208333,79.8066406 13.5546875,79.8066406 C13.1263021,79.8066406 12.7913411,79.8317057 12.5498047,79.8818359 C12.3082682,79.9319661 12.0097656,80.0299479 11.6542969,80.1757812 C11.4720052,80.3489583 11.3352865,80.4765625 11.2441406,80.5585938 L11.2441406,80.5585938 L9.87695312,81.6796875 C9.55794271,81.9440104 9.33007812,82.1308594 9.19335938,82.2402344 L9.19335938,82.2402344 L9.234375,79.9433594 L8.91992188,79.7382812 C8.18164062,80.0664062 7.46614583,80.3125 6.7734375,80.4765625 C6.08072917,80.640625 5.05533854,80.7955729 3.69726562,80.9414062 L3.69726562,80.9414062 L3.69726562,82.0078125 C4.60872396,82.0169271 5.12825521,82.0465495 5.25585938,82.0966797 C5.38346354,82.1468099 5.47916667,82.2220052 5.54296875,82.3222656 C5.63411458,82.4772135 5.69791667,82.9853516 5.734375,83.8466797 C5.77083333,84.7080078 5.7890625,85.7128906 5.7890625,86.8613281 L5.7890625,86.8613281 L5.7890625,93.1914062 L5.74804688,96.1308594 C5.71158854,97.3339844 5.67057292,98.1178385 5.625,98.4824219 C5.60677083,98.6191406 5.56347656,98.7353516 5.49511719,98.8310547 C5.42675781,98.9267578 5.33789062,98.9928385 5.22851562,99.0292969 C5.03710938,99.1022135 4.52669271,99.1386719 3.69726562,99.1386719 L3.69726562,99.1386719 L3.69726562,100.21875 L7.27929688,100.123047 L11.6132812,100.21875 Z M11.9277344,91.5644531 C11.4355469,91.5644531 10.9615885,91.4573568 10.5058594,91.2431641 C10.0501302,91.0289714 9.61263021,90.7076823 9.19335938,90.2792969 L9.19335938,90.2792969 L9.19335938,83.5800781 C9.52148438,83.188151 9.94303385,82.8645833 10.4580078,82.609375 C10.9729818,82.3541667 11.4811198,82.2265625 11.9824219,82.2265625 C12.5019531,82.2265625 12.9827474,82.3473307 13.4248047,82.5888672 C13.866862,82.8304036 14.2154948,83.1311849 14.4707031,83.4912109 C14.7259115,83.851237 14.9264323,84.320638 15.0722656,84.8994141 C15.218099,85.4781901 15.2910156,86.0911458 15.2910156,86.7382812 C15.2910156,87.75 15.1474609,88.6432292 14.8603516,89.4179688 C14.5732422,90.1927083 14.1767578,90.7441406 13.6708984,91.0722656 C13.1650391,91.4003906 12.5839844,91.5644531 11.9277344,91.5644531 Z M28.7988281,93 L28.7988281,91.9472656 L27.6777344,91.8378906 C27.1946615,91.8014323 26.8802083,91.7376302 26.734375,91.6464844 C26.5885417,91.5553385 26.4951172,91.430013 26.4541016,91.2705078 C26.4130859,91.1110026 26.3880208,90.6803385 26.3789062,89.9785156 L26.3789062,89.9785156 L26.3515625,88.1191406 L26.3517761,86.5074081 C26.3539124,85.3180618 26.3720703,84.6293945 26.40625,84.4414062 C26.4791667,84.0950521 26.7093099,83.7555339 27.0966797,83.4228516 C27.4840495,83.0901693 27.9466146,82.9238281 28.484375,82.9238281 C28.8854167,82.9238281 29.2545573,83.0195312 29.5917969,83.2109375 C29.8014323,83.3294271 30.0201823,83.5390625 30.2480469,83.8398438 L30.2480469,83.8398438 L30.8222656,83.6621094 C30.8404948,83.5071615 30.8632812,82.9010417 30.890625,81.84375 L30.890625,81.84375 L30.9726562,79.9023438 C30.6992188,79.7929688 30.3938802,79.7382812 30.0566406,79.7382812 C29.5188802,79.7382812 29.0859375,79.8476562 28.7578125,80.0664062 C28.5208333,80.2213542 28.1653646,80.5813802 27.6914062,81.1464844 C27.3723958,81.547526 26.9166667,82.0533854 26.3242188,82.6640625 L26.3242188,82.6640625 L26.3515625,79.9023438 L25.9824219,79.7382812 C25.3261719,80.0390625 24.7382812,80.2578125 24.21875,80.3945312 C23.6992188,80.53125 22.610026,80.7408854 20.9511719,81.0234375 L20.9511719,81.0234375 L20.9511719,82.0761719 C21.8079427,82.1035156 22.3229167,82.1490885 22.4960938,82.2128906 C22.6054688,82.249349 22.6852214,82.3063151 22.7353516,82.3837891 C22.7854818,82.461263 22.8242188,82.7916667 22.8515625,83.375 C22.90625,84.5325521 22.9335938,85.5169271 22.9335938,86.328125 L22.9335938,86.328125 L22.9333801,88.3269958 C22.9323832,88.7945455 22.9278971,89.139974 22.9199219,89.3632812 L22.9199219,89.3632812 L22.8652344,90.5800781 C22.8561198,91.063151 22.8059896,91.391276 22.7148438,91.5644531 C22.6510417,91.6738281 22.5553385,91.7513021 22.4277344,91.796875 C22.1542969,91.8971354 21.6621094,91.9472656 20.9511719,91.9472656 L20.9511719,91.9472656 L20.9511719,93 C22.4733073,92.9544271 23.9407552,92.9316406 25.3535156,92.9316406 C26.6204427,92.9316406 27.7688802,92.9544271 28.7988281,93 L28.7988281,93 Z M38.6152344,93.4785156 C39.8821615,93.4785156 41.0214844,93.2415365 42.0332031,92.7675781 C42.625651,92.485026 43.1907552,92.0680339 43.7285156,91.5166016 C44.266276,90.9651693 44.6946615,90.2382812 45.0136719,89.3359375 C45.3326823,88.4335938 45.4921875,87.3671875 45.4921875,86.1367188 C45.4921875,84.0039062 44.9430339,82.3860677 43.8447266,81.2832031 C42.7464193,80.1803385 41.1445312,79.6289062 39.0390625,79.6289062 C37.6354167,79.6289062 36.4049479,79.8863932 35.3476562,80.4013672 C34.2903646,80.9163411 33.4973958,81.6819661 32.96875,82.6982422 C32.4401042,83.7145182 32.1757812,84.9973958 32.1757812,86.546875 C32.1757812,88.8255208 32.7340495,90.5504557 33.8505859,91.7216797 C34.9671224,92.8929036 36.5553385,93.4785156 38.6152344,93.4785156 Z M39.0527344,92.0976562 C38.1777344,92.0976562 37.5032552,91.7558594 37.0292969,91.0722656 C36.3183594,90.0423177 35.9628906,88.3151042 35.9628906,85.890625 C35.9628906,84.5872396 36.0768229,83.5960286 36.3046875,82.9169922 C36.5325521,82.2379557 36.8515625,81.7548828 37.2617188,81.4677734 C37.671875,81.1806641 38.1503906,81.0371094 38.6972656,81.0371094 C39.3352865,81.0371094 39.8798828,81.2330729 40.3310547,81.625 C40.7822266,82.0169271 41.1240234,82.7119141 41.3564453,83.7099609 C41.5888672,84.7080078 41.7050781,85.9042969 41.7050781,87.2988281 C41.7050781,89.2858073 41.4134115,90.625651 40.8300781,91.3183594 C40.3925781,91.8378906 39.8001302,92.0976562 39.0527344,92.0976562 Z M53.3125,93.3691406 C53.8867188,93.3691406 54.3470052,93.3007812 54.6933594,93.1640625 C54.9759115,92.9726562 55.2630208,92.7402344 55.5546875,92.4667969 C56.3020833,91.8105469 56.9902344,91.218099 57.6191406,90.6894531 L57.6191406,90.6894531 L57.5917969,91.8105469 L57.5234375,92.890625 L57.6464844,93 L60.1074219,92.9589844 L62.9785156,93 L62.9785156,92.015625 C62.139974,91.9518229 61.6477865,91.8925781 61.5019531,91.8378906 C61.3561198,91.7832031 61.2513021,91.6988932 61.1875,91.5849609 C61.1236979,91.4710286 61.078125,91.1588542 61.0507812,90.6484375 C61.0052083,89.9283854 60.9824219,89.2584635 60.9824219,88.6386719 L60.9824219,88.6386719 L60.9827608,86.2224787 C60.9850207,82.4854995 60.9985795,79.5356889 61.0234375,77.3730469 C61.0325521,76.9446615 61.0917969,75.5091146 61.2011719,73.0664062 L61.2011719,73.0664062 L60.8457031,72.8613281 C59.186849,73.4628906 57.3867188,73.859375 55.4453125,74.0507812 L55.4453125,74.0507812 L55.4453125,75.0625 C56.4479167,75.0898438 57.0084635,75.1171875 57.1269531,75.1445312 C57.2454427,75.171875 57.3365885,75.2311198 57.4003906,75.3222656 C57.4824219,75.4407552 57.5325521,75.7369792 57.5507812,76.2109375 C57.5963542,77.1953125 57.6191406,78.0338542 57.6191406,78.7265625 C57.6191406,79.3190104 57.6054688,79.8795573 57.578125,80.4082031 C56.8763021,80.1347656 56.3818359,79.9661458 56.0947266,79.9023438 C55.8076172,79.8385417 55.4453125,79.8066406 55.0078125,79.8066406 C54.3059896,79.8066406 53.7340495,79.8909505 53.2919922,80.0595703 C52.8499349,80.2281901 52.1207682,80.6679688 51.1044922,81.3789062 C50.0882161,82.0898438 49.4752604,82.5729167 49.265625,82.828125 C48.9739583,83.1744792 48.71875,83.6666667 48.5,84.3046875 C48.2083333,85.1432292 48.0625,86.0957031 48.0625,87.1621094 C48.0625,89.0852865 48.5592448,90.6005859 49.5527344,91.7080078 C50.546224,92.8154297 51.7994792,93.3691406 53.3125,93.3691406 Z M54.84375,90.7304688 C53.9505208,90.7304688 53.2395833,90.3977865 52.7109375,89.7324219 C52,88.8300781 51.6445312,87.5494792 51.6445312,85.890625 C51.6445312,84.9973958 51.742513,84.2089844 51.9384766,83.5253906 C52.1344401,82.8417969 52.4306641,82.3473307 52.8271484,82.0419922 C53.2236328,81.7366536 53.7363281,81.5839844 54.3652344,81.5839844 C55.0852865,81.5839844 55.7460938,81.7571615 56.3476562,82.1035156 C56.6666667,82.2858073 57.0768229,82.6777344 57.578125,83.2792969 L57.578125,83.2792969 L57.6601562,85.7949219 C57.6601562,87.608724 57.6123047,88.6933594 57.5166016,89.0488281 C57.4208984,89.4042969 57.1201172,89.7734375 56.6142578,90.15625 C56.1083984,90.5390625 55.5182292,90.7304688 54.84375,90.7304688 Z M70.3203125,93.3691406 C70.9583333,93.3691406 71.5917969,93.2552083 72.2207031,93.0273438 L72.2207031,93.0273438 L73.765625,91.5644531 C74.0299479,91.327474 74.3398438,91.0677083 74.6953125,90.7851562 C74.6953125,91.3138021 74.6907552,91.6647135 74.6816406,91.8378906 L74.6816406,91.8378906 L74.5996094,92.890625 L74.6953125,93 L77.2792969,92.9316406 L80.0957031,93 L80.0957031,91.90625 C79.1477865,91.8606771 78.5872396,91.7923177 78.4140625,91.7011719 C78.3138021,91.6373698 78.2454427,91.5234375 78.2089844,91.359375 C78.1269531,90.9674479 78.0859375,89.9375 78.0859375,88.2695312 L78.0859375,88.2695312 L78.0859375,85.4667969 C78.0859375,85.2571615 78.1223958,84.2591146 78.1953125,82.4726562 L78.1953125,82.4726562 L78.3457031,79.9570312 L78.0859375,79.8066406 C76.8645833,80.1985677 75.9986979,80.4492188 75.4882812,80.5585938 C74.9778646,80.6679688 74.016276,80.8138021 72.6035156,80.9960938 L72.6035156,80.9960938 L72.6035156,82.0351562 C73.578776,82.0898438 74.1347656,82.139974 74.2714844,82.1855469 C74.4082031,82.2311198 74.499349,82.2949219 74.5449219,82.3769531 C74.6269531,82.5045573 74.6679688,82.8828125 74.6679688,83.5117188 L74.6679688,83.5117188 L74.6953125,85.453125 L74.6953125,87.7910156 C74.6953125,88.5384115 74.640625,89.030599 74.53125,89.2675781 C74.3580729,89.6321615 74.0481771,89.9853516 73.6015625,90.3271484 C73.1549479,90.6689453 72.6035156,90.8398438 71.9472656,90.8398438 C71.3730469,90.8398438 70.9127604,90.6940104 70.5664062,90.4023438 C70.2200521,90.1106771 70.0013021,89.6777344 69.9101562,89.1035156 C69.8463542,88.6660156 69.8144531,87.7955729 69.8144531,86.4921875 L69.8144531,84.9609375 C69.8144531,83.4296875 69.8782552,81.7617188 70.0058594,79.9570312 L70.0058594,79.9570312 L69.8144531,79.8066406 C68.5748698,80.2259115 67.5585938,80.5175781 66.765625,80.6816406 C65.9726562,80.8457031 65.1842448,80.9505208 64.4003906,80.9960938 L64.4003906,80.9960938 L64.4003906,82.0351562 C65.2845052,82.0716146 65.8040365,82.1217448 65.9589844,82.1855469 C66.1139323,82.249349 66.2255859,82.3450521 66.2939453,82.4726562 C66.3623047,82.6002604 66.3964844,82.9283854 66.3964844,83.4570312 L66.3964844,83.4570312 L66.4238281,86.3417969 C66.4238281,87.0800781 66.4192708,87.6816406 66.4101562,88.1464844 C66.3828125,89.0214844 66.3691406,89.5273438 66.3691406,89.6640625 C66.3691406,90.7851562 66.7200521,91.6829427 67.421875,92.3574219 C68.1236979,93.031901 69.0898438,93.3691406 70.3203125,93.3691406 Z M88.2851562,93.4785156 C88.96875,93.4785156 89.554362,93.4169922 90.0419922,93.2939453 C90.5296224,93.1708984 91.1653646,92.9134115 91.9492188,92.5214844 L91.9492188,92.5214844 L92.5507812,91.1953125 L92.2910156,90.8808594 C91.9446615,91.063151 91.5800781,91.2021484 91.1972656,91.2978516 C90.8144531,91.3935547 90.4088542,91.4414062 89.9804688,91.4414062 C89.0416667,91.4414062 88.2509766,91.2294922 87.6083984,90.8056641 C86.9658203,90.3818359 86.4485677,89.7164714 86.0566406,88.8095703 C85.6647135,87.9026693 85.46875,86.875 85.46875,85.7265625 C85.46875,84.8697917 85.5644531,84.140625 85.7558594,83.5390625 C85.9472656,82.9375 86.2480469,82.5091146 86.6582031,82.2539062 C87.0683594,81.9986979 87.6197917,81.8710938 88.3125,81.8710938 C88.8958333,81.8710938 89.3880208,81.9690755 89.7890625,82.1650391 C90.1901042,82.3610026 90.4863281,82.6139323 90.6777344,82.9238281 C90.7597656,83.3157552 90.828125,83.9173177 90.8828125,84.7285156 L90.8828125,84.7285156 L91.9492188,84.7285156 C92.0130208,83.671224 92.0585938,83.0423177 92.0859375,82.8417969 L92.0859375,82.8417969 L92.4277344,80.6132812 L92.2910156,80.3808594 C91.8626302,80.1894531 91.3955078,80.0458984 90.8896484,79.9501953 C90.3837891,79.8544922 89.8391927,79.8066406 89.2558594,79.8066406 C88.5540365,79.8066406 87.984375,79.8886719 87.546875,80.0527344 C87.2825521,80.1438802 86.7949219,80.4173177 86.0839844,80.8730469 L86.0839844,80.8730469 L83.9785156,82.1992188 C83.5957031,82.4726562 83.2903646,82.7643229 83.0625,83.0742188 C82.7252604,83.5390625 82.4654948,84.0768229 82.2832031,84.6875 C82.1009115,85.2981771 82.0097656,86.0820312 82.0097656,87.0390625 C82.0097656,88.3151042 82.1829427,89.3359375 82.5292969,90.1015625 C83.0123698,91.1861979 83.71875,92.0201823 84.6484375,92.6035156 C85.578125,93.186849 86.7903646,93.4785156 88.2851562,93.4785156 Z M98.9902344,93.2871094 C99.281901,93.2871094 99.5667318,93.2620443 99.8447266,93.2119141 C100.122721,93.1617839 100.439453,93.0592448 100.794922,92.9042969 C101.095703,92.594401 101.446615,92.234375 101.847656,91.8242188 L101.847656,91.8242188 L102.339844,91.3320312 L102.121094,90.7714844 C101.829427,90.8352865 101.590169,90.8785807 101.40332,90.9013672 C101.216471,90.9241536 100.968099,90.9309896 100.658203,90.921875 C100.147786,90.921875 99.758138,90.8011068 99.4892578,90.5595703 C99.2203776,90.3180339 99.0677083,89.9830729 99.03125,89.5546875 C99.0073242,89.3313802 98.993866,88.6684367 98.9908752,87.5658569 L98.9902344,82.5 L100.316406,82.5 L101.65625,82.5273438 C101.747396,82.5273438 101.847656,82.5182292 101.957031,82.5 L101.957031,82.5 L102.189453,80.6542969 C101.569661,80.7454427 100.653646,80.7910156 99.4414062,80.7910156 L99.4414062,80.7910156 L98.9902344,80.7910156 L99.1132812,78.3984375 L99.2089844,76.8261719 L99.3457031,75.4042969 L98.9902344,75.1308594 C97.8782552,75.6503906 97.2994792,75.9192708 97.2539062,75.9375 C96.9895833,76.0377604 96.4153646,76.233724 95.53125,76.5253906 C95.6041667,77.4915365 95.640625,78.3027344 95.640625,78.9589844 L95.640625,78.9589844 L95.640625,80.7910156 C95.4583333,80.936849 95.2669271,81.0735677 95.0664062,81.2011719 L95.0664062,81.2011719 L93.8359375,81.9804688 L93.8359375,82.5957031 C94.2916667,82.5683594 94.7701823,82.5546875 95.2714844,82.5546875 L95.2714844,82.5546875 L95.640625,82.5546875 L95.640625,85.9316406 L95.5859375,90.4433594 C95.5859375,91.2545573 95.8889974,91.9313151 96.4951172,92.4736328 C97.101237,93.0159505 97.9329427,93.2871094 98.9902344,93.2871094 Z M116.271484,93.3691406 C116.845703,93.3691406 117.30599,93.3007812 117.652344,93.1640625 C117.934896,92.9726562 118.222005,92.7402344 118.513672,92.4667969 C119.261068,91.8105469 119.949219,91.218099 120.578125,90.6894531 L120.578125,90.6894531 L120.550781,91.8105469 L120.482422,92.890625 L120.605469,93 L123.066406,92.9589844 L125.9375,93 L125.9375,92.015625 C125.098958,91.9518229 124.606771,91.8925781 124.460938,91.8378906 C124.315104,91.7832031 124.210286,91.6988932 124.146484,91.5849609 C124.082682,91.4710286 124.037109,91.1588542 124.009766,90.6484375 C123.964193,89.9283854 123.941406,89.2584635 123.941406,88.6386719 L123.941406,88.6386719 L123.941745,86.2224787 C123.944005,82.4854995 123.957564,79.5356889 123.982422,77.3730469 C123.991536,76.9446615 124.050781,75.5091146 124.160156,73.0664062 L124.160156,73.0664062 L123.804688,72.8613281 C122.145833,73.4628906 120.345703,73.859375 118.404297,74.0507812 L118.404297,74.0507812 L118.404297,75.0625 C119.406901,75.0898438 119.967448,75.1171875 120.085938,75.1445312 C120.204427,75.171875 120.295573,75.2311198 120.359375,75.3222656 C120.441406,75.4407552 120.491536,75.7369792 120.509766,76.2109375 C120.555339,77.1953125 120.578125,78.0338542 120.578125,78.7265625 C120.578125,79.3190104 120.564453,79.8795573 120.537109,80.4082031 C119.835286,80.1347656 119.34082,79.9661458 119.053711,79.9023438 C118.766602,79.8385417 118.404297,79.8066406 117.966797,79.8066406 C117.264974,79.8066406 116.693034,79.8909505 116.250977,80.0595703 C115.808919,80.2281901 115.079753,80.6679688 114.063477,81.3789062 C113.047201,82.0898438 112.434245,82.5729167 112.224609,82.828125 C111.932943,83.1744792 111.677734,83.6666667 111.458984,84.3046875 C111.167318,85.1432292 111.021484,86.0957031 111.021484,87.1621094 C111.021484,89.0852865 111.518229,90.6005859 112.511719,91.7080078 C113.505208,92.8154297 114.758464,93.3691406 116.271484,93.3691406 Z M117.802734,90.7304688 C116.909505,90.7304688 116.198568,90.3977865 115.669922,89.7324219 C114.958984,88.8300781 114.603516,87.5494792 114.603516,85.890625 C114.603516,84.9973958 114.701497,84.2089844 114.897461,83.5253906 C115.093424,82.8417969 115.389648,82.3473307 115.786133,82.0419922 C116.182617,81.7366536 116.695312,81.5839844 117.324219,81.5839844 C118.044271,81.5839844 118.705078,81.7571615 119.306641,82.1035156 C119.625651,82.2858073 120.035807,82.6777344 120.537109,83.2792969 L120.537109,83.2792969 L120.619141,85.7949219 C120.619141,87.608724 120.571289,88.6933594 120.475586,89.0488281 C120.379883,89.4042969 120.079102,89.7734375 119.573242,90.15625 C119.067383,90.5390625 118.477214,90.7304688 117.802734,90.7304688 Z M134.386719,93.4785156 C135.143229,93.4785156 135.817708,93.4010417 136.410156,93.2460938 C137.203125,93.0273438 137.973307,92.6901042 138.720703,92.234375 L138.720703,92.234375 L139.322266,90.8945312 L138.994141,90.5117188 C138.283203,90.8671875 137.708984,91.101888 137.271484,91.2158203 C136.833984,91.3297526 136.355469,91.3867188 135.835938,91.3867188 C134.632812,91.3867188 133.621094,90.9697266 132.800781,90.1357422 C131.980469,89.3017578 131.533854,88.1647135 131.460938,86.7246094 L131.460938,86.7246094 L132.363281,86.7246094 C132.509115,86.7246094 132.641276,86.7200521 132.759766,86.7109375 C132.878255,86.7018229 133.498047,86.6927083 134.619141,86.6835938 C135.740234,86.6744792 136.642578,86.6425781 137.326172,86.5878906 C137.544922,86.578776 137.964193,86.514974 138.583984,86.3964844 C139.048828,86.3053385 139.395182,86.2233073 139.623047,86.1503906 C139.641276,85.9134115 139.650391,85.6673177 139.650391,85.4121094 C139.650391,84.281901 139.488607,83.3203125 139.165039,82.5273438 C138.841471,81.734375 138.28776,81.0826823 137.503906,80.5722656 C136.720052,80.061849 135.717448,79.8066406 134.496094,79.8066406 C133.630208,79.8066406 132.878255,79.9479167 132.240234,80.2304688 C131.89388,80.3854167 131.337891,80.7135417 130.572266,81.2148438 C129.806641,81.7161458 129.332682,82.0579427 129.150391,82.2402344 C128.858724,82.531901 128.603516,83.0058594 128.384766,83.6621094 C128.065755,84.6009115 127.90625,85.6673177 127.90625,86.8613281 C127.90625,87.6816406 127.988281,88.438151 128.152344,89.1308594 C128.316406,89.8235677 128.583008,90.4342448 128.952148,90.9628906 C129.321289,91.4915365 129.749674,91.938151 130.237305,92.3027344 C130.724935,92.6673177 131.312826,92.9544271 132.000977,93.1640625 C132.689128,93.3736979 133.484375,93.4785156 134.386719,93.4785156 Z M134.058594,85.3574219 C132.800781,85.3574219 131.902995,85.3164062 131.365234,85.234375 C131.328776,83.8398438 131.547526,82.8372396 132.021484,82.2265625 C132.486328,81.625 133.074219,81.3242188 133.785156,81.3242188 C134.477865,81.3242188 135.042969,81.6113281 135.480469,82.1855469 C135.908854,82.7688802 136.104818,83.7851562 136.068359,85.234375 C135.530599,85.3164062 134.860677,85.3574219 134.058594,85.3574219 Z M146.089844,93.4785156 C147.994792,93.4785156 149.473633,93.0136719 150.526367,92.0839844 C151.579102,91.1542969 152.105469,90.0104167 152.105469,88.6523438 C152.105469,88.1328125 152.025716,87.6565755 151.866211,87.2236328 C151.706706,86.7906901 151.476562,86.4283854 151.175781,86.1367188 C150.875,85.8450521 150.473958,85.6035156 149.972656,85.4121094 C149.626302,85.2845052 148.949544,85.1272786 147.942383,84.9404297 C146.935221,84.7535807 146.244792,84.6009115 145.871094,84.4824219 C145.497396,84.3639323 145.214844,84.1861979 145.023438,83.9492188 C144.832031,83.7122396 144.736328,83.3476562 144.736328,82.8554688 C144.736328,82.3723958 144.948242,81.9576823 145.37207,81.6113281 C145.795898,81.264974 146.395182,81.0917969 147.169922,81.0917969 C147.725911,81.0917969 148.211263,81.1829427 148.625977,81.3652344 C149.04069,81.547526 149.389323,81.8209635 149.671875,82.1855469 C149.753906,82.5683594 149.808594,82.9648438 149.835938,83.375 C149.854167,83.6119792 149.867839,83.780599 149.876953,83.8808594 L149.876953,83.8808594 L150.929688,83.8945312 C150.984375,82.6731771 151.025391,81.8984375 151.052734,81.5703125 C151.080078,81.2421875 151.121094,80.9186198 151.175781,80.5996094 L151.175781,80.5996094 L151.134766,80.4628906 C150.633464,80.2076823 150.072917,80.016276 149.453125,79.8886719 C148.833333,79.7610677 148.154297,79.6972656 147.416016,79.6972656 C145.638672,79.6972656 144.276042,80.1142578 143.328125,80.9482422 C142.380208,81.7822266 141.90625,82.828125 141.90625,84.0859375 C141.90625,84.7877604 142.052083,85.4007161 142.34375,85.9248047 C142.635417,86.4488932 143.041016,86.843099 143.560547,87.1074219 C144.080078,87.3717448 144.843424,87.6132812 145.850586,87.8320312 C146.857747,88.0507812 147.539062,88.2239583 147.894531,88.3515625 C148.35026,88.5611979 148.65332,88.7913411 148.803711,89.0419922 C148.954102,89.2926432 149.029297,89.609375 149.029297,89.9921875 C149.029297,90.5755208 148.801432,91.0722656 148.345703,91.4824219 C147.889974,91.8925781 147.233724,92.0976562 146.376953,92.0976562 C145.738932,92.0976562 145.173828,91.976888 144.681641,91.7353516 C144.189453,91.4938151 143.738281,91.1223958 143.328125,90.6210938 C143.282552,90.3567708 143.236979,89.7141927 143.191406,88.6933594 L143.191406,88.6933594 L142.097656,88.6933594 L142.015625,90.9902344 C141.997396,91.281901 141.951823,91.7786458 141.878906,92.4804688 L141.878906,92.4804688 L142.029297,92.6855469 C142.895182,92.9863281 143.628906,93.1936849 144.230469,93.3076172 C144.832031,93.4215495 145.451823,93.4785156 146.089844,93.4785156 Z M157.751953,77.4003906 C158.335286,77.4003906 158.829753,77.1953125 159.235352,76.7851562 C159.640951,76.375 159.84375,75.8782552 159.84375,75.2949219 C159.84375,74.7207031 159.640951,74.2285156 159.235352,73.8183594 C158.829753,73.4082031 158.335286,73.203125 157.751953,73.203125 C157.16862,73.203125 156.674154,73.4082031 156.268555,73.8183594 C155.862956,74.2285156 155.660156,74.7207031 155.660156,75.2949219 C155.660156,75.8782552 155.865234,76.375 156.275391,76.7851562 C156.685547,77.1953125 157.177734,77.4003906 157.751953,77.4003906 Z M161.703125,93 L161.703125,91.9335938 C160.755208,91.8971354 160.158203,91.8196615 159.912109,91.7011719 C159.802734,91.6464844 159.729818,91.5371094 159.693359,91.3730469 C159.620443,91.0813802 159.583984,90.1425781 159.583984,88.5566406 L159.583984,88.5566406 L159.583984,83.9082031 C159.583984,82.6595052 159.638672,81.3242188 159.748047,79.9023438 L159.748047,79.9023438 L159.419922,79.7246094 C158.590495,80.061849 157.82487,80.3125 157.123047,80.4765625 C156.421224,80.640625 155.382161,80.7955729 154.005859,80.9414062 L154.005859,80.9414062 L154.005859,81.9804688 C155.063151,81.9895833 155.682943,82.0533854 155.865234,82.171875 C155.947266,82.2265625 156.00651,82.3450521 156.042969,82.5273438 C156.125,82.9192708 156.166016,84.5416667 156.166016,87.3945312 C156.166016,89.4726562 156.120443,90.7623698 156.029297,91.2636719 C155.992839,91.500651 155.901693,91.6624349 155.755859,91.7490234 C155.610026,91.835612 155.026693,91.9153646 154.005859,91.9882812 L154.005859,91.9882812 L154.005859,93 C155.008464,92.9635417 156.166016,92.9453125 157.478516,92.9453125 C159.000651,92.9453125 160.408854,92.9635417 161.703125,93 L161.703125,93 Z M169.591797,100.287109 C171.469401,100.287109 173.08724,99.9179688 174.445312,99.1796875 C175.520833,98.5872396 176.327474,97.8307292 176.865234,96.9101562 C177.402995,95.9895833 177.671875,94.9596354 177.671875,93.8203125 C177.671875,93.0546875 177.539714,92.4394531 177.275391,91.9746094 C177.011068,91.5097656 176.610026,91.1634115 176.072266,90.9355469 C175.534505,90.7076823 174.773438,90.59375 173.789062,90.59375 L173.789062,90.59375 L170.425781,90.6757812 C169.222656,90.6757812 168.470703,90.6438802 168.169922,90.5800781 C167.951172,90.5345052 167.780273,90.4388021 167.657227,90.2929688 C167.53418,90.1471354 167.472656,89.9921875 167.472656,89.828125 C167.472656,89.6367188 167.545573,89.429362 167.691406,89.2060547 C167.83724,88.9827474 168.051432,88.7890625 168.333984,88.625 C168.844401,88.6705729 169.240885,88.6933594 169.523438,88.6933594 C170.580729,88.6933594 171.581055,88.4928385 172.524414,88.0917969 C173.467773,87.6907552 174.199219,87.1165365 174.71875,86.3691406 C175.238281,85.6217448 175.498047,84.7604167 175.498047,83.7851562 C175.498047,83.3567708 175.438802,82.9147135 175.320312,82.4589844 L175.320312,82.4589844 L177.480469,82.4589844 L177.671875,80.7773438 C176.459635,80.8320312 175.716797,80.859375 175.443359,80.859375 C175.242839,80.859375 174.878255,80.8457031 174.349609,80.8183594 C173.857422,80.4355469 173.249023,80.1461589 172.524414,79.9501953 C171.799805,79.7542318 171.009115,79.65625 170.152344,79.65625 C168.876302,79.65625 167.762044,79.8795573 166.80957,80.3261719 C165.857096,80.7727865 165.157552,81.3720703 164.710938,82.1240234 C164.264323,82.8759766 164.041016,83.6848958 164.041016,84.5507812 C164.041016,85.1888021 164.161784,85.7721354 164.40332,86.3007812 C164.644857,86.8294271 164.968424,87.2555339 165.374023,87.5791016 C165.779622,87.9026693 166.319661,88.1875 166.994141,88.4335938 L166.994141,88.4335938 L165.09375,89.8144531 C164.966146,90.0514323 164.838542,90.3704427 164.710938,90.7714844 C164.619792,91.0540365 164.574219,91.3092448 164.574219,91.5371094 C164.574219,91.9563802 164.751953,92.3300781 165.107422,92.6582031 C165.499349,92.9589844 165.941406,93.1367188 166.433594,93.1914062 C166.333333,93.2369792 165.845703,93.5058594 164.970703,93.9980469 C164.514974,94.2623698 164.209635,94.4720052 164.054688,94.6269531 C163.89974,94.781901 163.763021,95.0143229 163.644531,95.3242188 C163.526042,95.6341146 163.466797,95.9804688 163.466797,96.3632812 C163.466797,97.0286458 163.653646,97.6438802 164.027344,98.2089844 C164.401042,98.7740885 165.052734,99.2617188 165.982422,99.671875 C166.912109,100.082031 168.115234,100.287109 169.591797,100.287109 Z M169.837891,87.421875 C169.136068,87.421875 168.566406,87.1529948 168.128906,86.6152344 C167.691406,86.077474 167.472656,85.1796875 167.472656,83.921875 C167.472656,82.8919271 167.675456,82.1445312 168.081055,81.6796875 C168.486654,81.2148438 169.035807,80.9824219 169.728516,80.9824219 C170.457682,80.9824219 171.027344,81.2376302 171.4375,81.7480469 C171.847656,82.2584635 172.052734,83.1516927 172.052734,84.4277344 C172.052734,85.3391927 171.906901,86.0227865 171.615234,86.4785156 C171.205078,87.1074219 170.61263,87.421875 169.837891,87.421875 Z M170.152344,98.8789062 C168.794271,98.8789062 167.775716,98.6009115 167.09668,98.0449219 C166.417643,97.4889323 166.078125,96.796224 166.078125,95.9667969 C166.078125,95.4746094 166.203451,95.0302734 166.454102,94.6337891 C166.704753,94.2373047 167.203776,93.8020833 167.951172,93.328125 C168.461589,93.3190104 168.876302,93.3144531 169.195312,93.3144531 L169.786657,93.3149262 C171.199259,93.3172916 172.118681,93.3285271 172.544922,93.3486328 C173.027995,93.3714193 173.40625,93.4580078 173.679688,93.6083984 C173.953125,93.7587891 174.165039,93.9638672 174.31543,94.2236328 C174.46582,94.4833984 174.541016,94.859375 174.541016,95.3515625 C174.541016,96.3723958 174.165039,97.2154948 173.413086,97.8808594 C172.661133,98.546224 171.574219,98.8789062 170.152344,98.8789062 Z M194.488281,93 L194.488281,91.9472656 C194.132812,91.9108073 193.877604,91.8880208 193.722656,91.8789062 C193.303385,91.8515625 193.032227,91.7854818 192.90918,91.6806641 C192.786133,91.5758464 192.704102,91.3411458 192.663086,90.9765625 C192.62207,90.6119792 192.597005,89.6595052 192.587891,88.1191406 L192.587891,88.1191406 L192.574219,86.7109375 C192.574219,86.5559896 192.578776,86.4238281 192.587891,86.3144531 C192.60612,86.031901 192.615234,85.3710938 192.615234,84.3320312 C192.615234,83.4114583 192.546875,82.7347005 192.410156,82.3017578 C192.273438,81.8688151 192.036458,81.4541016 191.699219,81.0576172 C191.361979,80.6611328 190.949544,80.3535156 190.461914,80.1347656 C189.974284,79.9160156 189.242839,79.8066406 188.267578,79.8066406 C187.902995,79.8066406 187.618164,79.8271484 187.413086,79.8681641 C187.208008,79.9091797 186.955078,79.9889323 186.654297,80.1074219 L186.654297,80.1074219 L184.166016,82.1035156 L184.166016,79.9023438 L183.796875,79.7382812 C183.140625,80.0390625 182.552734,80.2578125 182.033203,80.3945312 C181.513672,80.53125 180.424479,80.7408854 178.765625,81.0234375 L178.765625,81.0234375 L178.765625,82.0761719 C179.622396,82.1035156 180.13737,82.1490885 180.310547,82.2128906 C180.419922,82.249349 180.499674,82.3063151 180.549805,82.3837891 C180.599935,82.461263 180.638672,82.7916667 180.666016,83.375 C180.720703,84.5325521 180.748047,85.5169271 180.748047,86.328125 L180.748047,86.328125 L180.748047,88.1191406 C180.748047,88.6933594 180.74349,89.1080729 180.734375,89.3632812 L180.734375,89.3632812 L180.679688,90.5800781 C180.670573,91.063151 180.620443,91.391276 180.529297,91.5644531 C180.465495,91.6738281 180.369792,91.7513021 180.242188,91.796875 C179.96875,91.8971354 179.476562,91.9472656 178.765625,91.9472656 L178.765625,91.9472656 L178.765625,93 C179.686198,92.9635417 180.980469,92.9453125 182.648438,92.9453125 L183.120202,92.9459877 C184.356184,92.9495885 185.415726,92.9675926 186.298828,93 L186.298828,93 L186.298828,91.9472656 C185.642578,91.8925781 185.259766,91.8561198 185.150391,91.8378906 C184.83138,91.7740885 184.617188,91.7057292 184.507812,91.6328125 C184.434896,91.5872396 184.375651,91.5143229 184.330078,91.4140625 C184.266276,91.2773438 184.229818,90.9947917 184.220703,90.5664062 C184.184245,89.6002604 184.166016,88.7845052 184.166016,88.1191406 L184.166016,85.8222656 C184.156901,84.546224 184.184245,83.8170573 184.248047,83.6347656 C184.357422,83.3248698 184.621745,83.0172526 185.041016,82.7119141 C185.460286,82.4065755 185.988932,82.2539062 186.626953,82.2539062 C187.264974,82.2539062 187.775391,82.4065755 188.158203,82.7119141 C188.541016,83.0172526 188.793945,83.4205729 188.916992,83.921875 C189.040039,84.4231771 189.101562,85.4713542 189.101562,87.0664062 L189.101562,87.0664062 L189.101562,88.1464844 L189.033203,90.3886719 C188.932943,91.7740885 188.873698,92.5625 188.855469,92.7539062 L188.855469,92.7539062 L189.101562,93 C189.766927,92.9361979 190.550781,92.9042969 191.453125,92.9042969 C192.236979,92.9042969 193.248698,92.9361979 194.488281,93 L194.488281,93 Z" id="full-stackproductdesign" fill="#E8BE4F"></path>
            </g>
        </g>
    </g>
</svg>