<?xml version="1.0" encoding="UTF-8"?>
<svg width="359px" height="103px" viewBox="0 0 359 103" version="1.1" xmlns="http://www.w3.org/2000/svg" xmlns:xlink="http://www.w3.org/1999/xlink">
    <!-- Generator: Sketch 61 (89581) - https://sketch.com -->
    <title>lockup-name</title>
    <desc>Created with Sketch.</desc>
    <g id="Home-2.0" stroke="none" stroke-width="1" fill="none" fill-rule="evenodd">
        <g id="home-2.0-dark" transform="translate(-429.000000, -272.000000)" fill="#AFAFAF" fill-rule="nonzero">
            <g id="Group-14">
                <g id="Group-4" transform="translate(429.052000, 272.660000)">
                    <path d="M14.036,42.92 C17.864,42.92 20.8993333,42.0306667 23.142,40.252 C25.3846667,38.4733333 26.506,36.076 26.506,33.06 C26.506,31.784 26.2933333,30.682 25.868,29.754 C25.4426667,28.826 24.766,28.0043333 23.838,27.289 C22.91,26.5736667 21.7016667,25.926 20.213,25.346 C18.7243333,24.766 16.8973333,24.186 14.732,23.606 C12.6826667,23.1033333 11.281,22.6393333 10.527,22.214 C9.773,21.7886667 9.396,21.1506667 9.396,20.3 C9.396,19.4106667 9.744,18.763 10.44,18.357 C11.136,17.951 11.9866667,17.748 12.992,17.748 C14.268,17.748 15.5826667,18.0186667 16.936,18.56 C18.2893333,19.1013333 19.836,19.9713333 21.576,21.17 L21.576,21.17 L25.172,15.602 C23.316,13.978 21.3923333,12.8566667 19.401,12.238 C17.4096667,11.6193333 15.2733333,11.31 12.992,11.31 C11.252,11.31 9.63766667,11.5613333 8.149,12.064 C6.66033333,12.5666667 5.37466667,13.2626667 4.292,14.152 C3.20933333,15.0413333 2.35866667,16.124 1.74,17.4 C1.12133333,18.676 0.812,20.0873333 0.812,21.634 C0.812,22.794 1.00533333,23.7993333 1.392,24.65 C1.77866667,25.5006667 2.41666667,26.2546667 3.306,26.912 C4.19533333,27.5693333 5.34566667,28.1686667 6.757,28.71 C8.16833333,29.2513333 9.89866667,29.812 11.948,30.392 C14.036,30.9333333 15.4956667,31.4456667 16.327,31.929 C17.1583333,32.4123333 17.574,33.06 17.574,33.872 C17.574,34.684 17.2453333,35.3026667 16.588,35.728 C15.9306667,36.1533333 15.0026667,36.366 13.804,36.366 C12.18,36.366 10.4883333,36.018 8.729,35.322 C6.96966667,34.626 5.162,33.64 3.306,32.364 L3.306,32.364 L0,38.048 C1.74,39.6333333 3.86666667,40.8416667 6.38,41.673 C8.89333333,42.5043333 11.4453333,42.92 14.036,42.92 Z M41.354,42.92 C43.0166667,42.92 44.6696667,42.688 46.313,42.224 C47.9563333,41.76 49.416,41.2573333 50.692,40.716 L50.692,40.716 L48.894,33.35 C48.3526667,33.6206667 47.7146667,33.872 46.98,34.104 C46.2453333,34.336 45.53,34.452 44.834,34.452 C44.0606667,34.452 43.4226667,34.2296667 42.92,33.785 C42.4173333,33.3403333 42.166,32.6153333 42.166,31.61 L42.166,31.61 L42.166,18.908 L48.372,18.908 L48.372,11.89 L42.166,11.89 L42.166,2.204 L32.886,2.204 L32.886,11.89 L29,11.89 L29,18.908 L32.886,18.908 L32.886,34.8 C32.886,36.2693333 33.1083333,37.526 33.553,38.57 C33.9976667,39.614 34.6066667,40.455 35.38,41.093 C36.1533333,41.731 37.0523333,42.195 38.077,42.485 C39.1016667,42.775 40.194,42.92 41.354,42.92 Z M68.092,42.92 C71.6106667,42.92 74.6266667,42.166 77.14,40.658 C79.6533333,39.15 81.5093333,37.1973333 82.708,34.8 L82.708,34.8 L74.82,32.596 C74.3946667,33.7173333 73.5536667,34.6066667 72.297,35.264 C71.0403333,35.9213333 69.7353333,36.25 68.382,36.25 C66.6806667,36.25 65.163,35.7183333 63.829,34.655 C62.495,33.5916667 61.7506667,32.0353333 61.596,29.986 L61.596,29.986 L84.1,29.986 C84.1773333,29.5993333 84.2353333,29.145 84.274,28.623 C84.3126667,28.101 84.332,27.5693333 84.332,27.028 C84.332,24.94 83.9743333,22.9486667 83.259,21.054 C82.5436667,19.1593333 81.49,17.487 80.098,16.037 C78.706,14.587 77.0046667,13.4366667 74.994,12.586 C72.9833333,11.7353333 70.6826667,11.31 68.092,11.31 C65.5013333,11.31 63.191,11.7353333 61.161,12.586 C59.131,13.4366667 57.42,14.5966667 56.028,16.066 C54.636,17.5353333 53.5726667,19.2463333 52.838,21.199 C52.1033333,23.1516667 51.736,25.23 51.736,27.434 C51.736,29.4833333 52.1033333,31.4456667 52.838,33.321 C53.5726667,35.1963333 54.6456667,36.8493333 56.057,38.28 C57.4683333,39.7106667 59.189,40.8416667 61.219,41.673 C63.249,42.5043333 65.54,42.92 68.092,42.92 Z M74.53,24.244 L61.422,24.244 C61.6153333,22.3493333 62.3016667,20.8316667 63.481,19.691 C64.6603333,18.5503333 66.1586667,17.98 67.976,17.98 C69.7546667,17.98 71.2433333,18.5406667 72.442,19.662 C73.6406667,20.7833333 74.3366667,22.3106667 74.53,24.244 L74.53,24.244 Z M105.734,42.34 L116.464,11.89 L107.822,11.89 L101.094,34.916 L94.424,11.89 L84.854,11.89 L95.642,42.34 L105.734,42.34 Z M133.516,42.92 C137.034667,42.92 140.050667,42.166 142.564,40.658 C145.077333,39.15 146.933333,37.1973333 148.132,34.8 L148.132,34.8 L140.244,32.596 C139.818667,33.7173333 138.977667,34.6066667 137.721,35.264 C136.464333,35.9213333 135.159333,36.25 133.806,36.25 C132.104667,36.25 130.587,35.7183333 129.253,34.655 C127.919,33.5916667 127.174667,32.0353333 127.02,29.986 L127.02,29.986 L149.524,29.986 C149.601333,29.5993333 149.659333,29.145 149.698,28.623 C149.736667,28.101 149.756,27.5693333 149.756,27.028 C149.756,24.94 149.398333,22.9486667 148.683,21.054 C147.967667,19.1593333 146.914,17.487 145.522,16.037 C144.13,14.587 142.428667,13.4366667 140.418,12.586 C138.407333,11.7353333 136.106667,11.31 133.516,11.31 C130.925333,11.31 128.615,11.7353333 126.585,12.586 C124.555,13.4366667 122.844,14.5966667 121.452,16.066 C120.06,17.5353333 118.996667,19.2463333 118.262,21.199 C117.527333,23.1516667 117.16,25.23 117.16,27.434 C117.16,29.4833333 117.527333,31.4456667 118.262,33.321 C118.996667,35.1963333 120.069667,36.8493333 121.481,38.28 C122.892333,39.7106667 124.613,40.8416667 126.643,41.673 C128.673,42.5043333 130.964,42.92 133.516,42.92 Z M139.954,24.244 L126.846,24.244 C127.039333,22.3493333 127.725667,20.8316667 128.905,19.691 C130.084333,18.5503333 131.582667,17.98 133.4,17.98 C135.178667,17.98 136.667333,18.5406667 137.866,19.662 C139.064667,20.7833333 139.760667,22.3106667 139.954,24.244 L139.954,24.244 Z M176.784,42.34 L176.784,24.07 C177.596,22.678 178.910667,21.634 180.728,20.938 C182.545333,20.242 184.575333,19.8746667 186.818,19.836 L186.818,19.836 L186.818,11.484 C186.624667,11.4453333 186.431333,11.426 186.238,11.426 L186.238,11.426 L185.31,11.426 C183.454,11.4646667 181.704333,12.064 180.061,13.224 C178.417667,14.384 177.074,15.9886667 176.03,18.038 L176.03,18.038 L176.03,11.89 L167.504,11.89 L167.504,42.34 L176.784,42.34 Z M203.696,42.92 C206.286667,42.92 208.597,42.4946667 210.627,41.644 C212.657,40.7933333 214.368,39.643 215.76,38.193 C217.152,36.743 218.205667,35.061 218.921,33.147 C219.636333,31.233 219.994,29.232 219.994,27.144 C219.994,25.056 219.626667,23.055 218.892,21.141 C218.157333,19.227 217.094,17.545 215.702,16.095 C214.31,14.645 212.608667,13.485 210.598,12.615 C208.587333,11.745 206.286667,11.31 203.696,11.31 C201.105333,11.31 198.795,11.745 196.765,12.615 C194.735,13.485 193.024,14.645 191.632,16.095 C190.24,17.545 189.186333,19.227 188.471,21.141 C187.755667,23.055 187.398,25.056 187.398,27.144 C187.398,29.232 187.755667,31.233 188.471,33.147 C189.186333,35.061 190.24,36.743 191.632,38.193 C193.024,39.643 194.735,40.7933333 196.765,41.644 C198.795,42.4946667 201.105333,42.92 203.696,42.92 Z M203.696,35.09 C201.724,35.09 200.1,34.365 198.824,32.915 C197.548,31.465 196.91,29.5413333 196.91,27.144 C196.91,25.984 197.084,24.911 197.432,23.925 C197.78,22.939 198.253667,22.098 198.853,21.402 C199.452333,20.706 200.167667,20.1646667 200.999,19.778 C201.830333,19.3913333 202.729333,19.198 203.696,19.198 C205.629333,19.198 207.234,19.923 208.51,21.373 C209.786,22.823 210.424,24.7466667 210.424,27.144 C210.424,28.304 210.25,29.377 209.902,30.363 C209.554,31.349 209.080333,32.19 208.481,32.886 C207.881667,33.582 207.176,34.1233333 206.364,34.51 C205.552,34.8966667 204.662667,35.09 203.696,35.09 Z M233.856,42.34 L233.856,33.466 L237.104,30.102 L245.05,42.34 L254.91,42.34 L243.02,24.998 L253.982,11.89 L244.122,11.89 L233.856,24.534 L233.856,0 L224.576,0 L224.576,42.34 L233.856,42.34 Z M266.858,8.41 L266.858,0 L257.578,0 L257.578,8.41 L266.858,8.41 Z M266.858,42.34 L266.858,11.89 L257.578,11.89 L257.578,42.34 L266.858,42.34 Z M283.62,42.92 C285.282667,42.92 286.935667,42.688 288.579,42.224 C290.222333,41.76 291.682,41.2573333 292.958,40.716 L292.958,40.716 L291.16,33.35 C290.618667,33.6206667 289.980667,33.872 289.246,34.104 C288.511333,34.336 287.796,34.452 287.1,34.452 C286.326667,34.452 285.688667,34.2296667 285.186,33.785 C284.683333,33.3403333 284.432,32.6153333 284.432,31.61 L284.432,31.61 L284.432,18.908 L290.638,18.908 L290.638,11.89 L284.432,11.89 L284.432,2.204 L275.152,2.204 L275.152,11.89 L271.266,11.89 L271.266,18.908 L275.152,18.908 L275.152,34.8 C275.152,36.2693333 275.374333,37.526 275.819,38.57 C276.263667,39.614 276.872667,40.455 277.646,41.093 C278.419333,41.731 279.318333,42.195 280.343,42.485 C281.367667,42.775 282.46,42.92 283.62,42.92 Z M305.834,42.34 L305.834,33.466 L309.082,30.102 L317.028,42.34 L326.888,42.34 L314.998,24.998 L325.96,11.89 L316.1,11.89 L305.834,24.534 L305.834,0 L296.554,0 L296.554,42.34 L305.834,42.34 Z M337.792,42.92 C339.88,42.92 341.861667,42.456 343.737,41.528 C345.612333,40.6 347.226667,39.266 348.58,37.526 L348.58,37.526 L348.754,38.918 C348.986,40.1553333 349.546667,41.1123333 350.436,41.789 C351.325333,42.4656667 352.64,42.804 354.38,42.804 C354.921333,42.804 355.520667,42.775 356.178,42.717 C356.835333,42.659 357.57,42.5333333 358.382,42.34 L358.382,42.34 L358.382,34.51 C357.647333,34.4326667 357.135,34.2103333 356.845,33.843 C356.555,33.4756667 356.41,32.828 356.41,31.9 L356.41,31.9 L356.41,24.07 C356.41,19.894 355.153333,16.7233333 352.64,14.558 C350.126667,12.3926667 346.569333,11.31 341.968,11.31 C339.532,11.31 337.231333,11.6386667 335.066,12.296 C332.900667,12.9533333 330.812667,13.9393333 328.802,15.254 L328.802,15.254 L331.528,21.054 C333.190667,19.9326667 334.776,19.0916667 336.284,18.531 C337.792,17.9703333 339.377333,17.69 341.04,17.69 C345.1,17.69 347.13,19.4493333 347.13,22.968 L347.13,22.968 L347.13,24.36 C346.240667,23.9346667 345.196667,23.6156667 343.998,23.403 C342.799333,23.1903333 341.562,23.084 340.286,23.084 C338.352667,23.084 336.593333,23.3353333 335.008,23.838 C333.422667,24.3406667 332.05,25.0366667 330.89,25.926 C329.73,26.8153333 328.831,27.8786667 328.193,29.116 C327.555,30.3533333 327.236,31.726 327.236,33.234 C327.236,34.626 327.506667,35.9116667 328.048,37.091 C328.589333,38.2703333 329.324,39.295 330.252,40.165 C331.18,41.035 332.291667,41.7116667 333.587,42.195 C334.882333,42.6783333 336.284,42.92 337.792,42.92 Z M340.518,36.25 C339.203333,36.25 338.120667,35.8923333 337.27,35.177 C336.419333,34.4616667 335.994,33.5433333 335.994,32.422 C335.994,31.1846667 336.545,30.1793333 337.647,29.406 C338.749,28.6326667 340.150667,28.246 341.852,28.246 C342.664,28.246 343.543667,28.333 344.491,28.507 C345.438333,28.681 346.318,28.9226667 347.13,29.232 L347.13,29.232 L347.13,32.132 C347.13,32.9053333 346.685333,33.64 345.796,34.336 C345.177333,34.916 344.394333,35.38 343.447,35.728 C342.499667,36.076 341.523333,36.25 340.518,36.25 Z M63.51,101.762 L70.238,98.456 C68.1886667,94.8213333 66.5066667,91.351 65.192,88.045 C63.8773333,84.739 63.22,81.52 63.22,78.388 C63.22,76.3386667 63.5003333,74.2313333 64.061,72.066 C64.6216667,69.9006667 65.2886667,67.832 66.062,65.86 C66.8353333,63.888 67.628,62.119 68.44,60.553 C69.252,58.987 69.9286667,57.7786667 70.47,56.928 L70.47,56.928 L63.394,54.028 C62.1566667,56.116 61.0063333,58.1846667 59.943,60.234 C58.8796667,62.2833333 57.9516667,64.3133333 57.159,66.324 C56.3663333,68.3346667 55.738,70.326 55.274,72.298 C54.81,74.27 54.578,76.242 54.578,78.214 C54.578,80.2246667 54.8196667,82.245 55.303,84.275 C55.7863333,86.305 56.434,88.3156667 57.246,90.307 C58.058,92.2983333 59.0053333,94.2606667 60.088,96.194 C61.1706667,98.1273333 62.3113333,99.9833333 63.51,101.762 L63.51,101.762 Z M84.158,98.34 L84.158,80.07 C84.97,78.678 86.2846667,77.634 88.102,76.938 C89.9193333,76.242 91.9493333,75.8746667 94.192,75.836 L94.192,75.836 L94.192,67.484 C93.9986667,67.4453333 93.8053333,67.426 93.612,67.426 L93.612,67.426 L92.684,67.426 C90.828,67.4646667 89.0783333,68.064 87.435,69.224 C85.7916667,70.384 84.448,71.9886667 83.404,74.038 L83.404,74.038 L83.404,67.89 L74.878,67.89 L74.878,98.34 L84.158,98.34 Z M111.07,98.92 C113.660667,98.92 115.971,98.4946667 118.001,97.644 C120.031,96.7933333 121.742,95.643 123.134,94.193 C124.526,92.743 125.579667,91.061 126.295,89.147 C127.010333,87.233 127.368,85.232 127.368,83.144 C127.368,81.056 127.000667,79.055 126.266,77.141 C125.531333,75.227 124.468,73.545 123.076,72.095 C121.684,70.645 119.982667,69.485 117.972,68.615 C115.961333,67.745 113.660667,67.31 111.07,67.31 C108.479333,67.31 106.169,67.745 104.139,68.615 C102.109,69.485 100.398,70.645 99.006,72.095 C97.614,73.545 96.5603333,75.227 95.845,77.141 C95.1296667,79.055 94.772,81.056 94.772,83.144 C94.772,85.232 95.1296667,87.233 95.845,89.147 C96.5603333,91.061 97.614,92.743 99.006,94.193 C100.398,95.643 102.109,96.7933333 104.139,97.644 C106.169,98.4946667 108.479333,98.92 111.07,98.92 Z M111.07,91.09 C109.098,91.09 107.474,90.365 106.198,88.915 C104.922,87.465 104.284,85.5413333 104.284,83.144 C104.284,81.984 104.458,80.911 104.806,79.925 C105.154,78.939 105.627667,78.098 106.227,77.402 C106.826333,76.706 107.541667,76.1646667 108.373,75.778 C109.204333,75.3913333 110.103333,75.198 111.07,75.198 C113.003333,75.198 114.608,75.923 115.884,77.373 C117.16,78.823 117.798,80.7466667 117.798,83.144 C117.798,84.304 117.624,85.377 117.276,86.363 C116.928,87.349 116.454333,88.19 115.855,88.886 C115.255667,89.582 114.55,90.1233333 113.738,90.51 C112.926,90.8966667 112.036667,91.09 111.07,91.09 Z M146.508,98.92 C150.026667,98.92 153.013667,98.166 155.469,96.658 C157.924333,95.15 159.712667,93.2166667 160.834,90.858 L160.834,90.858 L151.786,88.074 C151.322,88.9633333 150.606667,89.6883333 149.64,90.249 C148.673333,90.8096667 147.61,91.09 146.45,91.09 C145.522,91.09 144.642333,90.8966667 143.811,90.51 C142.979667,90.1233333 142.254667,89.582 141.636,88.886 C141.017333,88.19 140.534,87.349 140.186,86.363 C139.838,85.377 139.664,84.2846667 139.664,83.086 C139.664,80.6886667 140.311667,78.7746667 141.607,77.344 C142.902333,75.9133333 144.516667,75.198 146.45,75.198 C148.77,75.198 150.529333,76.1646667 151.728,78.098 L151.728,78.098 L160.776,75.372 C159.577333,72.9746667 157.779333,71.0316667 155.382,69.543 C152.984667,68.0543333 150.026667,67.31 146.508,67.31 C143.917333,67.31 141.607,67.7353333 139.577,68.586 C137.547,69.4366667 135.836,70.587 134.444,72.037 C133.052,73.487 131.988667,75.169 131.254,77.083 C130.519333,78.997 130.152,80.998 130.152,83.086 C130.152,85.174 130.519333,87.175 131.254,89.089 C131.988667,91.003 133.061667,92.685 134.473,94.135 C135.884333,95.585 137.605,96.745 139.635,97.615 C141.665,98.485 143.956,98.92 146.508,98.92 Z M174.29,98.34 L174.29,89.466 L177.538,86.102 L185.484,98.34 L195.344,98.34 L183.454,80.998 L194.416,67.89 L184.556,67.89 L174.29,80.534 L174.29,56 L165.01,56 L165.01,98.34 L174.29,98.34 Z M211.004,98.92 C214.522667,98.92 217.538667,98.166 220.052,96.658 C222.565333,95.15 224.421333,93.1973333 225.62,90.8 L225.62,90.8 L217.732,88.596 C217.306667,89.7173333 216.465667,90.6066667 215.209,91.264 C213.952333,91.9213333 212.647333,92.25 211.294,92.25 C209.592667,92.25 208.075,91.7183333 206.741,90.655 C205.407,89.5916667 204.662667,88.0353333 204.508,85.986 L204.508,85.986 L227.012,85.986 C227.089333,85.5993333 227.147333,85.145 227.186,84.623 C227.224667,84.101 227.244,83.5693333 227.244,83.028 C227.244,80.94 226.886333,78.9486667 226.171,77.054 C225.455667,75.1593333 224.402,73.487 223.01,72.037 C221.618,70.587 219.916667,69.4366667 217.906,68.586 C215.895333,67.7353333 213.594667,67.31 211.004,67.31 C208.413333,67.31 206.103,67.7353333 204.073,68.586 C202.043,69.4366667 200.332,70.5966667 198.94,72.066 C197.548,73.5353333 196.484667,75.2463333 195.75,77.199 C195.015333,79.1516667 194.648,81.23 194.648,83.434 C194.648,85.4833333 195.015333,87.4456667 195.75,89.321 C196.484667,91.1963333 197.557667,92.8493333 198.969,94.28 C200.380333,95.7106667 202.101,96.8416667 204.131,97.673 C206.161,98.5043333 208.452,98.92 211.004,98.92 Z M217.442,80.244 L204.334,80.244 C204.527333,78.3493333 205.213667,76.8316667 206.393,75.691 C207.572333,74.5503333 209.070667,73.98 210.888,73.98 C212.666667,73.98 214.155333,74.5406667 215.354,75.662 C216.552667,76.7833333 217.248667,78.3106667 217.442,80.244 L217.442,80.244 Z M241.628,98.92 C243.290667,98.92 244.943667,98.688 246.587,98.224 C248.230333,97.76 249.69,97.2573333 250.966,96.716 L250.966,96.716 L249.168,89.35 C248.626667,89.6206667 247.988667,89.872 247.254,90.104 C246.519333,90.336 245.804,90.452 245.108,90.452 C244.334667,90.452 243.696667,90.2296667 243.194,89.785 C242.691333,89.3403333 242.44,88.6153333 242.44,87.61 L242.44,87.61 L242.44,74.908 L248.646,74.908 L248.646,67.89 L242.44,67.89 L242.44,58.204 L233.16,58.204 L233.16,67.89 L229.274,67.89 L229.274,74.908 L233.16,74.908 L233.16,90.8 C233.16,92.2693333 233.382333,93.526 233.827,94.57 C234.271667,95.614 234.880667,96.455 235.654,97.093 C236.427333,97.731 237.326333,98.195 238.351,98.485 C239.375667,98.775 240.468,98.92 241.628,98.92 Z M263.842,98.34 L263.842,89.466 L267.09,86.102 L275.036,98.34 L284.896,98.34 L273.006,80.998 L283.968,67.89 L274.108,67.89 L263.842,80.534 L263.842,56 L254.562,56 L254.562,98.34 L263.842,98.34 Z M295.8,98.92 C297.888,98.92 299.869667,98.456 301.745,97.528 C303.620333,96.6 305.234667,95.266 306.588,93.526 L306.588,93.526 L306.762,94.918 C306.994,96.1553333 307.554667,97.1123333 308.444,97.789 C309.333333,98.4656667 310.648,98.804 312.388,98.804 C312.929333,98.804 313.528667,98.775 314.186,98.717 C314.843333,98.659 315.578,98.5333333 316.39,98.34 L316.39,98.34 L316.39,90.51 C315.655333,90.4326667 315.143,90.2103333 314.853,89.843 C314.563,89.4756667 314.418,88.828 314.418,87.9 L314.418,87.9 L314.418,80.07 C314.418,75.894 313.161333,72.7233333 310.648,70.558 C308.134667,68.3926667 304.577333,67.31 299.976,67.31 C297.54,67.31 295.239333,67.6386667 293.074,68.296 C290.908667,68.9533333 288.820667,69.9393333 286.81,71.254 L286.81,71.254 L289.536,77.054 C291.198667,75.9326667 292.784,75.0916667 294.292,74.531 C295.8,73.9703333 297.385333,73.69 299.048,73.69 C303.108,73.69 305.138,75.4493333 305.138,78.968 L305.138,78.968 L305.138,80.36 C304.248667,79.9346667 303.204667,79.6156667 302.006,79.403 C300.807333,79.1903333 299.57,79.084 298.294,79.084 C296.360667,79.084 294.601333,79.3353333 293.016,79.838 C291.430667,80.3406667 290.058,81.0366667 288.898,81.926 C287.738,82.8153333 286.839,83.8786667 286.201,85.116 C285.563,86.3533333 285.244,87.726 285.244,89.234 C285.244,90.626 285.514667,91.9116667 286.056,93.091 C286.597333,94.2703333 287.332,95.295 288.26,96.165 C289.188,97.035 290.299667,97.7116667 291.595,98.195 C292.890333,98.6783333 294.292,98.92 295.8,98.92 Z M298.526,92.25 C297.211333,92.25 296.128667,91.8923333 295.278,91.177 C294.427333,90.4616667 294.002,89.5433333 294.002,88.422 C294.002,87.1846667 294.553,86.1793333 295.655,85.406 C296.757,84.6326667 298.158667,84.246 299.86,84.246 C300.672,84.246 301.551667,84.333 302.499,84.507 C303.446333,84.681 304.326,84.9226667 305.138,85.232 L305.138,85.232 L305.138,88.132 C305.138,88.9053333 304.693333,89.64 303.804,90.336 C303.185333,90.916 302.402333,91.38 301.455,91.728 C300.507667,92.076 299.531333,92.25 298.526,92.25 Z M330.426,98.34 L330.426,80.07 C331.238,78.678 332.552667,77.634 334.37,76.938 C336.187333,76.242 338.217333,75.8746667 340.46,75.836 L340.46,75.836 L340.46,67.484 C340.266667,67.4453333 340.073333,67.426 339.88,67.426 L339.88,67.426 L338.952,67.426 C337.096,67.4646667 335.346333,68.064 333.703,69.224 C332.059667,70.384 330.716,71.9886667 329.672,74.038 L329.672,74.038 L329.672,67.89 L321.146,67.89 L321.146,98.34 L330.426,98.34 Z M349.276,101.762 C350.474667,99.9833333 351.615333,98.1273333 352.698,96.194 C353.780667,94.2606667 354.728,92.2983333 355.54,90.307 C356.352,88.3156667 356.999667,86.305 357.483,84.275 C357.966333,82.245 358.208,80.2246667 358.208,78.214 C358.208,76.242 357.976,74.27 357.512,72.298 C357.048,70.326 356.419667,68.3346667 355.627,66.324 C354.834333,64.3133333 353.906333,62.2833333 352.843,60.234 C351.779667,58.1846667 350.629333,56.116 349.392,54.028 L349.392,54.028 L342.316,56.928 C342.857333,57.7786667 343.534,58.987 344.346,60.553 C345.158,62.119 345.950667,63.888 346.724,65.86 C347.497333,67.832 348.164333,69.9006667 348.725,72.066 C349.285667,74.2313333 349.566,76.3386667 349.566,78.388 C349.566,81.52 348.908667,84.739 347.594,88.045 C346.279333,91.351 344.597333,94.8213333 342.548,98.456 L342.548,98.456 L349.276,101.762 Z" id="lockup-name"></path>
                </g>
            </g>
        </g>
    </g>
</svg>